solid Standard Female Figure
  facet normal -0.07001457606269869 0.9975459303509057 -0.00027564307827589255
    outer loop
      vertex 0.13428300619125366 0.24991600215435122 0.12511062622070312
      vertex 0.12133899331092834 0.2490089982748041 0.1305217742919922
      vertex 0.11600199341773987 0.24863800406456088 0.143524169921875
    endloop
  endfacet
  facet normal -0.07006377213170684 0.9975424614460366 -0.0003247258205445008
    outer loop
      vertex 0.13428300619125366 0.24991600215435122 0.12511062622070312
      vertex 0.11600199341773987 0.24863800406456088 0.143524169921875
      vertex 0.1343260109424591 0.2499250024557123 0.1434803009033203
    endloop
  endfacet
  facet normal -0.07006310979790244 0.9975424884979588 -0.00037985095370180074
    outer loop
      vertex 0.15264999866485596 0.2512129992246637 0.14343643188476562
      vertex 0.14725300669670105 0.25082899630069827 0.13045978546142578
      vertex 0.13428300619125366 0.24991600215435122 0.12511062622070312
    endloop
  endfacet
  facet normal -0.07011796895570777 0.997538653419638 -0.00032459707605915207
    outer loop
      vertex 0.15264999866485596 0.2512129992246637 0.14343643188476562
      vertex 0.13428300619125366 0.24991600215435122 0.12511062622070312
      vertex 0.1343260109424591 0.2499250024557123 0.1434803009033203
    endloop
  endfacet
  facet normal -0.07000528726024584 0.9975465847766664 -0.0002663757110633349
    outer loop
      vertex 0.13436898589134216 0.24993500113487338 0.1618499755859375
      vertex 0.14731401205062866 0.2508420050144205 0.15643787384033203
      vertex 0.15264999866485596 0.2512129992246637 0.14343643188476562
    endloop
  endfacet
  facet normal -0.07011809704376527 0.9975386252582208 -0.00037892598256471954
    outer loop
      vertex 0.13436898589134216 0.24993500113487338 0.1618499755859375
      vertex 0.15264999866485596 0.2512129992246637 0.14343643188476562
      vertex 0.1343260109424591 0.2499250024557123 0.1434803009033203
    endloop
  endfacet
  facet normal -0.07006390022136813 0.9975424332845164 -0.0003790548460825434
    outer loop
      vertex 0.13436898589134216 0.24993500113487338 0.1618499755859375
      vertex 0.1343260109424591 0.2499250024557123 0.1434803009033203
      vertex 0.11600199341773987 0.24863800406456088 0.143524169921875
    endloop
  endfacet
  facet normal -0.07007239588931427 0.9975418397568623 -0.0003704980777893376
    outer loop
      vertex 0.13436898589134216 0.24993500113487338 0.1618499755859375
      vertex 0.11600199341773987 0.24863800406456088 0.143524169921875
      vertex 0.12139999866485596 0.24902200698852633 0.15650081634521484
    endloop
  endfacet
  facet normal 0.06990924926653644 -0.9975533316372223 0.00021773026277355296
    outer loop
      vertex 0.14674600958824158 0.07328800112009143 0.1488513946533203
      vertex 0.14299800992012024 0.07302500121295546 0.14730548858642578
      vertex 0.14673399925231934 0.07328600063920115 0.14354228973388672
    endloop
  endfacet
  facet normal 0.07020100893473201 -0.9975328421803508 0.00021706251925778606
    outer loop
      vertex 0.14674600958824158 0.07328800112009143 0.1488513946533203
      vertex 0.14673399925231934 0.07328600063920115 0.14354228973388672
      vertex 0.1504879891872406 0.07355100102722739 0.14728641510009766
    endloop
  endfacet
  facet normal 0.07007003311238648 -0.9975420134690632 0.00034903254310630173
    outer loop
      vertex 0.15202999114990234 0.07365800067782496 0.14352893829345703
      vertex 0.1504879891872406 0.07355100102722739 0.14728641510009766
      vertex 0.14673399925231934 0.07328600063920115 0.14354228973388672
    endloop
  endfacet
  facet normal 0.07007010409771035 -0.9975419980712046 0.00037761865005547936
    outer loop
      vertex 0.15202999114990234 0.07365800067782496 0.14352893829345703
      vertex 0.14673399925231934 0.07328600063920115 0.14354228973388672
      vertex 0.15046998858451843 0.07354700192809199 0.13977813720703125
    endloop
  endfacet
  facet normal 0.0700551790435586 -0.9975430516470413 0.00036331788203613466
    outer loop
      vertex 0.14298000931739807 0.07302100211382007 0.13979625701904297
      vertex 0.14673399925231934 0.07328600063920115 0.14354228973388672
      vertex 0.14299800992012024 0.07302500121295546 0.14730548858642578
    endloop
  endfacet
  facet normal 0.07010557530950765 -0.9975395111973143 0.00036319519015284456
    outer loop
      vertex 0.14298000931739807 0.07302100211382007 0.13979625701904297
      vertex 0.14299800992012024 0.07302500121295546 0.14730548858642578
      vertex 0.14143800735473633 0.07291400060057734 0.1435537338256836
    endloop
  endfacet
  facet normal 0.07008438640986733 -0.9975409892451116 0.0003918640533422388
    outer loop
      vertex 0.1467210054397583 0.07328300178051089 0.13823223114013672
      vertex 0.15046998858451843 0.07354700192809199 0.13977813720703125
      vertex 0.14673399925231934 0.07328600063920115 0.14354228973388672
    endloop
  endfacet
  facet normal 0.07002669064835934 -0.9975450410517512 0.00039200752420723214
    outer loop
      vertex 0.1467210054397583 0.07328300178051089 0.13823223114013672
      vertex 0.14673399925231934 0.07328600063920115 0.14354228973388672
      vertex 0.14298000931739807 0.07302100211382007 0.13979625701904297
    endloop
  endfacet
  facet normal -0.1413387347987753 0.9741056394950759 0.17646972870543784
    outer loop
      vertex 0.0961570143699646 0.2406689971685419 0.18239307403564453
      vertex 0.1349160075187683 0.24339699745178317 0.1983776092529297
      vertex 0.13436898589134216 0.24993500113487338 0.1618499755859375
    endloop
  endfacet
  facet normal -0.1413520439461382 0.9741079999782073 0.17644603722018243
    outer loop
      vertex 0.0961570143699646 0.2406689971685419 0.18239307403564453
      vertex 0.13436898589134216 0.24993500113487338 0.1618499755859375
      vertex 0.12139999866485596 0.24902200698852633 0.15650081634521484
    endloop
  endfacet
  facet normal 0.004607682351077955 0.9843610126476042 0.17610271446725279
    outer loop
      vertex 0.1349160075187683 0.24339699745178317 0.1983776092529297
      vertex 0.1735990047454834 0.24610900878906344 0.1822061538696289
      vertex 0.14731401205062866 0.2508420050144205 0.15643787384033203
    endloop
  endfacet
  facet normal 0.0046623153636136715 0.9843579628261264 0.17611832339722244
    outer loop
      vertex 0.1349160075187683 0.24339699745178317 0.1983776092529297
      vertex 0.14731401205062866 0.2508420050144205 0.15643787384033203
      vertex 0.13436898589134216 0.24993500113487338 0.1618499755859375
    endloop
  endfacet
  facet normal 0.10758409764981719 0.9915559557945139 0.072404754410899
    outer loop
      vertex 0.1735990047454834 0.24610900878906344 0.1822061538696289
      vertex 0.18954700231552124 0.2472160011529932 0.14334964752197266
      vertex 0.15264999866485596 0.2512129992246637 0.14343643188476562
    endloop
  endfacet
  facet normal 0.10753891840849143 0.991559044098591 0.07242957333727919
    outer loop
      vertex 0.1735990047454834 0.24610900878906344 0.1822061538696289
      vertex 0.15264999866485596 0.2512129992246637 0.14343643188476562
      vertex 0.14731401205062866 0.2508420050144205 0.15643787384033203
    endloop
  endfacet
  facet normal 0.10722128471377049 0.9914847895483727 -0.07390201755397255
    outer loop
      vertex 0.18954700231552124 0.2472160011529932 0.14334964752197266
      vertex 0.17341700196266174 0.24606999754905795 0.10457229614257812
      vertex 0.14725300669670105 0.25082899630069827 0.13045978546142578
    endloop
  endfacet
  facet normal 0.10723177169186861 0.9914810110392756 -0.07393748635407471
    outer loop
      vertex 0.18954700231552124 0.2472160011529932 0.14334964752197266
      vertex 0.14725300669670105 0.25082899630069827 0.13045978546142578
      vertex 0.15264999866485596 0.2512129992246637 0.14343643188476562
    endloop
  endfacet
  facet normal 0.003774192710520582 0.9841843969180749 -0.1771068274584271
    outer loop
      vertex 0.17341700196266174 0.24606999754905795 0.10457229614257812
      vertex 0.13465800881385803 0.24334199726581668 0.08858680725097656
      vertex 0.13428300619125366 0.24991600215435122 0.12511062622070312
    endloop
  endfacet
  facet normal 0.0037684325216486205 0.9841825075206708 -0.1771174491874095
    outer loop
      vertex 0.17341700196266174 0.24606999754905795 0.10457229614257812
      vertex 0.13428300619125366 0.24991600215435122 0.12511062622070312
      vertex 0.14725300669670105 0.25082899630069827 0.13045978546142578
    endloop
  endfacet
  facet normal -0.14218101737918165 0.9739280908509876 -0.1767728263856499
    outer loop
      vertex 0.13465800881385803 0.24334199726581668 0.08858680725097656
      vertex 0.09597399830818176 0.2406300008296976 0.10475921630859375
      vertex 0.12133899331092834 0.2490089982748041 0.1305217742919922
    endloop
  endfacet
  facet normal -0.1421383866982388 0.9739365631007793 -0.17676043132517946
    outer loop
      vertex 0.13465800881385803 0.24334199726581668 0.08858680725097656
      vertex 0.12133899331092834 0.2490089982748041 0.1305217742919922
      vertex 0.13428300619125366 0.24991600215435122 0.12511062622070312
    endloop
  endfacet
  facet normal -0.24512578766138401 0.9667343660733161 -0.07306171142403974
    outer loop
      vertex 0.09597399830818176 0.2406300008296976 0.10475921630859375
      vertex 0.08002699911594391 0.23952300846576785 0.1436147689819336
      vertex 0.11600199341773987 0.24863800406456088 0.143524169921875
    endloop
  endfacet
  facet normal -0.24515679654257064 0.9667278158154774 -0.0730443374781442
    outer loop
      vertex 0.09597399830818176 0.2406300008296976 0.10475921630859375
      vertex 0.11600199341773987 0.24863800406456088 0.143524169921875
      vertex 0.12133899331092834 0.2490089982748041 0.1305217742919922
    endloop
  endfacet
  facet normal -0.24478715154919137 0.9668059969182021 0.07324899152503163
    outer loop
      vertex 0.08002699911594391 0.23952300846576785 0.1436147689819336
      vertex 0.0961570143699646 0.2406689971685419 0.18239307403564453
      vertex 0.12139999866485596 0.24902200698852633 0.15650081634521484
    endloop
  endfacet
  facet normal -0.24477692438756615 0.9668113736653059 0.073212191872449
    outer loop
      vertex 0.08002699911594391 0.23952300846576785 0.1436147689819336
      vertex 0.12139999866485596 0.24902200698852633 0.15650081634521484
      vertex 0.11600199341773987 0.24863800406456088 0.143524169921875
    endloop
  endfacet
  facet normal -0.2660205907814827 0.8211955862906778 0.5048473574626108
    outer loop
      vertex 0.06533299386501312 0.21037200093269443 0.21543121337890625
      vertex 0.13699299097061157 0.21541599929332828 0.24498653411865234
      vertex 0.1349160075187683 0.24339699745178317 0.1983776092529297
    endloop
  endfacet
  facet normal -0.26601038901289253 0.8211854125101576 0.5048692813171857
    outer loop
      vertex 0.06533299386501312 0.21037200093269443 0.21543121337890625
      vertex 0.1349160075187683 0.24339699745178317 0.1983776092529297
      vertex 0.0961570143699646 0.2406689971685419 0.18239307403564453
    endloop
  endfacet
  facet normal 0.15102415346061288 0.8504827458984483 0.5038559357599557
    outer loop
      vertex 0.13699299097061157 0.21541599929332828 0.24498653411865234
      vertex 0.20851299166679382 0.2204300016164789 0.2150859832763672
      vertex 0.1735990047454834 0.24610900878906344 0.1822061538696289
    endloop
  endfacet
  facet normal 0.15100814672770227 0.8504892372646179 0.5038497761425655
    outer loop
      vertex 0.13699299097061157 0.21541599929332828 0.24498653411865234
      vertex 0.1735990047454834 0.24610900878906344 0.1822061538696289
      vertex 0.1349160075187683 0.24339699745178317 0.1983776092529297
    endloop
  endfacet
  facet normal 0.44520854783096564 0.871043988776016 0.20753727028032976
    outer loop
      vertex 0.20851299166679382 0.2204300016164789 0.2150859832763672
      vertex 0.23799800872802734 0.22247600555420016 0.1432476043701172
      vertex 0.18954700231552124 0.2472160011529932 0.14334964752197266
    endloop
  endfacet
  facet normal 0.44520065072237575 0.8710472385229786 0.20754057159472777
    outer loop
      vertex 0.20851299166679382 0.2204300016164789 0.2150859832763672
      vertex 0.18954700231552124 0.2472160011529932 0.14334964752197266
      vertex 0.1735990047454834 0.24610900878906344 0.1822061538696289
    endloop
  endfacet
  facet normal 0.4442240174544806 0.8708298683665195 -0.2105240192409207
    outer loop
      vertex 0.23799800872802734 0.22247600555420016 0.1432476043701172
      vertex 0.20817500352859497 0.22035700082779025 0.07155323028564453
      vertex 0.17341700196266174 0.24606999754905795 0.10457229614257812
    endloop
  endfacet
  facet normal 0.44422061158154535 0.87083351899309 -0.2105161049521619
    outer loop
      vertex 0.23799800872802734 0.22247600555420016 0.1432476043701172
      vertex 0.17341700196266174 0.24606999754905795 0.10457229614257812
      vertex 0.18954700231552124 0.2472160011529932 0.14334964752197266
    endloop
  endfacet
  facet normal 0.1486304490398523 0.8499621713130411 -0.5054436634829175
    outer loop
      vertex 0.20817500352859497 0.22035700082779025 0.07155323028564453
      vertex 0.13651499152183533 0.2153130024671564 0.041998863220214844
      vertex 0.13465800881385803 0.24334199726581668 0.08858680725097656
    endloop
  endfacet
  facet normal 0.14863408008704881 0.8499669894284608 -0.5054344934000798
    outer loop
      vertex 0.20817500352859497 0.22035700082779025 0.07155323028564453
      vertex 0.13465800881385803 0.24334199726581668 0.08858680725097656
      vertex 0.17341700196266174 0.24606999754905795 0.10457229614257812
    endloop
  endfacet
  facet normal -0.2684193350993141 0.820665710747181 -0.5044391457338203
    outer loop
      vertex 0.13651499152183533 0.2153130024671564 0.041998863220214844
      vertex 0.06499500572681427 0.21029900014400577 0.0718984603881836
      vertex 0.09597399830818176 0.2406300008296976 0.10475921630859375
    endloop
  endfacet
  facet normal -0.26842238047122363 0.8206639436482713 -0.5044404001047382
    outer loop
      vertex 0.13651499152183533 0.2153130024671564 0.041998863220214844
      vertex 0.09597399830818176 0.2406300008296976 0.10475921630859375
      vertex 0.13465800881385803 0.24334199726581668 0.08858680725097656
    endloop
  endfacet
  facet normal -0.5625882109103626 0.800112572719933 -0.20812106073189177
    outer loop
      vertex 0.06499500572681427 0.21029900014400577 0.0718984603881836
      vertex 0.03551000356674194 0.2082529962062845 0.1437358856201172
      vertex 0.08002699911594391 0.23952300846576785 0.1436147689819336
    endloop
  endfacet
  facet normal -0.5626112401327624 0.8000990666782317 -0.2081107300859278
    outer loop
      vertex 0.06499500572681427 0.21029900014400577 0.0718984603881836
      vertex 0.08002699911594391 0.23952300846576785 0.1436147689819336
      vertex 0.09597399830818176 0.2406300008296976 0.10475921630859375
    endloop
  endfacet
  facet normal -0.5616041119528584 0.8003246499432868 0.20995541462605008
    outer loop
      vertex 0.03551000356674194 0.2082529962062845 0.1437358856201172
      vertex 0.06533299386501312 0.21037200093269443 0.21543121337890625
      vertex 0.0961570143699646 0.2406689971685419 0.18239307403564453
    endloop
  endfacet
  facet normal -0.5616019301590747 0.8003277638909172 0.20994938053484677
    outer loop
      vertex 0.03551000356674194 0.2082529962062845 0.1437358856201172
      vertex 0.0961570143699646 0.2406689971685419 0.18239307403564453
      vertex 0.08002699911594391 0.23952300846576785 0.1436147689819336
    endloop
  endfacet
  facet normal -0.3528539987445095 0.5413749356907931 0.7631561010539059
    outer loop
      vertex 0.046389997005462646 0.16693000495433902 0.23749065399169922
      vertex 0.14000999927520752 0.17351999878883456 0.27610206604003906
      vertex 0.13699299097061157 0.21541599929332828 0.24498653411865234
    endloop
  endfacet
  facet normal -0.35285817380385714 0.5413840336140876 0.7631477165841141
    outer loop
      vertex 0.046389997005462646 0.16693000495433902 0.23749065399169922
      vertex 0.13699299097061157 0.21541599929332828 0.24498653411865234
      vertex 0.06533299386501312 0.21037200093269443 0.21543121337890625
    endloop
  endfacet
  facet normal 0.2773497445121939 0.5856498585404545 0.7616372905855954
    outer loop
      vertex 0.14000999927520752 0.17351999878883456 0.27610206604003906
      vertex 0.23344698548316956 0.18006999790668582 0.23704051971435547
      vertex 0.20851299166679382 0.2204300016164789 0.2150859832763672
    endloop
  endfacet
  facet normal 0.27736548391424576 0.5856346398556536 0.7616432609392373
    outer loop
      vertex 0.14000999927520752 0.17351999878883456 0.27610206604003906
      vertex 0.20851299166679382 0.2204300016164789 0.2150859832763672
      vertex 0.13699299097061157 0.21541599929332828 0.24498653411865234
    endloop
  endfacet
  facet normal 0.7219094580823652 0.6167158049371323 0.3138603993369837
    outer loop
      vertex 0.23344698548316956 0.18006999790668582 0.23704051971435547
      vertex 0.27196699380874634 0.1827429980039606 0.1431884765625
      vertex 0.23799800872802734 0.22247600555420016 0.1432476043701172
    endloop
  endfacet
  facet normal 0.7219077780356392 0.6167174374080183 0.31386105589660707
    outer loop
      vertex 0.23344698548316956 0.18006999790668582 0.23704051971435547
      vertex 0.23799800872802734 0.22247600555420016 0.1432476043701172
      vertex 0.20851299166679382 0.2204300016164789 0.2150859832763672
    endloop
  endfacet
  facet normal 0.7204187324550606 0.6163976373323807 -0.31788488894394223
    outer loop
      vertex 0.27196699380874634 0.1827429980039606 0.1431884765625
      vertex 0.23300600051879883 0.17997400462627505 0.04952239990234375
      vertex 0.20817500352859497 0.22035700082779025 0.07155323028564453
    endloop
  endfacet
  facet normal 0.7204239683585455 0.6163859475569295 -0.31789568960410847
    outer loop
      vertex 0.27196699380874634 0.1827429980039606 0.1431884765625
      vertex 0.20817500352859497 0.22035700082779025 0.07155323028564453
      vertex 0.23799800872802734 0.22247600555420016 0.1432476043701172
    endloop
  endfacet
  facet normal 0.2737361806968397 0.5848641946167386 -0.763545923460286
    outer loop
      vertex 0.23300600051879883 0.17997400462627505 0.04952239990234375
      vertex 0.13938599824905396 0.1733849942684183 0.010911941528320312
      vertex 0.13651499152183533 0.2153130024671564 0.041998863220214844
    endloop
  endfacet
  facet normal 0.2737368915153192 0.5848665784645533 -0.7635438426303345
    outer loop
      vertex 0.23300600051879883 0.17997400462627505 0.04952239990234375
      vertex 0.13651499152183533 0.2153130024671564 0.041998863220214844
      vertex 0.20817500352859497 0.22035700082779025 0.07155323028564453
    endloop
  endfacet
  facet normal -0.3564635583725443 0.5405999182087303 -0.7620272042290208
    outer loop
      vertex 0.13938599824905396 0.1733849942684183 0.010911941528320312
      vertex 0.045948997139930725 0.16683500260114764 0.049973487854003906
      vertex 0.06499500572681427 0.21029900014400577 0.0718984603881836
    endloop
  endfacet
  facet normal -0.3564729386948624 0.5405878773435724 -0.7620313581785328
    outer loop
      vertex 0.13938599824905396 0.1733849942684183 0.010911941528320312
      vertex 0.06499500572681427 0.21029900014400577 0.0718984603881836
      vertex 0.13651499152183533 0.2153130024671564 0.041998863220214844
    endloop
  endfacet
  facet normal -0.8010296718413726 0.5095084696846733 -0.31424923890008893
    outer loop
      vertex 0.045948997139930725 0.16683500260114764 0.049973487854003906
      vertex 0.007429003715515137 0.16416100412607287 0.14382648468017578
      vertex 0.03551000356674194 0.2082529962062845 0.1437358856201172
    endloop
  endfacet
  facet normal -0.8010135433001085 0.5095292669642865 -0.31425663009178084
    outer loop
      vertex 0.045948997139930725 0.16683500260114764 0.049973487854003906
      vertex 0.03551000356674194 0.2082529962062845 0.1437358856201172
      vertex 0.06499500572681427 0.21029900014400577 0.0718984603881836
    endloop
  endfacet
  facet normal -0.7995235634014616 0.5098582262249345 0.317500646797125
    outer loop
      vertex 0.007429003715515137 0.16416100412607287 0.14382648468017578
      vertex 0.046389997005462646 0.16693000495433902 0.23749065399169922
      vertex 0.06533299386501312 0.21037200093269443 0.21543121337890625
    endloop
  endfacet
  facet normal -0.7995262061056455 0.5098490724303594 0.31750869136484305
    outer loop
      vertex 0.007429003715515137 0.16416100412607287 0.14382648468017578
      vertex 0.06533299386501312 0.21037200093269443 0.21543121337890625
      vertex 0.03551000356674194 0.2082529962062845 0.1437358856201172
    endloop
  endfacet
  facet normal -0.3859015313519826 0.17333509643331785 0.9061097905025898
    outer loop
      vertex 0.04217299818992615 0.11695300042629338 0.2452554702758789
      vertex 0.14350798726081848 0.12408600002527333 0.28704833984375
      vertex 0.14000999927520752 0.17351999878883456 0.27610206604003906
    endloop
  endfacet
  facet normal -0.3859046926298832 0.17334202060781492 0.9061071195492479
    outer loop
      vertex 0.04217299818992615 0.11695300042629338 0.2452554702758789
      vertex 0.14000999927520752 0.17351999878883456 0.27610206604003906
      vertex 0.046389997005462646 0.16693000495433902 0.23749065399169922
    endloop
  endfacet
  facet normal 0.36222671918620974 0.22585688355187877 0.9043121541037851
    outer loop
      vertex 0.14350798726081848 0.12408600002527333 0.28704833984375
      vertex 0.24464601278305054 0.13117600232362842 0.2447662353515625
      vertex 0.23344698548316956 0.18006999790668582 0.23704051971435547
    endloop
  endfacet
  facet normal 0.3622158108151655 0.22587440239571857 0.9043121478438125
    outer loop
      vertex 0.14350798726081848 0.12408600002527333 0.28704833984375
      vertex 0.23344698548316956 0.18006999790668582 0.23704051971435547
      vertex 0.14000999927520752 0.17351999878883456 0.27610206604003906
    endloop
  endfacet
  facet normal 0.889954439041533 0.2627466346110358 0.37275367527476483
    outer loop
      vertex 0.24464601278305054 0.13117600232362842 0.2447662353515625
      vertex 0.28634101152420044 0.13407000154256915 0.14317893981933594
      vertex 0.27196699380874634 0.1827429980039606 0.1431884765625
    endloop
  endfacet
  facet normal 0.8899572997193668 0.2627403672699618 0.3727512630200723
    outer loop
      vertex 0.24464601278305054 0.13117600232362842 0.2447662353515625
      vertex 0.27196699380874634 0.1827429980039606 0.1431884765625
      vertex 0.23344698548316956 0.18006999790668582 0.23704051971435547
    endloop
  endfacet
  facet normal 0.8881879239926288 0.2623756168164138 -0.3772018655492982
    outer loop
      vertex 0.28634101152420044 0.13407000154256915 0.14317893981933594
      vertex 0.24416899681091309 0.13107299804687594 0.041792869567871094
      vertex 0.23300600051879883 0.17997400462627505 0.04952239990234375
    endloop
  endfacet
  facet normal 0.8881881802616173 0.2623719693037836 -0.37720379924811404
    outer loop
      vertex 0.28634101152420044 0.13407000154256915 0.14317893981933594
      vertex 0.23300600051879883 0.17997400462627505 0.04952239990234375
      vertex 0.27196699380874634 0.1827429980039606 0.1431884765625
    endloop
  endfacet
  facet normal 0.35792050165711914 0.2249510342165968 -0.9062504878334685
    outer loop
      vertex 0.24416899681091309 0.13107299804687594 0.041792869567871094
      vertex 0.14283299446105957 0.12393999844789598 0
      vertex 0.13938599824905396 0.1733849942684183 0.010911941528320312
    endloop
  endfacet
  facet normal 0.35792064764263937 0.2249515271149397 -0.9062503078287643
    outer loop
      vertex 0.24416899681091309 0.13107299804687594 0.041792869567871094
      vertex 0.13938599824905396 0.1733849942684183 0.010911941528320312
      vertex 0.23300600051879883 0.17997400462627505 0.04952239990234375
    endloop
  endfacet
  facet normal -0.3901939875895262 0.17239596951018799 -0.9044491592928964
    outer loop
      vertex 0.14283299446105957 0.12393999844789598 0
      vertex 0.0416949987411499 0.11685000360012149 0.042281150817871094
      vertex 0.045948997139930725 0.16683500260114764 0.049973487854003906
    endloop
  endfacet
  facet normal -0.3901923143610774 0.1723997501447391 -0.9044491605190298
    outer loop
      vertex 0.14283299446105957 0.12393999844789598 0
      vertex 0.045948997139930725 0.16683500260114764 0.049973487854003906
      vertex 0.13938599824905396 0.1733849942684183 0.010911941528320312
    endloop
  endfacet
  facet normal -0.9179285407939506 0.1355102486263849 -0.3728862648490878
    outer loop
      vertex 0.0416949987411499 0.11685000360012149 0.042281150817871094
      vertex 0 0.11395600438118075 0.14386940002441406
      vertex 0.007429003715515137 0.16416100412607287 0.14382648468017578
    endloop
  endfacet
  facet normal -0.917930047381525 0.1355051635188275 -0.3728844040368102
    outer loop
      vertex 0.0416949987411499 0.11685000360012149 0.042281150817871094
      vertex 0.007429003715515137 0.16416100412607287 0.14382648468017578
      vertex 0.045948997139930725 0.16683500260114764 0.049973487854003906
    endloop
  endfacet
  facet normal -0.916160379663591 0.13588952364196702 0.37707319726947475
    outer loop
      vertex 0 0.11395600438118075 0.14386940002441406
      vertex 0.04217299818992615 0.11695300042629338 0.2452554702758789
      vertex 0.046389997005462646 0.16693000495433902 0.23749065399169922
    endloop
  endfacet
  facet normal -0.9161603903896761 0.13588967635619598 0.37707311617356715
    outer loop
      vertex 0 0.11395600438118075 0.14386940002441406
      vertex 0.046389997005462646 0.16693000495433902 0.23749065399169922
      vertex 0.007429003715515137 0.16416100412607287 0.14382648468017578
    endloop
  endfacet
  facet normal -0.357931915941895 -0.2249510338695163 0.9062459798041589
    outer loop
      vertex 0.053335994482040405 0.06805200129747485 0.23752498626708984
      vertex 0.14695501327514648 0.07464100047946072 0.2761363983154297
      vertex 0.14350798726081848 0.12408600002527333 0.28704833984375
    endloop
  endfacet
  facet normal -0.35792096700158127 -0.22496861752000363 0.9062459393077529
    outer loop
      vertex 0.053335994482040405 0.06805200129747485 0.23752498626708984
      vertex 0.14350798726081848 0.12408600002527333 0.28704833984375
      vertex 0.04217299818992615 0.11695300042629338 0.2452554702758789
    endloop
  endfacet
  facet normal 0.3901940837157919 -0.17238266475816935 0.9044516537239932
    outer loop
      vertex 0.14695501327514648 0.07464100047946072 0.2761363983154297
      vertex 0.24039199948310852 0.08119200170040225 0.2370748519897461
      vertex 0.24464601278305054 0.13117600232362842 0.2447662353515625
    endloop
  endfacet
  facet normal 0.390201108757803 -0.17239812013533334 0.9044456771404151
    outer loop
      vertex 0.14695501327514648 0.07464100047946072 0.2761363983154297
      vertex 0.24464601278305054 0.13117600232362842 0.2447662353515625
      vertex 0.14350798726081848 0.12408600002527333 0.28704833984375
    endloop
  endfacet
  facet normal 0.9179276653976102 -0.1354921301367484 0.3728950036789168
    outer loop
      vertex 0.24039199948310852 0.08119200170040225 0.2370748519897461
      vertex 0.2789129912853241 0.08386500179767703 0.14322185516357422
      vertex 0.28634101152420044 0.13407000154256915 0.14317893981933594
    endloop
  endfacet
  facet normal 0.9179283153215841 -0.1355017299438597 0.37288991554224094
    outer loop
      vertex 0.24039199948310852 0.08119200170040225 0.2370748519897461
      vertex 0.28634101152420044 0.13407000154256915 0.14317893981933594
      vertex 0.24464601278305054 0.13117600232362842 0.2447662353515625
    endloop
  endfacet
  facet normal 0.9161626194824298 -0.13588210726320513 -0.3770704278895432
    outer loop
      vertex 0.2789129912853241 0.08386500179767703 0.14322185516357422
      vertex 0.2399519979953766 0.08109600096941089 0.049556732177734375
      vertex 0.24416899681091309 0.13107299804687594 0.041792869567871094
    endloop
  endfacet
  facet normal 0.9161654876828395 -0.13587247836631802 -0.37706692880901055
    outer loop
      vertex 0.2789129912853241 0.08386500179767703 0.14322185516357422
      vertex 0.24416899681091309 0.13107299804687594 0.041792869567871094
      vertex 0.28634101152420044 0.13407000154256915 0.14317893981933594
    endloop
  endfacet
  facet normal 0.38589694990933476 -0.1733282396750742 -0.9061130533116784
    outer loop
      vertex 0.2399519979953766 0.08109600096941089 0.049556732177734375
      vertex 0.1463319957256317 0.0745060015469799 0.010946273803710938
      vertex 0.14283299446105957 0.12393999844789598 0
    endloop
  endfacet
  facet normal 0.3858983211361003 -0.1733251414042191 -0.9061130619859459
    outer loop
      vertex 0.2399519979953766 0.08109600096941089 0.049556732177734375
      vertex 0.14283299446105957 0.12393999844789598 0
      vertex 0.24416899681091309 0.13107299804687594 0.041792869567871094
    endloop
  endfacet
  facet normal -0.36220984543451695 -0.2258610625372614 -0.9043178690592388
    outer loop
      vertex 0.1463319957256317 0.0745060015469799 0.010946273803710938
      vertex 0.052894994616508484 0.06795600056648349 0.050006866455078125
      vertex 0.0416949987411499 0.11685000360012149 0.042281150817871094
    endloop
  endfacet
  facet normal -0.3622158491249532 -0.2258814452464352 -0.904310373343174
    outer loop
      vertex 0.1463319957256317 0.0745060015469799 0.010946273803710938
      vertex 0.0416949987411499 0.11685000360012149 0.042281150817871094
      vertex 0.14283299446105957 0.12393999844789598 0
    endloop
  endfacet
  facet normal -0.889953808541989 -0.2627461353715874 -0.37275553249939064
    outer loop
      vertex 0.052894994616508484 0.06795600056648349 0.050006866455078125
      vertex 0.014374002814292908 0.06528300046920871 0.14385986328125
      vertex 0 0.11395600438118075 0.14386940002441406
    endloop
  endfacet
  facet normal -0.8899530349334641 -0.2627567628689517 -0.3727498882351892
    outer loop
      vertex 0.052894994616508484 0.06795600056648349 0.050006866455078125
      vertex 0 0.11395600438118075 0.14386940002441406
      vertex 0.0416949987411499 0.11685000360012149 0.042281150817871094
    endloop
  endfacet
  facet normal -0.8881804159746484 -0.26238325403827006 0.37721423180917935
    outer loop
      vertex 0.014374002814292908 0.06528300046920871 0.14385986328125
      vertex 0.053335994482040405 0.06805200129747485 0.23752498626708984
      vertex 0.04217299818992615 0.11695300042629338 0.2452554702758789
    endloop
  endfacet
  facet normal -0.8881860239613114 -0.26237102155423436 0.37720953578665545
    outer loop
      vertex 0.014374002814292908 0.06528300046920871 0.14385986328125
      vertex 0.04217299818992615 0.11695300042629338 0.2452554702758789
      vertex 0 0.11395600438118075 0.14386940002441406
    endloop
  endfacet
  facet normal -0.2737378131432773 -0.5848639479219667 0.7635455271800542
    outer loop
      vertex 0.07816599309444427 0.027669001370669362 0.21549510955810547
      vertex 0.14982599020004272 0.03271300159394836 0.24504947662353516
      vertex 0.14695501327514648 0.07464100047946072 0.2761363983154297
    endloop
  endfacet
  facet normal -0.2737493770215151 -0.5848527420007099 0.7635499648055675
    outer loop
      vertex 0.07816599309444427 0.027669001370669362 0.21549510955810547
      vertex 0.14695501327514648 0.07464100047946072 0.2761363983154297
      vertex 0.053335994482040405 0.06805200129747485 0.23752498626708984
    endloop
  endfacet
  facet normal 0.3564720780763215 -0.5405919994964153 0.762028836483513
    outer loop
      vertex 0.14982599020004272 0.03271300159394836 0.24504947662353516
      vertex 0.22134599089622498 0.03772700112313127 0.2151498794555664
      vertex 0.24039199948310852 0.08119200170040225 0.2370748519897461
    endloop
  endfacet
  facet normal 0.3564706056217001 -0.5405887570480363 0.7620318255039993
    outer loop
      vertex 0.14982599020004272 0.03271300159394836 0.24504947662353516
      vertex 0.24039199948310852 0.08119200170040225 0.2370748519897461
      vertex 0.14695501327514648 0.07464100047946072 0.2761363983154297
    endloop
  endfacet
  facet normal 0.8010171551510182 -0.5095250548189086 0.31425425321792794
    outer loop
      vertex 0.22134599089622498 0.03772700112313127 0.2151498794555664
      vertex 0.2508310079574585 0.03977300133556222 0.1433115005493164
      vertex 0.2789129912853241 0.08386500179767703 0.14322185516357422
    endloop
  endfacet
  facet normal 0.8010184899975774 -0.5095204924119644 0.31425824809266384
    outer loop
      vertex 0.22134599089622498 0.03772700112313127 0.2151498794555664
      vertex 0.2789129912853241 0.08386500179767703 0.14322185516357422
      vertex 0.24039199948310852 0.08119200170040225 0.2370748519897461
    endloop
  endfacet
  facet normal 0.799525331054769 -0.5098575327225273 -0.31749730916632796
    outer loop
      vertex 0.2508310079574585 0.03977300133556222 0.1433115005493164
      vertex 0.22100898623466492 0.03765400126576518 0.07161617279052734
      vertex 0.2399519979953766 0.08109600096941089 0.049556732177734375
    endloop
  endfacet
  facet normal 0.7995243803035019 -0.5098587564525517 -0.31749773821077604
    outer loop
      vertex 0.2508310079574585 0.03977300133556222 0.1433115005493164
      vertex 0.2399519979953766 0.08109600096941089 0.049556732177734375
      vertex 0.2789129912853241 0.08386500179767703 0.14322185516357422
    endloop
  endfacet
  facet normal 0.3528512770852887 -0.5413756761519393 -0.7631568341634053
    outer loop
      vertex 0.22100898623466492 0.03765400126576518 0.07161617279052734
      vertex 0.14934900403022766 0.032610001042486174 0.042061805725097656
      vertex 0.1463319957256317 0.0745060015469799 0.010946273803710938
    endloop
  endfacet
  facet normal 0.35284612175294905 -0.5413823051521068 -0.7631545151750688
    outer loop
      vertex 0.22100898623466492 0.03765400126576518 0.07161617279052734
      vertex 0.1463319957256317 0.0745060015469799 0.010946273803710938
      vertex 0.2399519979953766 0.08109600096941089 0.049556732177734375
    endloop
  endfacet
  facet normal -0.2773513157760744 -0.585650433831118 -0.7616362760469747
    outer loop
      vertex 0.14934900403022766 0.032610001042486174 0.042061805725097656
      vertex 0.07782900333404541 0.027596000581980692 0.0719614028930664
      vertex 0.052894994616508484 0.06795600056648349 0.050006866455078125
    endloop
  endfacet
  facet normal -0.27734734213058115 -0.5856369313418426 -0.7616481054014462
    outer loop
      vertex 0.14934900403022766 0.032610001042486174 0.042061805725097656
      vertex 0.052894994616508484 0.06795600056648349 0.050006866455078125
      vertex 0.1463319957256317 0.0745060015469799 0.010946273803710938
    endloop
  endfacet
  facet normal -0.7219042313398749 -0.6167223591294962 -0.3138595426673096
    outer loop
      vertex 0.07782900333404541 0.027596000581980692 0.0719614028930664
      vertex 0.048344001173973083 0.02555000223219489 0.1437997817993164
      vertex 0.014374002814292908 0.06528300046920871 0.14385986328125
    endloop
  endfacet
  facet normal -0.7219061650702717 -0.6167180875593822 -0.3138634883363019
    outer loop
      vertex 0.07782900333404541 0.027596000581980692 0.0719614028930664
      vertex 0.014374002814292908 0.06528300046920871 0.14385986328125
      vertex 0.052894994616508484 0.06795600056648349 0.050006866455078125
    endloop
  endfacet
  facet normal -0.7204329894630055 -0.616381000602605 0.3178848373067335
    outer loop
      vertex 0.048344001173973083 0.02555000223219489 0.1437997817993164
      vertex 0.07816599309444427 0.027669001370669362 0.21549510955810547
      vertex 0.053335994482040405 0.06805200129747485 0.23752498626708984
    endloop
  endfacet
  facet normal -0.7204117214730826 -0.616401620045775 0.31789305492434616
    outer loop
      vertex 0.048344001173973083 0.02555000223219489 0.1437997817993164
      vertex 0.053335994482040405 0.06805200129747485 0.23752498626708984
      vertex 0.014374002814292908 0.06528300046920871 0.14385986328125
    endloop
  endfacet
  facet normal -0.4356973503070137 -0.8759149330598932 0.2072217386717197
    outer loop
      vertex 0.048344001173973083 0.02555000223219489 0.1437997817993164
      vertex 0.09531301259994507 0.002163000404835691 0.14369964599609375
      vertex 0.11184900999069214 0.003343001008034703 0.1834554672241211
    endloop
  endfacet
  facet normal -0.4356393547152185 -0.8759734993834203 0.2070960670830643
    outer loop
      vertex 0.048344001173973083 0.02555000223219489 0.1437997817993164
      vertex 0.11184900999069214 0.003343001008034703 0.1834554672241211
      vertex 0.07816599309444427 0.027669001370669362 0.21549510955810547
    endloop
  endfacet
  facet normal -0.43694014354567334 -0.8760324230971509 -0.20408455267565215
    outer loop
      vertex 0.07782900333404541 0.027596000581980692 0.0719614028930664
      vertex 0.11166301369667053 0.0032880008220682044 0.1038656234741211
      vertex 0.09531301259994507 0.002163000404835691 0.14369964599609375
    endloop
  endfacet
  facet normal -0.4366848293056662 -0.876136615885535 -0.20418371668407678
    outer loop
      vertex 0.07782900333404541 0.027596000581980692 0.0719614028930664
      vertex 0.09531301259994507 0.002163000404835691 0.14369964599609375
      vertex 0.048344001173973083 0.02555000223219489 0.1437997817993164
    endloop
  endfacet
  facet normal -0.1475584745306596 -0.8557163552841847 -0.4959596918030089
    outer loop
      vertex 0.14934900403022766 0.032610001042486174 0.042061805725097656
      vertex 0.15132200717926025 0.006058000028134336 0.08728694915771484
      vertex 0.11166301369667053 0.0032880008220682044 0.1038656234741211
    endloop
  endfacet
  facet normal -0.14729652313125147 -0.8558243521948721 -0.49585119992158166
    outer loop
      vertex 0.14934900403022766 0.032610001042486174 0.042061805725097656
      vertex 0.11166301369667053 0.0032880008220682044 0.1038656234741211
      vertex 0.07782900333404541 0.027596000581980692 0.0719614028930664
    endloop
  endfacet
  facet normal 0.2631116576498711 -0.8268495961123288 -0.49708349501629573
    outer loop
      vertex 0.22100898623466492 0.03765400126576518 0.07161617279052734
      vertex 0.1910569965839386 0.008850000798703184 0.10367488861083984
      vertex 0.15132200717926025 0.006058000028134336 0.08728694915771484
    endloop
  endfacet
  facet normal 0.2631640920627489 -0.8269054162555725 -0.4969628690515898
    outer loop
      vertex 0.22100898623466492 0.03765400126576518 0.07161617279052734
      vertex 0.15132200717926025 0.006058000028134336 0.08728694915771484
      vertex 0.14934900403022766 0.032610001042486174 0.042061805725097656
    endloop
  endfacet
  facet normal 0.554141064879636 -0.8063875857027204 -0.20655929375992943
    outer loop
      vertex 0.2508310079574585 0.03977300133556222 0.1433115005493164
      vertex 0.20759299397468567 0.010030001401902189 0.14342975616455078
      vertex 0.1910569965839386 0.008850000798703184 0.10367488861083984
    endloop
  endfacet
  facet normal 0.5541911279804239 -0.8063204035549315 -0.20668720443897293
    outer loop
      vertex 0.2508310079574585 0.03977300133556222 0.1433115005493164
      vertex 0.1910569965839386 0.008850000798703184 0.10367488861083984
      vertex 0.22100898623466492 0.03765400126576518 0.07161617279052734
    endloop
  endfacet
  facet normal 0.5548660441702513 -0.8062933141944028 0.20497503387550173
    outer loop
      vertex 0.22134599089622498 0.03772700112313127 0.2151498794555664
      vertex 0.1912429928779602 0.008905000984669682 0.18326377868652344
      vertex 0.20759299397468567 0.010030001401902189 0.14342975616455078
    endloop
  endfacet
  facet normal 0.5551055313041175 -0.8061538220854224 0.2048752407018436
    outer loop
      vertex 0.22134599089622498 0.03772700112313127 0.2151498794555664
      vertex 0.20759299397468567 0.010030001401902189 0.14342975616455078
      vertex 0.2508310079574585 0.03977300133556222 0.1433115005493164
    endloop
  endfacet
  facet normal 0.26523242733395225 -0.8266300307270689 0.4963210168738625
    outer loop
      vertex 0.14982599020004272 0.03271300159394836 0.24504947662353516
      vertex 0.15158501267433167 0.006135001778603551 0.1998434066772461
      vertex 0.1912429928779602 0.008905000984669682 0.18326377868652344
    endloop
  endfacet
  facet normal 0.2654791465618609 -0.8264850541917922 0.49643053687134936
    outer loop
      vertex 0.14982599020004272 0.03271300159394836 0.24504947662353516
      vertex 0.1912429928779602 0.008905000984669682 0.18326377868652344
      vertex 0.22134599089622498 0.03772700112313127 0.2151498794555664
    endloop
  endfacet
  facet normal -0.14492768829019836 -0.855472943909938 0.497153907160472
    outer loop
      vertex 0.07816599309444427 0.027669001370669362 0.21549510955810547
      vertex 0.11184900999069214 0.003343001008034703 0.1834554672241211
      vertex 0.15158501267433167 0.006135001778603551 0.1998434066772461
    endloop
  endfacet
  facet normal -0.14488100679934401 -0.8554066161478563 0.4972816253585915
    outer loop
      vertex 0.07816599309444427 0.027669001370669362 0.21549510955810547
      vertex 0.15158501267433167 0.006135001778603551 0.1998434066772461
      vertex 0.14982599020004272 0.03271300159394836 0.24504947662353516
    endloop
  endfacet
  facet normal 0.18663718645346442 -0.9378893668360763 -0.29245528924702063
    outer loop
      vertex 0.13810798525810242 0.011479999870062818 0.15658187866210938
      vertex 0.1510779857635498 0.012393001466990461 0.16193103790283203
      vertex 0.15175899863243103 0.0033689998090276688 0.19130516052246094
    endloop
  endfacet
  facet normal 0.18652050360840947 -0.937924334742818 -0.2924175850233833
    outer loop
      vertex 0.13810798525810242 0.011479999870062818 0.15658187866210938
      vertex 0.15175899863243103 0.0033689998090276688 0.19130516052246094
      vertex 0.11805200576782227 0.001000002026558866 0.17740345001220703
    endloop
  endfacet
  facet normal -0.05527904155381773 -0.9547388600491428 -0.2922634713352918
    outer loop
      vertex 0.1510779857635498 0.012393001466990461 0.16193103790283203
      vertex 0.16402199864387512 0.013300001621247282 0.15651988983154297
      vertex 0.18540000915527344 0.0057190023362646 0.17724132537841797
    endloop
  endfacet
  facet normal -0.055391032753480826 -0.954800913804334 -0.2920394639238191
    outer loop
      vertex 0.1510779857635498 0.012393001466990461 0.16193103790283203
      vertex 0.18540000915527344 0.0057190023362646 0.17724132537841797
      vertex 0.15175899863243103 0.0033689998090276688 0.19130516052246094
    endloop
  endfacet
  facet normal -0.22641419142941435 -0.9665459506802891 -0.12052194465283443
    outer loop
      vertex 0.16402199864387512 0.013300001621247282 0.15651988983154297
      vertex 0.1693589985370636 0.013670999556780805 0.14351844787597656
      vertex 0.19926899671554565 0.0066730007529268165 0.14345073699951172
    endloop
  endfacet
  facet normal -0.2262976308823928 -0.9666168642749191 -0.12017162708534306
    outer loop
      vertex 0.16402199864387512 0.013300001621247282 0.15651988983154297
      vertex 0.19926899671554565 0.0066730007529268165 0.14345073699951172
      vertex 0.18540000915527344 0.0057190023362646 0.17724132537841797
    endloop
  endfacet
  facet normal -0.22592627279256272 -0.9664015752937559 0.12257778971660184
    outer loop
      vertex 0.1693589985370636 0.013670999556780805 0.14351844787597656
      vertex 0.1639609932899475 0.01328700035810565 0.13054180145263672
      vertex 0.18524199724197388 0.005672000348568906 0.10972881317138672
    endloop
  endfacet
  facet normal -0.2258336343940453 -0.9664172332644797 0.12262504159348828
    outer loop
      vertex 0.1693589985370636 0.013670999556780805 0.14351844787597656
      vertex 0.18524199724197388 0.005672000348568906 0.10972881317138672
      vertex 0.19926899671554565 0.0066730007529268165 0.14345073699951172
    endloop
  endfacet
  facet normal -0.05410407798033951 -0.9543224934392682 0.2938389478298529
    outer loop
      vertex 0.1639609932899475 0.01328700035810565 0.13054180145263672
      vertex 0.15099099278450012 0.012375000864268293 0.12519168853759766
      vertex 0.1515350043773651 0.0033030025661001106 0.09582805633544922
    endloop
  endfacet
  facet normal -0.05410787777648199 -0.9543219108045535 0.29384014041800177
    outer loop
      vertex 0.1639609932899475 0.01328700035810565 0.13054180145263672
      vertex 0.1515350043773651 0.0033030025661001106 0.09582805633544922
      vertex 0.18524199724197388 0.005672000348568906 0.10972881317138672
    endloop
  endfacet
  facet normal 0.1881614427074843 -0.937485815946834 0.29277229441451064
    outer loop
      vertex 0.15099099278450012 0.012375000864268293 0.12519168853759766
      vertex 0.138045996427536 0.011467002332211484 0.13060379028320312
      vertex 0.11789500713348389 0.0009540021419534583 0.10989093780517578
    endloop
  endfacet
  facet normal 0.18798593651155426 -0.9374181769527845 0.29310143157683805
    outer loop
      vertex 0.15099099278450012 0.012375000864268293 0.12519168853759766
      vertex 0.11789500713348389 0.0009540021419534583 0.10989093780517578
      vertex 0.1515350043773651 0.0033030025661001106 0.09582805633544922
    endloop
  endfacet
  facet normal 0.3584355280784728 -0.9257118284089233 0.12075422541225742
    outer loop
      vertex 0.138045996427536 0.011467002332211484 0.13060379028320312
      vertex 0.13271000981330872 0.011097002774477949 0.14360618591308594
      vertex 0.10402500629425049 9.43689570931383e-16 0.14368152618408203
    endloop
  endfacet
  facet normal 0.35851765511016226 -0.9256444009379865 0.12102699693236654
    outer loop
      vertex 0.138045996427536 0.011467002332211484 0.13060379028320312
      vertex 0.10402500629425049 9.43689570931383e-16 0.14368152618408203
      vertex 0.11789500713348389 0.0009540021419534583 0.10989093780517578
    endloop
  endfacet
  facet normal 0.3577029669759017 -0.925900538012793 -0.12147749225373983
    outer loop
      vertex 0.13271000981330872 0.011097002774477949 0.14360618591308594
      vertex 0.13810798525810242 0.011479999870062818 0.15658187866210938
      vertex 0.11805200576782227 0.001000002026558866 0.17740345001220703
    endloop
  endfacet
  facet normal 0.3578539991615709 -0.9258526440168784 -0.12139768058338686
    outer loop
      vertex 0.13271000981330872 0.011097002774477949 0.14360618591308594
      vertex 0.11805200576782227 0.001000002026558866 0.17740345001220703
      vertex 0.10402500629425049 9.43689570931383e-16 0.14368152618408203
    endloop
  endfacet
  facet normal 0.9169052576273591 -0.12977891725355062 -0.37741513108486063
    outer loop
      vertex 0.13271000981330872 0.011097002774477949 0.14360618591308594
      vertex 0.14143800735473633 0.07291400060057734 0.1435537338256836
      vertex 0.14299800992012024 0.07302500121295546 0.14730548858642578
    endloop
  endfacet
  facet normal 0.9168397146348904 -0.12975809165611715 -0.37758148169365424
    outer loop
      vertex 0.13271000981330872 0.011097002774477949 0.14360618591308594
      vertex 0.14299800992012024 0.07302500121295546 0.14730548858642578
      vertex 0.13810798525810242 0.011479999870062818 0.15658187866210938
    endloop
  endfacet
  facet normal 0.3859360238336468 -0.16740380306685332 -0.9072096517488275
    outer loop
      vertex 0.13810798525810242 0.011479999870062818 0.15658187866210938
      vertex 0.14299800992012024 0.07302500121295546 0.14730548858642578
      vertex 0.14674600958824158 0.07328800112009143 0.1488513946533203
    endloop
  endfacet
  facet normal 0.385939853349927 -0.1674041270283709 -0.9072079628454028
    outer loop
      vertex 0.13810798525810242 0.011479999870062818 0.15658187866210938
      vertex 0.14674600958824158 0.07328800112009143 0.1488513946533203
      vertex 0.1510779857635498 0.012393001466990461 0.16193103790283203
    endloop
  endfacet
  facet normal -0.36314190613960956 -0.22028681828630955 -0.9053185481887497
    outer loop
      vertex 0.1510779857635498 0.012393001466990461 0.16193103790283203
      vertex 0.14674600958824158 0.07328800112009143 0.1488513946533203
      vertex 0.1504879891872406 0.07355100102722739 0.14728641510009766
    endloop
  endfacet
  facet normal -0.3630413900942939 -0.22029502359472602 -0.9053568642572949
    outer loop
      vertex 0.1510779857635498 0.012393001466990461 0.16193103790283203
      vertex 0.1504879891872406 0.07355100102722739 0.14728641510009766
      vertex 0.16402199864387512 0.013300001621247282 0.15651988983154297
    endloop
  endfacet
  facet normal -0.8913577352411612 -0.25740496848424815 -0.3731274179491115
    outer loop
      vertex 0.16402199864387512 0.013300001621247282 0.15651988983154297
      vertex 0.1504879891872406 0.07355100102722739 0.14728641510009766
      vertex 0.15202999114990234 0.07365800067782496 0.14352893829345703
    endloop
  endfacet
  facet normal -0.8913140301437854 -0.2574169712343296 -0.3732235289868359
    outer loop
      vertex 0.16402199864387512 0.013300001621247282 0.15651988983154297
      vertex 0.15202999114990234 0.07365800067782496 0.14352893829345703
      vertex 0.1693589985370636 0.013670999556780805 0.14351844787597656
    endloop
  endfacet
  facet normal -0.2387341532229593 -0.9626292387629921 0.1278708440712708
    outer loop
      vertex 0.11184900999069214 0.003343001008034703 0.1834554672241211
      vertex 0.09531301259994507 0.002163000404835691 0.14369964599609375
      vertex 0.10402500629425049 9.43689570931383e-16 0.14368152618408203
    endloop
  endfacet
  facet normal -0.23882233500154526 -0.962605327783784 0.12788618074945926
    outer loop
      vertex 0.11184900999069214 0.003343001008034703 0.1834554672241211
      vertex 0.10402500629425049 9.43689570931383e-16 0.14368152618408203
      vertex 0.11805200576782227 0.001000002026558866 0.17740345001220703
    endloop
  endfacet
  facet normal -0.2393246853784623 -0.9628045967448731 -0.12542329710003092
    outer loop
      vertex 0.09531301259994507 0.002163000404835691 0.14369964599609375
      vertex 0.11166301369667053 0.0032880008220682044 0.1038656234741211
      vertex 0.11789500713348389 0.0009540021419534583 0.10989093780517578
    endloop
  endfacet
  facet normal -0.23930604366751038 -0.9628108815468867 -0.12541062091828778
    outer loop
      vertex 0.09531301259994507 0.002163000404835691 0.14369964599609375
      vertex 0.11789500713348389 0.0009540021419534583 0.10989093780517578
      vertex 0.10402500629425049 9.43689570931383e-16 0.14368152618408203
    endloop
  endfacet
  facet normal -0.06113117096256842 -0.9503795125846035 -0.3050274774445681
    outer loop
      vertex 0.11166301369667053 0.0032880008220682044 0.1038656234741211
      vertex 0.15132200717926025 0.006058000028134336 0.08728694915771484
      vertex 0.1515350043773651 0.0033030025661001106 0.09582805633544922
    endloop
  endfacet
  facet normal -0.061114382914943484 -0.9504073007606018 -0.3049442487765142
    outer loop
      vertex 0.11166301369667053 0.0032880008220682044 0.1038656234741211
      vertex 0.1515350043773651 0.0033030025661001106 0.09582805633544922
      vertex 0.11789500713348389 0.0009540021419534583 0.10989093780517578
    endloop
  endfacet
  facet normal 0.19157467706431264 -0.9326885438664455 -0.30559977625645235
    outer loop
      vertex 0.15132200717926025 0.006058000028134336 0.08728694915771484
      vertex 0.1910569965839386 0.008850000798703184 0.10367488861083984
      vertex 0.18524199724197388 0.005672000348568906 0.10972881317138672
    endloop
  endfacet
  facet normal 0.1915883881158457 -0.9326789908495325 -0.30562033565695473
    outer loop
      vertex 0.15132200717926025 0.006058000028134336 0.08728694915771484
      vertex 0.18524199724197388 0.005672000348568906 0.10972881317138672
      vertex 0.1515350043773651 0.0033030025661001106 0.09582805633544922
    endloop
  endfacet
  facet normal -0.059695389386441824 -0.9499681177712375 0.3065893600635443
    outer loop
      vertex 0.15158501267433167 0.006135001778603551 0.1998434066772461
      vertex 0.11184900999069214 0.003343001008034703 0.1834554672241211
      vertex 0.11805200576782227 0.001000002026558866 0.17740345001220703
    endloop
  endfacet
  facet normal -0.05965733107054171 -0.9499874350271094 0.3065369082837391
    outer loop
      vertex 0.15158501267433167 0.006135001778603551 0.1998434066772461
      vertex 0.11805200576782227 0.001000002026558866 0.17740345001220703
      vertex 0.15175899863243103 0.0033689998090276688 0.19130516052246094
    endloop
  endfacet
  facet normal 0.1930231256889071 -0.9322756440932533 0.30594802888692435
    outer loop
      vertex 0.1912429928779602 0.008905000984669682 0.18326377868652344
      vertex 0.15158501267433167 0.006135001778603551 0.1998434066772461
      vertex 0.15175899863243103 0.0033689998090276688 0.19130516052246094
    endloop
  endfacet
  facet normal 0.19302009060956857 -0.9322827736229549 0.30592821809529813
    outer loop
      vertex 0.1912429928779602 0.008905000984669682 0.18326377868652344
      vertex 0.15175899863243103 0.0033689998090276688 0.19130516052246094
      vertex 0.18540000915527344 0.0057190023362646 0.17724132537841797
    endloop
  endfacet
  facet normal 0.37128180685760376 -0.9198745511899622 0.12641451645130955
    outer loop
      vertex 0.20759299397468567 0.010030001401902189 0.14342975616455078
      vertex 0.1912429928779602 0.008905000984669682 0.18326377868652344
      vertex 0.18540000915527344 0.0057190023362646 0.17724132537841797
    endloop
  endfacet
  facet normal 0.3712941119407086 -0.9198683661153488 0.12642338177109247
    outer loop
      vertex 0.20759299397468567 0.010030001401902189 0.14342975616455078
      vertex 0.18540000915527344 0.0057190023362646 0.17724132537841797
      vertex 0.19926899671554565 0.0066730007529268165 0.14345073699951172
    endloop
  endfacet
  facet normal 0.37072249970958726 -0.920034197582798 -0.1268932759733634
    outer loop
      vertex 0.1910569965839386 0.008850000798703184 0.10367488861083984
      vertex 0.20759299397468567 0.010030001401902189 0.14342975616455078
      vertex 0.19926899671554565 0.0066730007529268165 0.14345073699951172
    endloop
  endfacet
  facet normal 0.3707123210208047 -0.9200385558972247 -0.1268914130503607
    outer loop
      vertex 0.1910569965839386 0.008850000798703184 0.10367488861083984
      vertex 0.19926899671554565 0.0066730007529268165 0.14345073699951172
      vertex 0.18524199724197388 0.005672000348568906 0.10972881317138672
    endloop
  endfacet
  facet normal 0.9186400913761189 -0.12938580297605984 0.3733091165571985
    outer loop
      vertex 0.138045996427536 0.011467002332211484 0.13060379028320312
      vertex 0.14298000931739807 0.07302100211382007 0.13979625701904297
      vertex 0.14143800735473633 0.07291400060057734 0.1435537338256836
    endloop
  endfacet
  facet normal 0.9186382426212635 -0.129386601384946 0.3733133892264914
    outer loop
      vertex 0.138045996427536 0.011467002332211484 0.13060379028320312
      vertex 0.14143800735473633 0.07291400060057734 0.1435537338256836
      vertex 0.13271000981330872 0.011097002774477949 0.14360618591308594
    endloop
  endfacet
  facet normal 0.3902430865559279 -0.16651757449401786 0.9055287023501419
    outer loop
      vertex 0.15099099278450012 0.012375000864268293 0.12519168853759766
      vertex 0.1467210054397583 0.07328300178051089 0.13823223114013672
      vertex 0.14298000931739807 0.07302100211382007 0.13979625701904297
    endloop
  endfacet
  facet normal 0.3902637875237064 -0.16651289863715454 0.9055206407007541
    outer loop
      vertex 0.15099099278450012 0.012375000864268293 0.12519168853759766
      vertex 0.14298000931739807 0.07302100211382007 0.13979625701904297
      vertex 0.138045996427536 0.011467002332211484 0.13060379028320312
    endloop
  endfacet
  facet normal -0.3586864814823619 -0.21937115175118785 0.9073148878868684
    outer loop
      vertex 0.1639609932899475 0.01328700035810565 0.13054180145263672
      vertex 0.15046998858451843 0.07354700192809199 0.13977813720703125
      vertex 0.1467210054397583 0.07328300178051089 0.13823223114013672
    endloop
  endfacet
  facet normal -0.3588151948064277 -0.21940069822366234 0.9072568487451583
    outer loop
      vertex 0.1639609932899475 0.01328700035810565 0.13054180145263672
      vertex 0.1467210054397583 0.07328300178051089 0.13823223114013672
      vertex 0.15099099278450012 0.012375000864268293 0.12519168853759766
    endloop
  endfacet
  facet normal -0.889578688390936 -0.25704696825268786 0.37759318488654325
    outer loop
      vertex 0.1693589985370636 0.013670999556780805 0.14351844787597656
      vertex 0.15202999114990234 0.07365800067782496 0.14352893829345703
      vertex 0.15046998858451843 0.07354700192809199 0.13977813720703125
    endloop
  endfacet
  facet normal -0.8895598119276698 -0.2570378476933551 0.37764386113953513
    outer loop
      vertex 0.1693589985370636 0.013670999556780805 0.14351844787597656
      vertex 0.15046998858451843 0.07354700192809199 0.13977813720703125
      vertex 0.1639609932899475 0.01328700035810565 0.13054180145263672
    endloop
  endfacet
endsolid Standard Female Figure
