solid Standard Female Figure
  facet normal 0.07006755094895627 0.9975422060816682 -0.00029221521847292803
    outer loop
      vertex 0.15200698375701904 0.24991200491786097 0.14347267150878906
      vertex 0.1703299880027771 0.24862500652670955 0.14351654052734375
      vertex 0.16499397158622742 0.24899600073695277 0.13051509857177734
    endloop
  endfacet
  facet normal 0.0700351889921934 0.9975444685831872 -0.00032481058193398806
    outer loop
      vertex 0.15200698375701904 0.24991200491786097 0.14347267150878906
      vertex 0.16499397158622742 0.24899600073695277 0.13051509857177734
      vertex 0.1520499885082245 0.2499030046164999 0.12510395050048828
    endloop
  endfacet
  facet normal 0.07009104261253629 0.9975405457071667 -0.0003246778956078255
    outer loop
      vertex 0.15200698375701904 0.24991200491786097 0.14347267150878906
      vertex 0.1520499885082245 0.2499030046164999 0.12510395050048828
      vertex 0.1390809714794159 0.25081599876284694 0.13045310974121094
    endloop
  endfacet
  facet normal 0.070067572312578 0.9975422018901684 -0.00030126124225941396
    outer loop
      vertex 0.15200698375701904 0.24991200491786097 0.14347267150878906
      vertex 0.1390809714794159 0.25081599876284694 0.13045310974121094
      vertex 0.133683979511261 0.2511990033090124 0.14342880249023438
    endloop
  endfacet
  facet normal 0.07006773185071151 0.9975421679669947 -0.0003688915897182025
    outer loop
      vertex 0.15200698375701904 0.24991200491786097 0.14347267150878906
      vertex 0.133683979511261 0.2511990033090124 0.14342880249023438
      vertex 0.13901999592781067 0.25082900747656917 0.15643024444580078
    endloop
  endfacet
  facet normal 0.07005770052599496 0.9975428687327619 -0.00037899527940200053
    outer loop
      vertex 0.15200698375701904 0.24991200491786097 0.14347267150878906
      vertex 0.13901999592781067 0.25082900747656917 0.15643024444580078
      vertex 0.1519639790058136 0.24992200359702205 0.16184043884277344
    endloop
  endfacet
  facet normal 0.07006775047017398 0.997542163705732 -0.00037679349269459757
    outer loop
      vertex 0.1649329960346222 0.2490089945495138 0.1564922332763672
      vertex 0.1703299880027771 0.24862500652670955 0.14351654052734375
      vertex 0.15200698375701904 0.24991200491786097 0.14347267150878906
    endloop
  endfacet
  facet normal 0.07006992814161207 0.9975420099198135 -0.00037896618318365656
    outer loop
      vertex 0.1649329960346222 0.2490089945495138 0.1564922332763672
      vertex 0.15200698375701904 0.24991200491786097 0.14347267150878906
      vertex 0.1519639790058136 0.24992200359702205 0.16184043884277344
    endloop
  endfacet
  facet normal -0.07006461867478692 -0.9975423851810237 0.00037279660773708434
    outer loop
      vertex 0.13584697246551514 0.07354700192809199 0.1472787857055664
      vertex 0.1395999789237976 0.07328200154006576 0.14353370666503906
      vertex 0.1433359980583191 0.07302100025117492 0.14729690551757812
    endloop
  endfacet
  facet normal -0.07006488298649285 -0.9975423188777388 0.00048396292491661904
    outer loop
      vertex 0.13584697246551514 0.07354700192809199 0.1472787857055664
      vertex 0.1433359980583191 0.07302100025117492 0.14729690551757812
      vertex 0.13958799839019775 0.07328500039875602 0.14884281158447266
    endloop
  endfacet
  facet normal -0.07006464916539705 -0.9975423830509218 0.0003727659018594279
    outer loop
      vertex 0.1358639895915985 0.07354300096631144 0.1397705078125
      vertex 0.1395999789237976 0.07328200154006576 0.14353370666503906
      vertex 0.13584697246551514 0.07354700192809199 0.1472787857055664
    endloop
  endfacet
  facet normal -0.0700832281988907 -0.9975410779525394 0.0003727230979811423
    outer loop
      vertex 0.1358639895915985 0.07354300096631144 0.1397705078125
      vertex 0.13584697246551514 0.07354700192809199 0.1472787857055664
      vertex 0.1343039870262146 0.07365400157868957 0.14352035522460938
    endloop
  endfacet
  facet normal -0.07007010571669874 -0.9975419977103631 0.00037827089297247694
    outer loop
      vertex 0.14489597082138062 0.07291000150144195 0.14354705810546875
      vertex 0.1433359980583191 0.07302100025117492 0.14729690551757812
      vertex 0.1395999789237976 0.07328200154006576 0.14353370666503906
    endloop
  endfacet
  facet normal -0.07007007847660555 -0.9975420037242906 0.00036729825711732917
    outer loop
      vertex 0.14489597082138062 0.07291000150144195 0.14354705810546875
      vertex 0.1395999789237976 0.07328200154006576 0.14353370666503906
      vertex 0.14335298538208008 0.07301700115203952 0.13978862762451172
    endloop
  endfacet
  facet normal -0.07006464916539705 -0.9975423830509218 0.00037276590186056995
    outer loop
      vertex 0.14335298538208008 0.07301700115203952 0.13978862762451172
      vertex 0.1395999789237976 0.07328200154006576 0.14353370666503906
      vertex 0.1358639895915985 0.07354300096631144 0.1397705078125
    endloop
  endfacet
  facet normal -0.07006480811673556 -0.9975423446838985 0.00043957492567242877
    outer loop
      vertex 0.14335298538208008 0.07301700115203952 0.13978862762451172
      vertex 0.1358639895915985 0.07354300096631144 0.1397705078125
      vertex 0.13961297273635864 0.07327900081873034 0.13822460174560547
    endloop
  endfacet
  facet normal 0.14133937303410266 0.974110119500865 0.17644448621687564
    outer loop
      vertex 0.1649329960346222 0.2490089945495138 0.1564922332763672
      vertex 0.1519639790058136 0.24992200359702205 0.16184043884277344
      vertex 0.15141800045967102 0.24338499829173182 0.19836711883544922
    endloop
  endfacet
  facet normal 0.1413355026919912 0.9741108886145952 0.17644334037102608
    outer loop
      vertex 0.1649329960346222 0.2490089945495138 0.1564922332763672
      vertex 0.15141800045967102 0.24338499829173182 0.19836711883544922
      vertex 0.19017499685287476 0.24065699800849055 0.18238258361816406
    endloop
  endfacet
  facet normal -0.004629279133491835 0.9843612144758314 0.1761010199015622
    outer loop
      vertex 0.1519639790058136 0.24992200359702205 0.16184043884277344
      vertex 0.13901999592781067 0.25082900747656917 0.15643024444580078
      vertex 0.11273598670959473 0.24609599635005092 0.18219566345214844
    endloop
  endfacet
  facet normal -0.004631266629190657 0.9843618683581129 0.1760973125630669
    outer loop
      vertex 0.1519639790058136 0.24992200359702205 0.16184043884277344
      vertex 0.11273598670959473 0.24609599635005092 0.18219566345214844
      vertex 0.15141800045967102 0.24338499829173182 0.19836711883544922
    endloop
  endfacet
  facet normal -0.1075646258402528 0.9915610225687028 0.07236428532331976
    outer loop
      vertex 0.13901999592781067 0.25082900747656917 0.15643024444580078
      vertex 0.133683979511261 0.2511990033090124 0.14342880249023438
      vertex 0.09678998589515686 0.24720300361514186 0.1433429718017578
    endloop
  endfacet
  facet normal -0.10757645410690943 0.9915568691287179 0.07240360353903955
    outer loop
      vertex 0.13901999592781067 0.25082900747656917 0.15643024444580078
      vertex 0.09678998589515686 0.24720300361514186 0.1433429718017578
      vertex 0.11273598670959473 0.24609599635005092 0.18219566345214844
    endloop
  endfacet
  facet normal -0.10725656230206228 0.9914828384125336 -0.07387699896834944
    outer loop
      vertex 0.133683979511261 0.2511990033090124 0.14342880249023438
      vertex 0.1390809714794159 0.25081599876284694 0.13045310974121094
      vertex 0.11291897296905518 0.24605700001120662 0.10456657409667969
    endloop
  endfacet
  facet normal -0.10721618489021993 0.9914855707916502 -0.07389893510424778
    outer loop
      vertex 0.133683979511261 0.2511990033090124 0.14342880249023438
      vertex 0.11291897296905518 0.24605700001120662 0.10456657409667969
      vertex 0.09678998589515686 0.24720300361514186 0.1433429718017578
    endloop
  endfacet
  facet normal -0.0037699785201397214 0.9841819682930085 -0.17712041256968977
    outer loop
      vertex 0.1390809714794159 0.25081599876284694 0.13045310974121094
      vertex 0.1520499885082245 0.2499030046164999 0.12510395050048828
      vertex 0.1516759991645813 0.24332899972796534 0.08858299255371094
    endloop
  endfacet
  facet normal -0.0037716486884499766 0.9841818744955976 -0.17712089820374927
    outer loop
      vertex 0.1390809714794159 0.25081599876284694 0.13045310974121094
      vertex 0.1516759991645813 0.24332899972796534 0.08858299255371094
      vertex 0.11291897296905518 0.24605700001120662 0.10456657409667969
    endloop
  endfacet
  facet normal 0.1421589166835715 0.9739244251953877 -0.17681079269995714
    outer loop
      vertex 0.1520499885082245 0.2499030046164999 0.12510395050048828
      vertex 0.16499397158622742 0.24899600073695277 0.13051509857177734
      vertex 0.1903569996356964 0.24061700329184627 0.10475349426269531
    endloop
  endfacet
  facet normal 0.14218194440054074 0.9739285873436334 -0.17676934530997276
    outer loop
      vertex 0.1520499885082245 0.2499030046164999 0.12510395050048828
      vertex 0.1903569996356964 0.24061700329184627 0.10475349426269531
      vertex 0.1516759991645813 0.24332899972796534 0.08858299255371094
    endloop
  endfacet
  facet normal 0.24513318838099182 0.9667355472490069 -0.07302124101473748
    outer loop
      vertex 0.16499397158622742 0.24899600073695277 0.13051509857177734
      vertex 0.1703299880027771 0.24862500652670955 0.14351654052734375
      vertex 0.20630398392677307 0.23950999602675532 0.14360713958740234
    endloop
  endfacet
  facet normal 0.2451481844798596 0.9667277418273468 -0.07307421451940083
    outer loop
      vertex 0.16499397158622742 0.24899600073695277 0.13051509857177734
      vertex 0.20630398392677307 0.23950999602675532 0.14360713958740234
      vertex 0.1903569996356964 0.24061700329184627 0.10475349426269531
    endloop
  endfacet
  facet normal 0.24480262066063074 0.9668049998300532 0.07321044475550044
    outer loop
      vertex 0.1703299880027771 0.24862500652670955 0.14351654052734375
      vertex 0.1649329960346222 0.2490089945495138 0.1564922332763672
      vertex 0.19017499685287476 0.24065699800849055 0.18238258361816406
    endloop
  endfacet
  facet normal 0.24478350407728794 0.9668090382126365 0.07322103360374888
    outer loop
      vertex 0.1703299880027771 0.24862500652670955 0.14351654052734375
      vertex 0.19017499685287476 0.24065699800849055 0.18238258361816406
      vertex 0.20630398392677307 0.23950999602675532 0.14360713958740234
    endloop
  endfacet
  facet normal 0.2660194960918993 0.8211897736797792 0.5048573890741472
    outer loop
      vertex 0.19017499685287476 0.24065699800849055 0.18238258361816406
      vertex 0.15141800045967102 0.24338499829173182 0.19836711883544922
      vertex 0.14934098720550537 0.21540499851107692 0.24497318267822266
    endloop
  endfacet
  facet normal 0.26602664714015606 0.8211856193265844 0.5048603783449248
    outer loop
      vertex 0.19017499685287476 0.24065699800849055 0.18238258361816406
      vertex 0.14934098720550537 0.21540499851107692 0.24497318267822266
      vertex 0.22099699079990387 0.21036100015044307 0.21541976928710938
    endloop
  endfacet
  facet normal -0.1510342644321897 0.8504850188680289 0.5038490683215321
    outer loop
      vertex 0.15141800045967102 0.24338499829173182 0.19836711883544922
      vertex 0.11273598670959473 0.24609599635005092 0.18219566345214844
      vertex 0.07782498002052307 0.22041800245642756 0.2150745391845703
    endloop
  endfacet
  facet normal -0.1510313671337509 0.8504811354033407 0.5038564919347119
    outer loop
      vertex 0.15141800045967102 0.24338499829173182 0.19836711883544922
      vertex 0.07782498002052307 0.22041800245642756 0.2150745391845703
      vertex 0.14934098720550537 0.21540499851107692 0.24497318267822266
    endloop
  endfacet
  facet normal -0.44519474139853493 0.8710513257229757 0.20753609369779127
    outer loop
      vertex 0.11273598670959473 0.24609599635005092 0.18219566345214844
      vertex 0.09678998589515686 0.24720300361514186 0.1433429718017578
      vertex 0.04834097623825073 0.2224650047719488 0.14324092864990234
    endloop
  endfacet
  facet normal -0.4452027441521427 0.8710428596338082 0.20755445858945037
    outer loop
      vertex 0.11273598670959473 0.24609599635005092 0.18219566345214844
      vertex 0.04834097623825073 0.2224650047719488 0.14324092864990234
      vertex 0.07782498002052307 0.22041800245642756 0.2150745391845703
    endloop
  endfacet
  facet normal -0.4442285742146204 0.8708302344771408 -0.21051288932446283
    outer loop
      vertex 0.09678998589515686 0.24720300361514186 0.1433429718017578
      vertex 0.11291897296905518 0.24605700001120662 0.10456657409667969
      vertex 0.07816198468208313 0.2203450016677389 0.0715484619140625
    endloop
  endfacet
  facet normal -0.4442060566264681 0.8708394729618967 -0.2105221878753134
    outer loop
      vertex 0.09678998589515686 0.24720300361514186 0.1433429718017578
      vertex 0.07816198468208313 0.2203450016677389 0.0715484619140625
      vertex 0.04834097623825073 0.2224650047719488 0.14324092864990234
    endloop
  endfacet
  facet normal -0.14861504992745153 0.8499722351825215 -0.5054312676852211
    outer loop
      vertex 0.11291897296905518 0.24605700001120662 0.10456657409667969
      vertex 0.1516759991645813 0.24332899972796534 0.08858299255371094
      vertex 0.14981797337532043 0.21530200168490504 0.04199695587158203
    endloop
  endfacet
  facet normal -0.14862687496524657 0.8499674262972429 -0.5054358775074301
    outer loop
      vertex 0.11291897296905518 0.24605700001120662 0.10456657409667969
      vertex 0.14981797337532043 0.21530200168490504 0.04199695587158203
      vertex 0.07816198468208313 0.2203450016677389 0.0715484619140625
    endloop
  endfacet
  facet normal 0.2684134375814902 0.8206753306124089 -0.5044266331686909
    outer loop
      vertex 0.1516759991645813 0.24332899972796534 0.08858299255371094
      vertex 0.1903569996356964 0.24061700329184627 0.10475349426269531
      vertex 0.22133497893810272 0.2102879993617544 0.07189369201660156
    endloop
  endfacet
  facet normal 0.2684092745309877 0.8206711270891157 -0.5044356871872067
    outer loop
      vertex 0.1516759991645813 0.24332899972796534 0.08858299255371094
      vertex 0.22133497893810272 0.2102879993617544 0.07189369201660156
      vertex 0.14981797337532043 0.21530200168490504 0.04199695587158203
    endloop
  endfacet
  facet normal 0.5625933340597808 0.8001111372000553 -0.2081127305090543
    outer loop
      vertex 0.1903569996356964 0.24061700329184627 0.10475349426269531
      vertex 0.20630398392677307 0.23950999602675532 0.14360713958740234
      vertex 0.2508179843425751 0.20824199542403315 0.14372920989990234
    endloop
  endfacet
  facet normal 0.5625934932631589 0.8001109124655154 -0.20811316414767342
    outer loop
      vertex 0.1903569996356964 0.24061700329184627 0.10475349426269531
      vertex 0.2508179843425751 0.20824199542403315 0.14372920989990234
      vertex 0.22133497893810272 0.2102879993617544 0.07189369201660156
    endloop
  endfacet
  facet normal 0.56162673555907 0.8003128638009224 0.2099398245689196
    outer loop
      vertex 0.20630398392677307 0.23950999602675532 0.14360713958740234
      vertex 0.19017499685287476 0.24065699800849055 0.18238258361816406
      vertex 0.22099699079990387 0.21036100015044307 0.21541976928710938
    endloop
  endfacet
  facet normal 0.5615997010655828 0.800328697842176 0.20995178297241276
    outer loop
      vertex 0.20630398392677307 0.23950999602675532 0.14360713958740234
      vertex 0.22099699079990387 0.21036100015044307 0.21541976928710938
      vertex 0.2508179843425751 0.20824199542403315 0.14372920989990234
    endloop
  endfacet
  facet normal 0.3528601877425693 0.5413703237261646 0.7631565111396917
    outer loop
      vertex 0.22099699079990387 0.21036100015044307 0.21541976928710938
      vertex 0.14934098720550537 0.21540499851107692 0.24497318267822266
      vertex 0.14632397890090942 0.1735099963843832 0.27608776092529297
    endloop
  endfacet
  facet normal 0.35284181641644596 0.5413939460712835 0.7631482475543706
    outer loop
      vertex 0.22099699079990387 0.21036100015044307 0.21541976928710938
      vertex 0.14632397890090942 0.1735099963843832 0.27608776092529297
      vertex 0.23993898928165436 0.16692100092768763 0.23747920989990234
    endloop
  endfacet
  facet normal -0.27736111488585236 0.5856560537627704 0.7616283861833776
    outer loop
      vertex 0.14934098720550537 0.21540499851107692 0.24497318267822266
      vertex 0.07782498002052307 0.22041800245642756 0.2150745391845703
      vertex 0.05289199948310852 0.18005999550223445 0.2370281219482422
    endloop
  endfacet
  facet normal -0.2773545845927729 0.5856338640650764 0.761647826535058
    outer loop
      vertex 0.14934098720550537 0.21540499851107692 0.24497318267822266
      vertex 0.05289199948310852 0.18005999550223445 0.2370281219482422
      vertex 0.14632397890090942 0.1735099963843832 0.27608776092529297
    endloop
  endfacet
  facet normal -0.7219140150785988 0.6166993130880118 0.3138823220091744
    outer loop
      vertex 0.07782498002052307 0.22041800245642756 0.2150745391845703
      vertex 0.04834097623825073 0.2224650047719488 0.14324092864990234
      vertex 0.014373987913131714 0.18273399397730922 0.14317989349365234
    endloop
  endfacet
  facet normal -0.7219042313236826 0.6167209259767068 0.313862358780718
    outer loop
      vertex 0.07782498002052307 0.22041800245642756 0.2150745391845703
      vertex 0.014373987913131714 0.18273399397730922 0.14317989349365234
      vertex 0.05289199948310852 0.18005999550223445 0.2370281219482422
    endloop
  endfacet
  facet normal -0.7204181390026828 0.6163954262234287 -0.3178905212911347
    outer loop
      vertex 0.04834097623825073 0.2224650047719488 0.14324092864990234
      vertex 0.07816198468208313 0.2203450016677389 0.0715484619140625
      vertex 0.05333298444747925 0.17996500059962367 0.04951953887939453
    endloop
  endfacet
  facet normal -0.7204205722395411 0.6163930672006878 -0.31788958114568744
    outer loop
      vertex 0.04834097623825073 0.2224650047719488 0.14324092864990234
      vertex 0.05333298444747925 0.17996500059962367 0.04951953887939453
      vertex 0.014373987913131714 0.18273399397730922 0.14317989349365234
    endloop
  endfacet
  facet normal -0.2737290688579251 0.5848717862145418 -0.7635426579781804
    outer loop
      vertex 0.07816198468208313 0.2203450016677389 0.0715484619140625
      vertex 0.14981797337532043 0.21530200168490504 0.04199695587158203
      vertex 0.1469469964504242 0.1733760051429281 0.010910987854003906
    endloop
  endfacet
  facet normal -0.273738484238981 0.5848626624050113 -0.763546271270489
    outer loop
      vertex 0.07816198468208313 0.2203450016677389 0.0715484619140625
      vertex 0.1469469964504242 0.1733760051429281 0.010910987854003906
      vertex 0.05333298444747925 0.17996500059962367 0.04951953887939453
    endloop
  endfacet
  facet normal 0.35646002673836186 0.5405870241846152 -0.7620380033967522
    outer loop
      vertex 0.14981797337532043 0.21530200168490504 0.04199695587158203
      vertex 0.22133497893810272 0.2102879993617544 0.07189369201660156
      vertex 0.24037998914718628 0.16682599857449626 0.04997062683105469
    endloop
  endfacet
  facet normal 0.3564641378590058 0.5405960772111937 -0.7620296580345839
    outer loop
      vertex 0.14981797337532043 0.21530200168490504 0.04199695587158203
      vertex 0.24037998914718628 0.16682599857449626 0.04997062683105469
      vertex 0.1469469964504242 0.1733760051429281 0.010910987854003906
    endloop
  endfacet
  facet normal 0.8010220701885041 0.5095221646941135 -0.3142464108885699
    outer loop
      vertex 0.22133497893810272 0.2102879993617544 0.07189369201660156
      vertex 0.2508179843425751 0.20824199542403315 0.14372920989990234
      vertex 0.2788979858160019 0.1641520000994215 0.14381790161132812
    endloop
  endfacet
  facet normal 0.8010226476615806 0.5095201909606595 -0.3142481391140517
    outer loop
      vertex 0.22133497893810272 0.2102879993617544 0.07189369201660156
      vertex 0.2788979858160019 0.1641520000994215 0.14381790161132812
      vertex 0.24037998914718628 0.16682599857449626 0.04997062683105469
    endloop
  endfacet
  facet normal 0.7995190600105424 0.5098631041352474 0.317504153864841
    outer loop
      vertex 0.2508179843425751 0.20824199542403315 0.14372920989990234
      vertex 0.22099699079990387 0.21036100015044307 0.21541976928710938
      vertex 0.23993898928165436 0.16692100092768763 0.23747920989990234
    endloop
  endfacet
  facet normal 0.7995332776634398 0.5098448041803589 0.317497737880206
    outer loop
      vertex 0.2508179843425751 0.20824199542403315 0.14372920989990234
      vertex 0.23993898928165436 0.16692100092768763 0.23747920989990234
      vertex 0.2788979858160019 0.1641520000994215 0.14381790161132812
    endloop
  endfacet
  facet normal 0.3858972593497239 0.1733156896566634 0.9061153221004525
    outer loop
      vertex 0.23993898928165436 0.16692100092768763 0.23747920989990234
      vertex 0.14632397890090942 0.1735099963843832 0.27608776092529297
      vertex 0.14282599091529846 0.1240799985826025 0.2870321273803711
    endloop
  endfacet
  facet normal 0.38589606119185776 0.1733183969244686 0.9061153145401208
    outer loop
      vertex 0.23993898928165436 0.16692100092768763 0.23747920989990234
      vertex 0.14282599091529846 0.1240799985826025 0.2870321273803711
      vertex 0.24415598809719086 0.11694699898362255 0.24524211883544922
    endloop
  endfacet
  facet normal -0.3622199463219481 0.2258521775909181 0.9043160423015648
    outer loop
      vertex 0.14632397890090942 0.1735099963843832 0.27608776092529297
      vertex 0.05289199948310852 0.18005999550223445 0.2370281219482422
      vertex 0.04169297218322754 0.1311690025031576 0.2447528839111328
    endloop
  endfacet
  facet normal -0.362221825890025 0.22585855892252213 0.9043136956888014
    outer loop
      vertex 0.14632397890090942 0.1735099963843832 0.27608776092529297
      vertex 0.04169297218322754 0.1311690025031576 0.2447528839111328
      vertex 0.14282599091529846 0.1240799985826025 0.2870321273803711
    endloop
  endfacet
  facet normal -0.889953397572777 0.26275660253922806 0.3727491354392557
    outer loop
      vertex 0.05289199948310852 0.18005999550223445 0.2370281219482422
      vertex 0.014373987913131714 0.18273399397730922 0.14317989349365234
      vertex 0 0.13406300172209834 0.14317035675048828
    endloop
  endfacet
  facet normal -0.8899539664320848 0.26274878826463366 0.3727532855620007
    outer loop
      vertex 0.05289199948310852 0.18005999550223445 0.2370281219482422
      vertex 0 0.13406300172209834 0.14317035675048828
      vertex 0.04169297218322754 0.1311690025031576 0.2447528839111328
    endloop
  endfacet
  facet normal -0.8881848365751097 0.2623790778564624 -0.3772067279108868
    outer loop
      vertex 0.014373987913131714 0.18273399397730922 0.14317989349365234
      vertex 0.05333298444747925 0.17996500059962367 0.04951953887939453
      vertex 0.04216998815536499 0.13106599822640513 0.04179096221923828
    endloop
  endfacet
  facet normal -0.8881839623993888 0.26238098462979487 -0.37720745994905835
    outer loop
      vertex 0.014373987913131714 0.18273399397730922 0.14317989349365234
      vertex 0.04216998815536499 0.13106599822640513 0.04179096221923828
      vertex 0 0.13406300172209834 0.14317035675048828
    endloop
  endfacet
  facet normal -0.35792612770792415 0.22494053815132303 -0.9062508711169351
    outer loop
      vertex 0.05333298444747925 0.17996500059962367 0.04951953887939453
      vertex 0.1469469964504242 0.1733760051429281 0.010910987854003906
      vertex 0.14350098371505737 0.12393400445580575 0
    endloop
  endfacet
  facet normal -0.357924016123937 0.22494392935963023 -0.9062508633518433
    outer loop
      vertex 0.05333298444747925 0.17996500059962367 0.04951953887939453
      vertex 0.14350098371505737 0.12393400445580575 0
      vertex 0.04216998815536499 0.13106599822640513 0.04179096221923828
    endloop
  endfacet
  facet normal 0.3901910243008415 0.17238163954453425 -0.9044531689938393
    outer loop
      vertex 0.1469469964504242 0.1733760051429281 0.010910987854003906
      vertex 0.24037998914718628 0.16682599857449626 0.04997062683105469
      vertex 0.24463298916816711 0.11684400215745067 0.04227924346923828
    endloop
  endfacet
  facet normal 0.39019909951885196 0.17239940532888046 -0.9044462990011763
    outer loop
      vertex 0.1469469964504242 0.1733760051429281 0.010910987854003906
      vertex 0.24463298916816711 0.11684400215745067 0.04227924346923828
      vertex 0.14350098371505737 0.12393400445580575 0
    endloop
  endfacet
  facet normal 0.917930317538322 0.13549327616111553 -0.3728880586169566
    outer loop
      vertex 0.24037998914718628 0.16682599857449626 0.04997062683105469
      vertex 0.2788979858160019 0.1641520000994215 0.14381790161132812
      vertex 0.28632599115371704 0.11395000293850993 0.1438617706298828
    endloop
  endfacet
  facet normal 0.9179300130963925 0.13548877977129442 -0.37289044183639586
    outer loop
      vertex 0.24037998914718628 0.16682599857449626 0.04997062683105469
      vertex 0.28632599115371704 0.11395000293850993 0.1438617706298828
      vertex 0.24463298916816711 0.11684400215745067 0.04227924346923828
    endloop
  endfacet
  facet normal 0.9161640273232943 0.13588261445913152 0.3770668244840869
    outer loop
      vertex 0.2788979858160019 0.1641520000994215 0.14381790161132812
      vertex 0.23993898928165436 0.16692100092768763 0.23747920989990234
      vertex 0.24415598809719086 0.11694699898362255 0.24524211883544922
    endloop
  endfacet
  facet normal 0.9161626958658057 0.13588708425314586 0.3770684487425031
    outer loop
      vertex 0.2788979858160019 0.1641520000994215 0.14381790161132812
      vertex 0.24415598809719086 0.11694699898362255 0.24524211883544922
      vertex 0.28632599115371704 0.11395000293850993 0.1438617706298828
    endloop
  endfacet
  facet normal 0.35792038148612143 -0.2249265123071379 0.906256621812043
    outer loop
      vertex 0.24415598809719086 0.11694699898362255 0.24524211883544922
      vertex 0.14282599091529846 0.1240799985826025 0.2870321273803711
      vertex 0.13937899470329285 0.07463700138032532 0.2761220932006836
    endloop
  endfacet
  facet normal 0.3579287219160446 -0.22495467214671425 0.9062463382033117
    outer loop
      vertex 0.24415598809719086 0.11694699898362255 0.24524211883544922
      vertex 0.13937899470329285 0.07463700138032532 0.2761220932006836
      vertex 0.2329939901828766 0.0680480003356943 0.23751258850097656
    endloop
  endfacet
  facet normal -0.3901944270053202 -0.1723893738580226 0.9044502268863824
    outer loop
      vertex 0.14282599091529846 0.1240799985826025 0.2870321273803711
      vertex 0.04169297218322754 0.1311690025031576 0.2447528839111328
      vertex 0.045946985483169556 0.08118700236082171 0.2370615005493164
    endloop
  endfacet
  facet normal -0.39020239980053106 -0.1723713591401322 0.9044502207076354
    outer loop
      vertex 0.14282599091529846 0.1240799985826025 0.2870321273803711
      vertex 0.045946985483169556 0.08118700236082171 0.2370615005493164
      vertex 0.13937899470329285 0.07463700138032532 0.2761220932006836
    endloop
  endfacet
  facet normal -0.9179296276459198 -0.13549288995834188 0.3728898972358459
    outer loop
      vertex 0.04169297218322754 0.1311690025031576 0.2447528839111328
      vertex 0 0.13406300172209834 0.14317035675048828
      vertex 0.007427990436553955 0.08386100083589648 0.14321422576904297
    endloop
  endfacet
  facet normal -0.9179252329510206 -0.13550772339178882 0.3728953252763956
    outer loop
      vertex 0.04169297218322754 0.1311690025031576 0.2447528839111328
      vertex 0.007427990436553955 0.08386100083589648 0.14321422576904297
      vertex 0.045946985483169556 0.08118700236082171 0.2370615005493164
    endloop
  endfacet
  facet normal -0.9161598384417801 -0.13590137785342862 -0.3770702400400636
    outer loop
      vertex 0 0.13406300172209834 0.14317035675048828
      vertex 0.04216998815536499 0.13106599822640513 0.04179096221923828
      vertex 0.04638800024986267 0.08109200000763034 0.049553871154785156
    endloop
  endfacet
  facet normal -0.9161587746232228 -0.1358862306295766 -0.3770782836575985
    outer loop
      vertex 0 0.13406300172209834 0.14317035675048828
      vertex 0.04638800024986267 0.08109200000763034 0.049553871154785156
      vertex 0.007427990436553955 0.08386100083589648 0.14321422576904297
    endloop
  endfacet
  facet normal -0.38589871815787524 -0.17330448617989805 -0.9061168436763718
    outer loop
      vertex 0.04216998815536499 0.13106599822640513 0.04179096221923828
      vertex 0.14350098371505737 0.12393400445580575 0
      vertex 0.14000198245048523 0.07450300082564448 0.010944366455078125
    endloop
  endfacet
  facet normal -0.3859086458058424 -0.17332623117093204 -0.9061084563562913
    outer loop
      vertex 0.04216998815536499 0.13106599822640513 0.04179096221923828
      vertex 0.14000198245048523 0.07450300082564448 0.010944366455078125
      vertex 0.04638800024986267 0.08109200000763034 0.049553871154785156
    endloop
  endfacet
  facet normal 0.3622214428341457 -0.22586914067745412 -0.904311206189981
    outer loop
      vertex 0.14350098371505737 0.12393400445580575 0
      vertex 0.24463298916816711 0.11684400215745067 0.04227924346923828
      vertex 0.23343399167060852 0.06795300170779323 0.05000495910644531
    endloop
  endfacet
  facet normal 0.3622264107782328 -0.22586116223093505 -0.9043112090040741
    outer loop
      vertex 0.14350098371505737 0.12393400445580575 0
      vertex 0.23343399167060852 0.06795300170779323 0.05000495910644531
      vertex 0.14000198245048523 0.07450300082564448 0.010944366455078125
    endloop
  endfacet
  facet normal 0.889956325230307 -0.2627394328696964 -0.3727542482626839
    outer loop
      vertex 0.24463298916816711 0.11684400215745067 0.04227924346923828
      vertex 0.28632599115371704 0.11395000293850993 0.1438617706298828
      vertex 0.2719529867172241 0.06527900137007331 0.14385223388671875
    endloop
  endfacet
  facet normal 0.8899490060485933 -0.26275546786693016 -0.3727604200275983
    outer loop
      vertex 0.24463298916816711 0.11684400215745067 0.04227924346923828
      vertex 0.2719529867172241 0.06527900137007331 0.14385223388671875
      vertex 0.23343399167060852 0.06795300170779323 0.05000495910644531
    endloop
  endfacet
  facet normal 0.8881883581520505 -0.2623689292494259 0.37720549493303307
    outer loop
      vertex 0.28632599115371704 0.11395000293850993 0.1438617706298828
      vertex 0.24415598809719086 0.11694699898362255 0.24524211883544922
      vertex 0.2329939901828766 0.0680480003356943 0.23751258850097656
    endloop
  endfacet
  facet normal 0.8881886777384852 -0.26236437979500576 0.3772079067993445
    outer loop
      vertex 0.28632599115371704 0.11395000293850993 0.1438617706298828
      vertex 0.2329939901828766 0.0680480003356943 0.23751258850097656
      vertex 0.2719529867172241 0.06527900137007331 0.14385223388671875
    endloop
  endfacet
  facet normal 0.27374009062478827 -0.5848704900065612 0.7635396994945436
    outer loop
      vertex 0.2329939901828766 0.0680480003356943 0.23751258850097656
      vertex 0.13937899470329285 0.07463700138032532 0.2761220932006836
      vertex 0.13650798797607422 0.03271100111305809 0.24503612518310547
    endloop
  endfacet
  facet normal 0.27374341234360033 -0.5848816302106439 0.7635299750766971
    outer loop
      vertex 0.2329939901828766 0.0680480003356943 0.23751258850097656
      vertex 0.13650798797607422 0.03271100111305809 0.24503612518310547
      vertex 0.20816399157047272 0.027668001130224225 0.2154827117919922
    endloop
  endfacet
  facet normal -0.3564727940963894 -0.5406011500409852 0.7620220099468764
    outer loop
      vertex 0.13937899470329285 0.07463700138032532 0.2761220932006836
      vertex 0.045946985483169556 0.08118700236082171 0.2370615005493164
      vertex 0.06499198079109192 0.03772500157356357 0.21513748168945312
    endloop
  endfacet
  facet normal -0.3564803339718077 -0.5405914716610377 0.7620253488294874
    outer loop
      vertex 0.13937899470329285 0.07463700138032532 0.2761220932006836
      vertex 0.06499198079109192 0.03772500157356357 0.21513748168945312
      vertex 0.13650798797607422 0.03271100111305809 0.24503612518310547
    endloop
  endfacet
  facet normal -0.8010224277526208 -0.5095152497357098 0.31425671118379433
    outer loop
      vertex 0.045946985483169556 0.08118700236082171 0.2370615005493164
      vertex 0.007427990436553955 0.08386100083589648 0.14321422576904297
      vertex 0.03550797700881958 0.039771000854671945 0.14330387115478516
    endloop
  endfacet
  facet normal -0.8010118765395232 -0.509528855050896 0.31426154634818826
    outer loop
      vertex 0.045946985483169556 0.08118700236082171 0.2370615005493164
      vertex 0.03550797700881958 0.039771000854671945 0.14330387115478516
      vertex 0.06499198079109192 0.03772500157356357 0.21513748168945312
    endloop
  endfacet
  facet normal -0.7995323565508365 -0.5098389800966955 -0.3175094096278526
    outer loop
      vertex 0.007427990436553955 0.08386100083589648 0.14321422576904297
      vertex 0.04638800024986267 0.08109200000763034 0.049553871154785156
      vertex 0.06532898545265198 0.037652000784874906 0.07161140441894531
    endloop
  endfacet
  facet normal -0.7995294822354789 -0.5098489363578771 -0.31750066004814564
    outer loop
      vertex 0.007427990436553955 0.08386100083589648 0.14321422576904297
      vertex 0.06532898545265198 0.037652000784874906 0.07161140441894531
      vertex 0.03550797700881958 0.039771000854671945 0.14330387115478516
    endloop
  endfacet
  facet normal -0.3528535628182392 -0.5413835273853177 -0.7631502076801828
    outer loop
      vertex 0.04638800024986267 0.08109200000763034 0.049553871154785156
      vertex 0.14000198245048523 0.07450300082564448 0.010944366455078125
      vertex 0.13698497414588928 0.032608001492918474 0.042059898376464844
    endloop
  endfacet
  facet normal -0.35284443998774256 -0.5413636489479849 -0.7631685271075185
    outer loop
      vertex 0.04638800024986267 0.08109200000763034 0.049553871154785156
      vertex 0.13698497414588928 0.032608001492918474 0.042059898376464844
      vertex 0.06532898545265198 0.037652000784874906 0.07161140441894531
    endloop
  endfacet
  facet normal 0.27735974037155847 -0.5856383208416338 -0.7616425221735018
    outer loop
      vertex 0.14000198245048523 0.07450300082564448 0.010944366455078125
      vertex 0.23343399167060852 0.06795300170779323 0.05000495910644531
      vertex 0.20850197970867157 0.027595000341535555 0.07195758819580078
    endloop
  endfacet
  facet normal 0.277352659250116 -0.5856451676920122 -0.7616398361206457
    outer loop
      vertex 0.14000198245048523 0.07450300082564448 0.010944366455078125
      vertex 0.20850197970867157 0.027595000341535555 0.07195758819580078
      vertex 0.13698497414588928 0.032608001492918474 0.042059898376464844
    endloop
  endfacet
  facet normal 0.7219035281358485 -0.6167164808144708 -0.31387271043661713
    outer loop
      vertex 0.23343399167060852 0.06795300170779323 0.05000495910644531
      vertex 0.2719529867172241 0.06527900137007331 0.14385223388671875
      vertex 0.23798498511314392 0.025548001751304616 0.14379215240478516
    endloop
  endfacet
  facet normal 0.7219144334466109 -0.6167058843581652 -0.31386844852497064
    outer loop
      vertex 0.23343399167060852 0.06795300170779323 0.05000495910644531
      vertex 0.23798498511314392 0.025548001751304616 0.14379215240478516
      vertex 0.20850197970867157 0.027595000341535555 0.07195758819580078
    endloop
  endfacet
  facet normal 0.7204074079827416 -0.6164109846048234 0.3178846718262774
    outer loop
      vertex 0.2719529867172241 0.06527900137007331 0.14385223388671875
      vertex 0.2329939901828766 0.0680480003356943 0.23751258850097656
      vertex 0.20816399157047272 0.027668001130224225 0.2154827117919922
    endloop
  endfacet
  facet normal 0.720413317305551 -0.6163977918340633 0.3178968613731538
    outer loop
      vertex 0.2719529867172241 0.06527900137007331 0.14385223388671875
      vertex 0.20816399157047272 0.027668001130224225 0.2154827117919922
      vertex 0.23798498511314392 0.025548001751304616 0.14379215240478516
    endloop
  endfacet
  facet normal 0.4355764114812882 -0.8759843377510709 0.20718260007998102
    outer loop
      vertex 0.20816399157047272 0.027668001130224225 0.2154827117919922
      vertex 0.17448297142982483 0.003343001008034703 0.18344497680664062
      vertex 0.1910179853439331 0.002163000404835691 0.1436929702758789
    endloop
  endfacet
  facet normal 0.4356938638073594 -0.8759365733377066 0.20713757874903058
    outer loop
      vertex 0.20816399157047272 0.027668001130224225 0.2154827117919922
      vertex 0.1910179853439331 0.002163000404835691 0.1436929702758789
      vertex 0.23798498511314392 0.025548001751304616 0.14379215240478516
    endloop
  endfacet
  facet normal 0.4366849305106151 -0.8761833829427893 -0.2039827221111354
    outer loop
      vertex 0.23798498511314392 0.025548001751304616 0.14379215240478516
      vertex 0.1910179853439331 0.002163000404835691 0.1436929702758789
      vertex 0.17466899752616882 0.0032880008220682044 0.10386085510253906
    endloop
  endfacet
  facet normal 0.43680613239203464 -0.8760624907437338 -0.20424229487693701
    outer loop
      vertex 0.23798498511314392 0.025548001751304616 0.14379215240478516
      vertex 0.17466899752616882 0.0032880008220682044 0.10386085510253906
      vertex 0.20850197970867157 0.027595000341535555 0.07195758819580078
    endloop
  endfacet
  facet normal 0.14746290548010052 -0.8558783069787129 -0.4957085990283193
    outer loop
      vertex 0.20850197970867157 0.027595000341535555 0.07195758819580078
      vertex 0.17466899752616882 0.0032880008220682044 0.10386085510253906
      vertex 0.13501298427581787 0.006057001650334348 0.08728313446044922
    endloop
  endfacet
  facet normal 0.14736346456724977 -0.8557354676119756 -0.4959846961163725
    outer loop
      vertex 0.20850197970867157 0.027595000341535555 0.07195758819580078
      vertex 0.13501298427581787 0.006057001650334348 0.08728313446044922
      vertex 0.13698497414588928 0.032608001492918474 0.042059898376464844
    endloop
  endfacet
  facet normal -0.2630851618247579 -0.8269269508506779 -0.4969688275781907
    outer loop
      vertex 0.13698497414588928 0.032608001492918474 0.042059898376464844
      vertex 0.13501298427581787 0.006057001650334348 0.08728313446044922
      vertex 0.09527897834777832 0.008850000798703184 0.10367012023925781
    endloop
  endfacet
  facet normal -0.26317596585017716 -0.8268734998944893 -0.49700968418237507
    outer loop
      vertex 0.13698497414588928 0.032608001492918474 0.042059898376464844
      vertex 0.09527897834777832 0.008850000798703184 0.10367012023925781
      vertex 0.06532898545265198 0.037652000784874906 0.07161140441894531
    endloop
  endfacet
  facet normal -0.5542333996189432 -0.8063083046091537 -0.20662104603631481
    outer loop
      vertex 0.06532898545265198 0.037652000784874906 0.07161140441894531
      vertex 0.09527897834777832 0.008850000798703184 0.10367012023925781
      vertex 0.07874399423599243 0.010029003024102201 0.14342212677001953
    endloop
  endfacet
  facet normal -0.5541332469653838 -0.8063665968788746 -0.20666217855617317
    outer loop
      vertex 0.06532898545265198 0.037652000784874906 0.07161140441894531
      vertex 0.07874399423599243 0.010029003024102201 0.14342212677001953
      vertex 0.03550797700881958 0.039771000854671945 0.14330387115478516
    endloop
  endfacet
  facet normal -0.5550856092194763 -0.806113917208533 0.2050861256159398
    outer loop
      vertex 0.03550797700881958 0.039771000854671945 0.14330387115478516
      vertex 0.07874399423599243 0.010029003024102201 0.14342212677001953
      vertex 0.09509298205375671 0.008905000984669682 0.18325424194335938
    endloop
  endfacet
  facet normal -0.5549831082225539 -0.8062501024642983 0.2048280299762263
    outer loop
      vertex 0.03550797700881958 0.039771000854671945 0.14330387115478516
      vertex 0.09509298205375671 0.008905000984669682 0.18325424194335938
      vertex 0.06499198079109192 0.03772500157356357 0.21513748168945312
    endloop
  endfacet
  facet normal -0.26530829652847093 -0.8264541740078151 0.49657326353542336
    outer loop
      vertex 0.06499198079109192 0.03772500157356357 0.21513748168945312
      vertex 0.09509298205375671 0.008905000984669682 0.18325424194335938
      vertex 0.13474997878074646 0.006135001778603551 0.19983196258544922
    endloop
  endfacet
  facet normal -0.2654328841213043 -0.8265885926947164 0.49628286536411315
    outer loop
      vertex 0.06499198079109192 0.03772500157356357 0.21513748168945312
      vertex 0.13474997878074646 0.006135001778603551 0.19983196258544922
      vertex 0.13650798797607422 0.03271100111305809 0.24503612518310547
    endloop
  endfacet
  facet normal 0.1449761483809518 -0.8554021089201881 0.49726164989421723
    outer loop
      vertex 0.13650798797607422 0.03271100111305809 0.24503612518310547
      vertex 0.13474997878074646 0.006135001778603551 0.19983196258544922
      vertex 0.17448297142982483 0.003343001008034703 0.18344497680664062
    endloop
  endfacet
  facet normal 0.14486376970423476 -0.8554485510815032 0.49721450570114656
    outer loop
      vertex 0.13650798797607422 0.03271100111305809 0.24503612518310547
      vertex 0.17448297142982483 0.003343001008034703 0.18344497680664062
      vertex 0.20816399157047272 0.027668001130224225 0.2154827117919922
    endloop
  endfacet
  facet normal -0.18654628888370645 -0.9378984163853851 -0.2924842605090116
    outer loop
      vertex 0.1682799756526947 0.001000002026558866 0.17739391326904297
      vertex 0.1345759928226471 0.0033689998090276688 0.19129371643066406
      vertex 0.13525697588920593 0.012393001466990461 0.16192245483398438
    endloop
  endfacet
  facet normal -0.1866015908260145 -0.9379194010280364 -0.2923816743169965
    outer loop
      vertex 0.1682799756526947 0.001000002026558866 0.17739391326904297
      vertex 0.13525697588920593 0.012393001466990461 0.16192245483398438
      vertex 0.14822599291801453 0.011479999870062818 0.15657424926757812
    endloop
  endfacet
  facet normal 0.055425480207840744 -0.9547646599868064 -0.29215143365044116
    outer loop
      vertex 0.1345759928226471 0.0033689998090276688 0.19129371643066406
      vertex 0.10093599557876587 0.0057190023362646 0.1772317886352539
      vertex 0.122312992811203 0.013300001621247282 0.15651226043701172
    endloop
  endfacet
  facet normal 0.05517380156610441 -0.9548030329115555 -0.2920736550318071
    outer loop
      vertex 0.1345759928226471 0.0033689998090276688 0.19129371643066406
      vertex 0.122312992811203 0.013300001621247282 0.15651226043701172
      vertex 0.13525697588920593 0.012393001466990461 0.16192245483398438
    endloop
  endfacet
  facet normal 0.22639147857499445 -0.9665897477169838 -0.12021296950431484
    outer loop
      vertex 0.10093599557876587 0.0057190023362646 0.1772317886352539
      vertex 0.08706799149513245 0.0066730007529268165 0.14344406127929688
      vertex 0.11697697639465332 0.013670001178980817 0.1435098648071289
    endloop
  endfacet
  facet normal 0.22617361327620392 -0.9666267691177708 -0.12032533350265821
    outer loop
      vertex 0.10093599557876587 0.0057190023362646 0.1772317886352539
      vertex 0.11697697639465332 0.013670001178980817 0.1435098648071289
      vertex 0.122312992811203 0.013300001621247282 0.15651226043701172
    endloop
  endfacet
  facet normal 0.22588117841860023 -0.9664040830207976 0.12264110875622371
    outer loop
      vertex 0.08706799149513245 0.0066730007529268165 0.14344406127929688
      vertex 0.10109397768974304 0.005672000348568906 0.10972309112548828
      vertex 0.12237399816513062 0.01328700035810565 0.13053512573242188
    endloop
  endfacet
  facet normal 0.22582263115642856 -0.9664404328462914 0.12246235755308775
    outer loop
      vertex 0.08706799149513245 0.0066730007529268165 0.14344406127929688
      vertex 0.12237399816513062 0.01328700035810565 0.13053512573242188
      vertex 0.11697697639465332 0.013670001178980817 0.1435098648071289
    endloop
  endfacet
  facet normal 0.054102239200511264 -0.9543343840547449 0.2938006656295069
    outer loop
      vertex 0.10109397768974304 0.005672000348568906 0.10972309112548828
      vertex 0.13479897379875183 0.0033030025661001106 0.09582138061523438
      vertex 0.13534298539161682 0.012374002486468305 0.12518596649169922
    endloop
  endfacet
  facet normal 0.05404525586627792 -0.954302944740375 0.2939132524711962
    outer loop
      vertex 0.10109397768974304 0.005672000348568906 0.10972309112548828
      vertex 0.13534298539161682 0.012374002486468305 0.12518596649169922
      vertex 0.12237399816513062 0.01328700035810565 0.13053512573242188
    endloop
  endfacet
  facet normal -0.1879403322907801 -0.9374746889420892 0.2929498917756486
    outer loop
      vertex 0.13479897379875183 0.0033030025661001106 0.09582138061523438
      vertex 0.16843798756599426 0.0009540021419534583 0.10988521575927734
      vertex 0.14828699827194214 0.011466000229121198 0.13059711456298828
    endloop
  endfacet
  facet normal -0.1882640533405011 -0.9373776099578858 0.29305266176823347
    outer loop
      vertex 0.13479897379875183 0.0033030025661001106 0.09582138061523438
      vertex 0.14828699827194214 0.011466000229121198 0.13059711456298828
      vertex 0.13534298539161682 0.012374002486468305 0.12518596649169922
    endloop
  endfacet
  facet normal -0.3584055508896984 -0.9256940771968091 0.12097907477824339
    outer loop
      vertex 0.16843798756599426 0.0009540021419534583 0.10988521575927734
      vertex 0.18230697512626648 9.43689570931383e-16 0.14367294311523438
      vertex 0.15362298488616943 0.011096000671387662 0.1435985565185547
    endloop
  endfacet
  facet normal -0.35864422775858273 -0.9256183109472225 0.12085139773565194
    outer loop
      vertex 0.16843798756599426 0.0009540021419534583 0.10988521575927734
      vertex 0.15362298488616943 0.011096000671387662 0.1435985565185547
      vertex 0.14828699827194214 0.011466000229121198 0.13059711456298828
    endloop
  endfacet
  facet normal -0.35782427309156906 -0.925865353489754 -0.1213883717403903
    outer loop
      vertex 0.18230697512626648 9.43689570931383e-16 0.14367294311523438
      vertex 0.1682799756526947 0.001000002026558866 0.17739391326904297
      vertex 0.14822599291801453 0.011479999870062818 0.15657424926757812
    endloop
  endfacet
  facet normal -0.35783856073628484 -0.9258534987570884 -0.12143666369528675
    outer loop
      vertex 0.18230697512626648 9.43689570931383e-16 0.14367294311523438
      vertex 0.14822599291801453 0.011479999870062818 0.15657424926757812
      vertex 0.15362298488616943 0.011096000671387662 0.1435985565185547
    endloop
  endfacet
  facet normal -0.9168412076470871 -0.1297708461391637 -0.3775734729195847
    outer loop
      vertex 0.14822599291801453 0.011479999870062818 0.15657424926757812
      vertex 0.1433359980583191 0.07302100025117492 0.14729690551757812
      vertex 0.14489597082138062 0.07291000150144195 0.14354705810546875
    endloop
  endfacet
  facet normal -0.9168675075613443 -0.12975955077824375 -0.37751348659362755
    outer loop
      vertex 0.14822599291801453 0.011479999870062818 0.15657424926757812
      vertex 0.14489597082138062 0.07291000150144195 0.14354705810546875
      vertex 0.15362298488616943 0.011096000671387662 0.1435985565185547
    endloop
  endfacet
  facet normal -0.38597398803556354 -0.1674125403577187 -0.9071918881311153
    outer loop
      vertex 0.13525697588920593 0.012393001466990461 0.16192245483398438
      vertex 0.13958799839019775 0.07328500039875602 0.14884281158447266
      vertex 0.1433359980583191 0.07302100025117492 0.14729690551757812
    endloop
  endfacet
  facet normal -0.3859078840234573 -0.16742746845810977 -0.9072172550465772
    outer loop
      vertex 0.13525697588920593 0.012393001466990461 0.16192245483398438
      vertex 0.1433359980583191 0.07302100025117492 0.14729690551757812
      vertex 0.14822599291801453 0.011479999870062818 0.15657424926757812
    endloop
  endfacet
  facet normal 0.36306997010044917 -0.22031344363820135 -0.9053409210698123
    outer loop
      vertex 0.122312992811203 0.013300001621247282 0.15651226043701172
      vertex 0.13584697246551514 0.07354700192809199 0.1472787857055664
      vertex 0.13958799839019775 0.07328500039875602 0.14884281158447266
    endloop
  endfacet
  facet normal 0.3629851317353786 -0.220293966531527 -0.9053796786149203
    outer loop
      vertex 0.122312992811203 0.013300001621247282 0.15651226043701172
      vertex 0.13958799839019775 0.07328500039875602 0.14884281158447266
      vertex 0.13525697588920593 0.012393001466990461 0.16192245483398438
    endloop
  endfacet
  facet normal 0.8913097751417536 -0.25739894537488894 -0.37324612209191377
    outer loop
      vertex 0.11697697639465332 0.013670001178980817 0.1435098648071289
      vertex 0.1343039870262146 0.07365400157868957 0.14352035522460938
      vertex 0.13584697246551514 0.07354700192809199 0.1472787857055664
    endloop
  endfacet
  facet normal 0.8913540557486292 -0.25742049284724505 -0.3731254978727009
    outer loop
      vertex 0.11697697639465332 0.013670001178980817 0.1435098648071289
      vertex 0.13584697246551514 0.07354700192809199 0.1472787857055664
      vertex 0.122312992811203 0.013300001621247282 0.15651226043701172
    endloop
  endfacet
  facet normal 0.2387337376463422 -0.9626316159421404 0.12785372305111423
    outer loop
      vertex 0.1682799756526947 0.001000002026558866 0.17739391326904297
      vertex 0.18230697512626648 9.43689570931383e-16 0.14367294311523438
      vertex 0.1910179853439331 0.002163000404835691 0.1436929702758789
    endloop
  endfacet
  facet normal 0.23881709351815553 -0.9626033386161582 0.12791093904966253
    outer loop
      vertex 0.1682799756526947 0.001000002026558866 0.17739391326904297
      vertex 0.1910179853439331 0.002163000404835691 0.1436929702758789
      vertex 0.17448297142982483 0.003343001008034703 0.18344497680664062
    endloop
  endfacet
  facet normal 0.23936381637614915 -0.9627930481904161 -0.1254372742292035
    outer loop
      vertex 0.18230697512626648 9.43689570931383e-16 0.14367294311523438
      vertex 0.16843798756599426 0.0009540021419534583 0.10988521575927734
      vertex 0.17466899752616882 0.0032880008220682044 0.10386085510253906
    endloop
  endfacet
  facet normal 0.23935663421165124 -0.9627949923482056 -0.12543605688990872
    outer loop
      vertex 0.18230697512626648 9.43689570931383e-16 0.14367294311523438
      vertex 0.17466899752616882 0.0032880008220682044 0.10386085510253906
      vertex 0.1910179853439331 0.002163000404835691 0.1436929702758789
    endloop
  endfacet
  facet normal 0.06115477027452721 -0.9503830125231454 -0.3050118417047128
    outer loop
      vertex 0.16843798756599426 0.0009540021419534583 0.10988521575927734
      vertex 0.13479897379875183 0.0033030025661001106 0.09582138061523438
      vertex 0.13501298427581787 0.006057001650334348 0.08728313446044922
    endloop
  endfacet
  facet normal 0.061131440974937404 -0.9503947357774108 -0.30497998808268245
    outer loop
      vertex 0.16843798756599426 0.0009540021419534583 0.10988521575927734
      vertex 0.13501298427581787 0.006057001650334348 0.08728313446044922
      vertex 0.17466899752616882 0.0032880008220682044 0.10386085510253906
    endloop
  endfacet
  facet normal -0.191605271523891 -0.9326779378079924 -0.30561296479450417
    outer loop
      vertex 0.13479897379875183 0.0033030025661001106 0.09582138061523438
      vertex 0.10109397768974304 0.005672000348568906 0.10972309112548828
      vertex 0.09527897834777832 0.008850000798703184 0.10367012023925781
    endloop
  endfacet
  facet normal -0.19160841226198955 -0.9326703542194642 -0.305634138653683
    outer loop
      vertex 0.13479897379875183 0.0033030025661001106 0.09582138061523438
      vertex 0.09527897834777832 0.008850000798703184 0.10367012023925781
      vertex 0.13501298427581787 0.006057001650334348 0.08728313446044922
    endloop
  endfacet
  facet normal 0.05968939547155634 -0.9499528263375313 0.30663790340004676
    outer loop
      vertex 0.1345759928226471 0.0033689998090276688 0.19129371643066406
      vertex 0.1682799756526947 0.001000002026558866 0.17739391326904297
      vertex 0.17448297142982483 0.003343001008034703 0.18344497680664062
    endloop
  endfacet
  facet normal 0.05966942234661806 -0.9499868194879361 0.3065364624902179
    outer loop
      vertex 0.1345759928226471 0.0033689998090276688 0.19129371643066406
      vertex 0.17448297142982483 0.003343001008034703 0.18344497680664062
      vertex 0.13474997878074646 0.006135001778603551 0.19983196258544922
    endloop
  endfacet
  facet normal -0.19301654680501415 -0.932276915068322 0.3059483065652771
    outer loop
      vertex 0.10093599557876587 0.0057190023362646 0.1772317886352539
      vertex 0.1345759928226471 0.0033689998090276688 0.19129371643066406
      vertex 0.13474997878074646 0.006135001778603551 0.19983196258544922
    endloop
  endfacet
  facet normal -0.19300920645377095 -0.9322820080905494 0.30593741780752853
    outer loop
      vertex 0.10093599557876587 0.0057190023362646 0.1772317886352539
      vertex 0.13474997878074646 0.006135001778603551 0.19983196258544922
      vertex 0.09509298205375671 0.008905000984669682 0.18325424194335938
    endloop
  endfacet
  facet normal -0.3712783593391777 -0.919875655240722 0.12641660801437699
    outer loop
      vertex 0.08706799149513245 0.0066730007529268165 0.14344406127929688
      vertex 0.10093599557876587 0.0057190023362646 0.1772317886352539
      vertex 0.09509298205375671 0.008905000984669682 0.18325424194335938
    endloop
  endfacet
  facet normal -0.3712125183675456 -0.9199038338479748 0.12640491556510805
    outer loop
      vertex 0.08706799149513245 0.0066730007529268165 0.14344406127929688
      vertex 0.09509298205375671 0.008905000984669682 0.18325424194335938
      vertex 0.07874399423599243 0.010029003024102201 0.14342212677001953
    endloop
  endfacet
  facet normal -0.3706175759719988 -0.9200833845551186 -0.1268431229757349
    outer loop
      vertex 0.10109397768974304 0.005672000348568906 0.10972309112548828
      vertex 0.08706799149513245 0.0066730007529268165 0.14344406127929688
      vertex 0.07874399423599243 0.010029003024102201 0.14342212677001953
    endloop
  endfacet
  facet normal -0.3707111844820744 -0.9200362711437853 -0.12691129768360457
    outer loop
      vertex 0.10109397768974304 0.005672000348568906 0.10972309112548828
      vertex 0.07874399423599243 0.010029003024102201 0.14342212677001953
      vertex 0.09527897834777832 0.008850000798703184 0.10367012023925781
    endloop
  endfacet
  facet normal -0.9185902912543428 -0.12937714745529302 0.3734346402378779
    outer loop
      vertex 0.15362298488616943 0.011096000671387662 0.1435985565185547
      vertex 0.14489597082138062 0.07291000150144195 0.14354705810546875
      vertex 0.14335298538208008 0.07301700115203952 0.13978862762451172
    endloop
  endfacet
  facet normal -0.9186283844933665 -0.129389495061898 0.3733366440235067
    outer loop
      vertex 0.15362298488616943 0.011096000671387662 0.1435985565185547
      vertex 0.14335298538208008 0.07301700115203952 0.13978862762451172
      vertex 0.14828699827194214 0.011466000229121198 0.13059711456298828
    endloop
  endfacet
  facet normal -0.39033008813503195 -0.16650815863287632 0.9054929350388038
    outer loop
      vertex 0.14828699827194214 0.011466000229121198 0.13059711456298828
      vertex 0.14335298538208008 0.07301700115203952 0.13978862762451172
      vertex 0.13961297273635864 0.07327900081873034 0.13822460174560547
    endloop
  endfacet
  facet normal -0.390232496599649 -0.16649984294122064 0.9055365265400142
    outer loop
      vertex 0.14828699827194214 0.011466000229121198 0.13059711456298828
      vertex 0.13961297273635864 0.07327900081873034 0.13822460174560547
      vertex 0.13534298539161682 0.012374002486468305 0.12518596649169922
    endloop
  endfacet
  facet normal 0.35868434210019806 -0.21938577735534462 0.9073121973314033
    outer loop
      vertex 0.13534298539161682 0.012374002486468305 0.12518596649169922
      vertex 0.13961297273635864 0.07327900081873034 0.13822460174560547
      vertex 0.1358639895915985 0.07354300096631144 0.1397705078125
    endloop
  endfacet
  facet normal 0.3587706233168635 -0.2193787817642228 0.9072797749076494
    outer loop
      vertex 0.13534298539161682 0.012374002486468305 0.12518596649169922
      vertex 0.1358639895915985 0.07354300096631144 0.1397705078125
      vertex 0.12237399816513062 0.01328700035810565 0.13053512573242188
    endloop
  endfacet
  facet normal 0.8895468160884623 -0.2570359581449436 0.37767575803510334
    outer loop
      vertex 0.12237399816513062 0.01328700035810565 0.13053512573242188
      vertex 0.1358639895915985 0.07354300096631144 0.1397705078125
      vertex 0.1343039870262146 0.07365400157868957 0.14352035522460938
    endloop
  endfacet
  facet normal 0.8895735789482832 -0.2570287430618266 0.37761762786872144
    outer loop
      vertex 0.12237399816513062 0.01328700035810565 0.13053512573242188
      vertex 0.1343039870262146 0.07365400157868957 0.14352035522460938
      vertex 0.11697697639465332 0.013670001178980817 0.1435098648071289
    endloop
  endfacet
endsolid Standard Female Figure
