solid Standard Female Figure
  facet normal 0.07009192687887493 0.9975404660913204 -0.0003745620346858286
    outer loop
      vertex 0.15360701084136963 0.2675789967179308 0.14498233795166016
      vertex 0.1721230149269104 0.26627799123525714 0.14502716064453125
      vertex 0.16673001646995544 0.2666519954800615 0.13188838958740234
    endloop
  endfacet
  facet normal 0.07014494379809898 0.9975367580759298 -0.0003211649504217458
    outer loop
      vertex 0.15360701084136963 0.2675789967179308 0.14498233795166016
      vertex 0.16673001646995544 0.2666519954800615 0.13188838958740234
      vertex 0.15365001559257507 0.2675699964165697 0.1264200210571289
    endloop
  endfacet
  facet normal 0.07004898621875774 0.9975435009250725 -0.00032139053214185
    outer loop
      vertex 0.15360701084136963 0.2675789967179308 0.14498233795166016
      vertex 0.15365001559257507 0.2675699964165697 0.1264200210571289
      vertex 0.14054501056671143 0.26849199086427783 0.13182544708251953
    endloop
  endfacet
  facet normal 0.0700881889315464 0.9975407339102657 -0.0003605025167816335
    outer loop
      vertex 0.15360701084136963 0.2675789967179308 0.14498233795166016
      vertex 0.14054501056671143 0.26849199086427783 0.13182544708251953
      vertex 0.13509002327919006 0.26888000220060443 0.14493751525878906
    endloop
  endfacet
  facet normal 0.0700880378086902 0.9975407654095646 -0.00029715690706382956
    outer loop
      vertex 0.15360701084136963 0.2675789967179308 0.14498233795166016
      vertex 0.13509002327919006 0.26888000220060443 0.14493751525878906
      vertex 0.14048302173614502 0.26850499957800006 0.15807628631591797
    endloop
  endfacet
  facet normal 0.07006770774949851 0.9975421872979952 -0.0003176341642322587
    outer loop
      vertex 0.15360701084136963 0.2675789967179308 0.14498233795166016
      vertex 0.14048302173614502 0.26850499957800006 0.15807628631591797
      vertex 0.1535630226135254 0.26758799701929187 0.1635446548461914
    endloop
  endfacet
  facet normal 0.07009190220362059 0.9975404716594656 -0.00036420720619368015
    outer loop
      vertex 0.16666901111602783 0.26666600257158374 0.15813922882080078
      vertex 0.1721230149269104 0.26627799123525714 0.14502716064453125
      vertex 0.15360701084136963 0.2675789967179308 0.14498233795166016
    endloop
  endfacet
  facet normal 0.070045275174846 0.9975437626991405 -0.00031768808791115177
    outer loop
      vertex 0.16666901111602783 0.26666600257158374 0.15813922882080078
      vertex 0.15360701084136963 0.2675789967179308 0.14498233795166016
      vertex 0.1535630226135254 0.26758799701929187 0.1635446548461914
    endloop
  endfacet
  facet normal 0.14861328903512974 -0.8499574505749988 0.5054566475319219
    outer loop
      vertex 0.1361140012741089 0.020480997860432622 0.2017192840576172
      vertex 0.17611300945281982 0.017664998769761082 0.18522357940673828
      vertex 0.2103550136089325 0.04299599863588905 0.21775150299072266
    endloop
  endfacet
  facet normal 0.1486259534726074 -0.8499752476917994 0.5054229953866588
    outer loop
      vertex 0.1361140012741089 0.020480997860432622 0.2017192840576172
      vertex 0.2103550136089325 0.04299599863588905 0.21775150299072266
      vertex 0.13794401288032532 0.04809199832379913 0.24761486053466797
    endloop
  endfacet
  facet normal -0.26840004064189543 -0.8206795949989963 0.5044268237670477
    outer loop
      vertex 0.09619301557540894 0.02327900007367229 0.1850299835205078
      vertex 0.1361140012741089 0.020480997860432622 0.2017192840576172
      vertex 0.13794401288032532 0.04809199832379913 0.24761486053466797
    endloop
  endfacet
  facet normal -0.26842140527555725 -0.8206669327279537 0.5044360561228621
    outer loop
      vertex 0.09619301557540894 0.02327900007367229 0.1850299835205078
      vertex 0.13794401288032532 0.04809199832379913 0.24761486053466797
      vertex 0.06567502021789551 0.05315899848938083 0.21740245819091797
    endloop
  endfacet
  facet normal -0.5626202750680542 -0.8000948727675579 0.2081024282737049
    outer loop
      vertex 0.07973602414131165 0.024421997368336668 0.14493179321289062
      vertex 0.09619301557540894 0.02327900007367229 0.1850299835205078
      vertex 0.06567502021789551 0.05315899848938083 0.21740245819091797
    endloop
  endfacet
  facet normal -0.5625845813595711 -0.8001159916537257 0.20811772802058637
    outer loop
      vertex 0.07973602414131165 0.024421997368336668 0.14493179321289062
      vertex 0.06567502021789551 0.05315899848938083 0.21740245819091797
      vertex 0.035882025957107544 0.05522599816322421 0.14481258392333984
    endloop
  endfacet
  facet normal -0.5615991342982629 -0.8003309357946664 -0.20994476789259442
    outer loop
      vertex 0.0963820219039917 0.0232389979064474 0.10491371154785156
      vertex 0.07973602414131165 0.024421997368336668 0.14493179321289062
      vertex 0.035882025957107544 0.05522599816322421 0.14481258392333984
    endloop
  endfacet
  facet normal -0.5615996702545585 -0.8003301895914996 -0.20994617881353644
    outer loop
      vertex 0.0963820219039917 0.0232389979064474 0.10491371154785156
      vertex 0.035882025957107544 0.05522599816322421 0.14481258392333984
      vertex 0.06601601839065552 0.053084998391569604 0.07236671447753906
    endloop
  endfacet
  facet normal 0.14129518723464204 0.974119107323765 0.17643025480647828
    outer loop
      vertex 0.16666901111602783 0.26666600257158374 0.15813922882080078
      vertex 0.1535630226135254 0.26758799701929187 0.1635446548461914
      vertex 0.1530110239982605 0.2609829977154741 0.2004547119140625
    endloop
  endfacet
  facet normal 0.14134066644258356 0.9741100705666074 0.1764437202914445
    outer loop
      vertex 0.16666901111602783 0.26666600257158374 0.15813922882080078
      vertex 0.1530110239982605 0.2609829977154741 0.2004547119140625
      vertex 0.19217601418495178 0.2582259997725496 0.18430233001708984
    endloop
  endfacet
  facet normal -0.004606773580548401 0.9843634424635973 0.17608915576603215
    outer loop
      vertex 0.1535630226135254 0.26758799701929187 0.1635446548461914
      vertex 0.14048302173614502 0.26850499957800006 0.15807628631591797
      vertex 0.11392199993133545 0.26372299343347644 0.1841135025024414
    endloop
  endfacet
  facet normal -0.004610801596016253 0.9843647677114159 0.1760816418514219
    outer loop
      vertex 0.1535630226135254 0.26758799701929187 0.1635446548461914
      vertex 0.11392199993133545 0.26372299343347644 0.1841135025024414
      vertex 0.1530110239982605 0.2609829977154741 0.2004547119140625
    endloop
  endfacet
  facet normal -0.1075880504933662 0.9915513733029953 0.07246161392062098
    outer loop
      vertex 0.14048302173614502 0.26850499957800006 0.15807628631591797
      vertex 0.13509002327919006 0.26888000220060443 0.14493751525878906
      vertex 0.09780800342559814 0.26484099775552844 0.1448516845703125
    endloop
  endfacet
  facet normal -0.10756416019755635 0.9915597657866906 0.0723821961122889
    outer loop
      vertex 0.14048302173614502 0.26850499957800006 0.15807628631591797
      vertex 0.09780800342559814 0.26484099775552844 0.1448516845703125
      vertex 0.11392199993133545 0.26372299343347644 0.1841135025024414
    endloop
  endfacet
  facet normal -0.10719443157510859 0.9914851717020067 -0.07393583795651178
    outer loop
      vertex 0.13509002327919006 0.26888000220060443 0.14493751525878906
      vertex 0.14054501056671143 0.26849199086427783 0.13182544708251953
      vertex 0.11410701274871826 0.26368299871683215 0.1056671142578125
    endloop
  endfacet
  facet normal -0.10724354370486124 0.9914818500042714 -0.0739091567109994
    outer loop
      vertex 0.13509002327919006 0.26888000220060443 0.14493751525878906
      vertex 0.11410701274871826 0.26368299871683215 0.1056671142578125
      vertex 0.09780800342559814 0.26484099775552844 0.1448516845703125
    endloop
  endfacet
  facet normal -0.003824059758454227 0.9841781043556229 -0.17714072223499658
    outer loop
      vertex 0.14054501056671143 0.26849199086427783 0.13182544708251953
      vertex 0.15365001559257507 0.2675699964165697 0.1264200210571289
      vertex 0.15327200293540955 0.26092600077390765 0.08951473236083984
    endloop
  endfacet
  facet normal -0.003768639514442251 0.9841812182389289 -0.17712460874183508
    outer loop
      vertex 0.14054501056671143 0.26849199086427783 0.13182544708251953
      vertex 0.15327200293540955 0.26092600077390765 0.08951473236083984
      vertex 0.11410701274871826 0.26368299871683215 0.1056671142578125
    endloop
  endfacet
  facet normal 0.14222661962892888 0.9739349672786654 -0.17669824045766006
    outer loop
      vertex 0.15365001559257507 0.2675699964165697 0.1264200210571289
      vertex 0.16673001646995544 0.2666519954800615 0.13188838958740234
      vertex 0.1923600137233734 0.25818600505590533 0.10585498809814453
    endloop
  endfacet
  facet normal 0.142175393658765 0.9739257143416603 -0.17679044199860425
    outer loop
      vertex 0.15365001559257507 0.2675699964165697 0.1264200210571289
      vertex 0.1923600137233734 0.25818600505590533 0.10585498809814453
      vertex 0.15327200293540955 0.26092600077390765 0.08951473236083984
    endloop
  endfacet
  facet normal 0.24513699010033857 0.9667285235749766 -0.07310142126588472
    outer loop
      vertex 0.16673001646995544 0.2666519954800615 0.13188838958740234
      vertex 0.1721230149269104 0.26627799123525714 0.14502716064453125
      vertex 0.2084750086069107 0.25706700235605334 0.14511871337890625
    endloop
  endfacet
  facet normal 0.24512367339259483 0.9667354561194009 -0.07305438127952465
    outer loop
      vertex 0.16673001646995544 0.2666519954800615 0.13188838958740234
      vertex 0.2084750086069107 0.25706700235605334 0.14511871337890625
      vertex 0.1923600137233734 0.25818600505590533 0.10585498809814453
    endloop
  endfacet
  facet normal 0.2448045130038981 0.966803980671998 0.07321757555193173
    outer loop
      vertex 0.1721230149269104 0.26627799123525714 0.14502716064453125
      vertex 0.16666901111602783 0.26666600257158374 0.15813922882080078
      vertex 0.19217601418495178 0.2582259997725496 0.18430233001708984
    endloop
  endfacet
  facet normal 0.24478844213682413 0.9668073756769269 0.07322647699377902
    outer loop
      vertex 0.1721230149269104 0.26627799123525714 0.14502716064453125
      vertex 0.19217601418495178 0.2582259997725496 0.18430233001708984
      vertex 0.2084750086069107 0.25706700235605334 0.14511871337890625
    endloop
  endfacet
  facet normal 0.2660258606816181 0.8211775892283368 0.5048738539454591
    outer loop
      vertex 0.19217601418495178 0.2582259997725496 0.18430233001708984
      vertex 0.1530110239982605 0.2609829977154741 0.2004547119140625
      vertex 0.15091201663017273 0.2327079996466646 0.24755001068115234
    endloop
  endfacet
  facet normal 0.2660114190255858 0.8211859791554611 0.5048678169446738
    outer loop
      vertex 0.19217601418495178 0.2582259997725496 0.18430233001708984
      vertex 0.15091201663017273 0.2327079996466646 0.24755001068115234
      vertex 0.2233230173587799 0.22761099785566424 0.21768760681152344
    endloop
  endfacet
  facet normal -0.15102034499666986 0.8504852862368528 0.5038527893062666
    outer loop
      vertex 0.1530110239982605 0.2609829977154741 0.2004547119140625
      vertex 0.11392199993133545 0.26372299343347644 0.1841135025024414
      vertex 0.07864302396774292 0.23777500540018176 0.21733856201171875
    endloop
  endfacet
  facet normal -0.15101152942196544 0.8504734697935714 0.503875376615014
    outer loop
      vertex 0.1530110239982605 0.2609829977154741 0.2004547119140625
      vertex 0.07864302396774292 0.23777500540018176 0.21733856201171875
      vertex 0.15091201663017273 0.2327079996466646 0.24755001068115234
    endloop
  endfacet
  facet normal -0.4452136873640913 0.8710431141112825 0.2075299157783962
    outer loop
      vertex 0.11392199993133545 0.26372299343347644 0.1841135025024414
      vertex 0.09780800342559814 0.26484099775552844 0.1448516845703125
      vertex 0.04884999990463257 0.23984200507402514 0.14474773406982422
    endloop
  endfacet
  facet normal -0.4452132522003689 0.8710435744538416 0.2075289171846793
    outer loop
      vertex 0.11392199993133545 0.26372299343347644 0.1841135025024414
      vertex 0.04884999990463257 0.23984200507402514 0.14474773406982422
      vertex 0.07864302396774292 0.23777500540018176 0.21733856201171875
    endloop
  endfacet
  facet normal -0.4442226176001928 0.8708335452244522 -0.2105117633868596
    outer loop
      vertex 0.09780800342559814 0.26484099775552844 0.1448516845703125
      vertex 0.11410701274871826 0.26368299871683215 0.1056671142578125
      vertex 0.07898402214050293 0.23770099133253192 0.07230281829833984
    endloop
  endfacet
  facet normal -0.4442196794453826 0.8708347507043382 -0.21051297670014202
    outer loop
      vertex 0.09780800342559814 0.26484099775552844 0.1448516845703125
      vertex 0.07898402214050293 0.23770099133253192 0.07230281829833984
      vertex 0.04884999990463257 0.23984200507402514 0.14474773406982422
    endloop
  endfacet
  facet normal -0.1486161513472119 0.8499719615937139 -0.5054314039147914
    outer loop
      vertex 0.11410701274871826 0.26368299871683215 0.1056671142578125
      vertex 0.15327200293540955 0.26092600077390765 0.08951473236083984
      vertex 0.15139400959014893 0.23260400444269275 0.042438507080078125
    endloop
  endfacet
  facet normal -0.1486292894873269 0.849966618747085 -0.505436525512492
    outer loop
      vertex 0.11410701274871826 0.26368299871683215 0.1056671142578125
      vertex 0.15139400959014893 0.23260400444269275 0.042438507080078125
      vertex 0.07898402214050293 0.23770099133253192 0.07230281829833984
    endloop
  endfacet
  facet normal 0.26840708377507916 0.8206612110539792 -0.5044529849755811
    outer loop
      vertex 0.15327200293540955 0.26092600077390765 0.08951473236083984
      vertex 0.1923600137233734 0.25818600505590533 0.10585498809814453
      vertex 0.22366401553153992 0.22753799706697558 0.07265186309814453
    endloop
  endfacet
  facet normal 0.2684139465859056 0.8206681413212945 -0.504438058733112
    outer loop
      vertex 0.15327200293540955 0.26092600077390765 0.08951473236083984
      vertex 0.22366401553153992 0.22753799706697558 0.07265186309814453
      vertex 0.15139400959014893 0.23260400444269275 0.042438507080078125
    endloop
  endfacet
  facet normal 0.5625965885661007 0.800111277390983 -0.2081033933542538
    outer loop
      vertex 0.1923600137233734 0.25818600505590533 0.10585498809814453
      vertex 0.2084750086069107 0.25706700235605334 0.14511871337890625
      vertex 0.2534570097923279 0.2254699990153322 0.14524173736572266
    endloop
  endfacet
  facet normal 0.5626002807058248 0.8001060655877725 -0.2081134497320683
    outer loop
      vertex 0.1923600137233734 0.25818600505590533 0.10585498809814453
      vertex 0.2534570097923279 0.2254699990153322 0.14524173736572266
      vertex 0.22366401553153992 0.22753799706697558 0.07265186309814453
    endloop
  endfacet
  facet normal 0.5616195351837423 0.8003174736004355 0.20994151364085484
    outer loop
      vertex 0.2084750086069107 0.25706700235605334 0.14511871337890625
      vertex 0.19217601418495178 0.2582259997725496 0.18430233001708984
      vertex 0.2233230173587799 0.22761099785566424 0.21768760681152344
    endloop
  endfacet
  facet normal 0.561604329527545 0.800326379477596 0.2099482397358926
    outer loop
      vertex 0.2084750086069107 0.25706700235605334 0.14511871337890625
      vertex 0.2233230173587799 0.22761099785566424 0.21768760681152344
      vertex 0.2534570097923279 0.2254699990153322 0.14524173736572266
    endloop
  endfacet
  facet normal 0.3528331793603614 0.54139660239917 0.7631503563866653
    outer loop
      vertex 0.2233230173587799 0.22761099785566424 0.21768760681152344
      vertex 0.15091201663017273 0.2327079996466646 0.24755001068115234
      vertex 0.14786401391029358 0.19037299603223895 0.2789926528930664
    endloop
  endfacet
  facet normal 0.3528485459993381 0.5413768434493306 0.7631572688266762
    outer loop
      vertex 0.2233230173587799 0.22761099785566424 0.21768760681152344
      vertex 0.14786401391029358 0.19037299603223895 0.2789926528930664
      vertex 0.24246400594711304 0.1837139949202547 0.23997783660888672
    endloop
  endfacet
  facet normal -0.2773430233077029 0.5856303416877489 0.7616547448268367
    outer loop
      vertex 0.15091201663017273 0.2327079996466646 0.24755001068115234
      vertex 0.07864302396774292 0.23777500540018176 0.21733856201171875
      vertex 0.05344802141189575 0.19699200242757892 0.23952198028564453
    endloop
  endfacet
  facet normal -0.27734778975287655 0.585646538009965 0.7616405556666062
    outer loop
      vertex 0.15091201663017273 0.2327079996466646 0.24755001068115234
      vertex 0.05344802141189575 0.19699200242757892 0.23952198028564453
      vertex 0.14786401391029358 0.19037299603223895 0.2789926528930664
    endloop
  endfacet
  facet normal -0.721913630061864 0.6167154465260203 0.3138515074794346
    outer loop
      vertex 0.07864302396774292 0.23777500540018176 0.21733856201171875
      vertex 0.04884999990463257 0.23984200507402514 0.14474773406982422
      vertex 0.014525026082992554 0.19969300180673694 0.14468669891357422
    endloop
  endfacet
  facet normal -0.7219173228298803 0.6167072891996136 0.3138590423202786
    outer loop
      vertex 0.07864302396774292 0.23777500540018176 0.21733856201171875
      vertex 0.014525026082992554 0.19969300180673694 0.14468669891357422
      vertex 0.05344802141189575 0.19699200242757892 0.23952198028564453
    endloop
  endfacet
  facet normal -0.7204260994250297 0.616389802048404 -0.3178833861622319
    outer loop
      vertex 0.04884999990463257 0.23984200507402514 0.14474773406982422
      vertex 0.07898402214050293 0.23770099133253192 0.07230281829833984
      vertex 0.05389401316642761 0.19689499586820697 0.050040245056152344
    endloop
  endfacet
  facet normal -0.7204182758590246 0.6163973870380453 -0.3178864090535808
    outer loop
      vertex 0.04884999990463257 0.23984200507402514 0.14474773406982422
      vertex 0.05389401316642761 0.19689499586820697 0.050040245056152344
      vertex 0.014525026082992554 0.19969300180673694 0.14468669891357422
    endloop
  endfacet
  facet normal -0.27374125088536283 0.5848668089321175 -0.7635421032092982
    outer loop
      vertex 0.07898402214050293 0.23770099133253192 0.07230281829833984
      vertex 0.15139400959014893 0.23260400444269275 0.042438507080078125
      vertex 0.14849400520324707 0.1902369931340227 0.011025428771972656
    endloop
  endfacet
  facet normal -0.27373428020307344 0.5848735637269328 -0.763539428120816
    outer loop
      vertex 0.07898402214050293 0.23770099133253192 0.07230281829833984
      vertex 0.14849400520324707 0.1902369931340227 0.011025428771972656
      vertex 0.05389401316642761 0.19689499586820697 0.050040245056152344
    endloop
  endfacet
  facet normal 0.35646783433609225 0.5406053830779715 -0.762021327044628
    outer loop
      vertex 0.15139400959014893 0.23260400444269275 0.042438507080078125
      vertex 0.22366401553153992 0.22753799706697558 0.07265186309814453
      vertex 0.2429090142250061 0.18361800163984393 0.05049610137939453
    endloop
  endfacet
  facet normal 0.3564668526111057 0.5406032212184912 -0.7620233199828751
    outer loop
      vertex 0.15139400959014893 0.23260400444269275 0.042438507080078125
      vertex 0.2429090142250061 0.18361800163984393 0.05049610137939453
      vertex 0.14849400520324707 0.1902369931340227 0.011025428771972656
    endloop
  endfacet
  facet normal 0.8010185017581807 0.5095283823448201 -0.3142454254657497
    outer loop
      vertex 0.22366401553153992 0.22753799706697558 0.07265186309814453
      vertex 0.2534570097923279 0.2254699990153322 0.14524173736572266
      vertex 0.2818330079317093 0.18091599643230533 0.14533138275146484
    endloop
  endfacet
  facet normal 0.8010207822107452 0.509520587889241 -0.31425225056232764
    outer loop
      vertex 0.22366401553153992 0.22753799706697558 0.07265186309814453
      vertex 0.2818330079317093 0.18091599643230533 0.14533138275146484
      vertex 0.2429090142250061 0.18361800163984393 0.05049610137939453
    endloop
  endfacet
  facet normal 0.7995296607961266 0.5098501975727936 0.31749818510066197
    outer loop
      vertex 0.2534570097923279 0.2254699990153322 0.14524173736572266
      vertex 0.2233230173587799 0.22761099785566424 0.21768760681152344
      vertex 0.24246400594711304 0.1837139949202547 0.23997783660888672
    endloop
  endfacet
  facet normal 0.7995291076529876 0.5098509095443116 0.31749843472441847
    outer loop
      vertex 0.2534570097923279 0.2254699990153322 0.14524173736572266
      vertex 0.24246400594711304 0.1837139949202547 0.23997783660888672
      vertex 0.2818330079317093 0.18091599643230533 0.14533138275146484
    endloop
  endfacet
  facet normal 0.3858986531904709 0.17331508690178452 0.9061148437797537
    outer loop
      vertex 0.24246400594711304 0.1837139949202547 0.23997783660888672
      vertex 0.14786401391029358 0.19037299603223895 0.2789926528930664
      vertex 0.1443290114402771 0.14042200148105716 0.2900524139404297
    endloop
  endfacet
  facet normal 0.3858960666470119 0.173320931241992 0.9061148274582937
    outer loop
      vertex 0.24246400594711304 0.1837139949202547 0.23997783660888672
      vertex 0.1443290114402771 0.14042200148105716 0.2900524139404297
      vertex 0.24672500789165497 0.13321399688720797 0.24782276153564453
    endloop
  endfacet
  facet normal -0.3622130709840057 0.22587933818098668 0.9043120124112336
    outer loop
      vertex 0.14786401391029358 0.19037299603223895 0.2789926528930664
      vertex 0.05344802141189575 0.19699200242757892 0.23952198028564453
      vertex 0.042131006717681885 0.1475859954953203 0.2473297119140625
    endloop
  endfacet
  facet normal -0.36220751822667924 0.22586048619586724 0.9043189451269039
    outer loop
      vertex 0.14786401391029358 0.19037299603223895 0.2789926528930664
      vertex 0.042131006717681885 0.1475859954953203 0.2473297119140625
      vertex 0.1443290114402771 0.14042200148105716 0.2900524139404297
    endloop
  endfacet
  facet normal -0.8899554186411092 0.2627548124880878 0.3727455718659549
    outer loop
      vertex 0.05344802141189575 0.19699200242757892 0.23952198028564453
      vertex 0.014525026082992554 0.19969300180673694 0.14468669891357422
      vertex 0 0.15050999820232486 0.14467716217041016
    endloop
  endfacet
  facet normal -0.8899550573568097 0.26275977515999277 0.3727429361408578
    outer loop
      vertex 0.05344802141189575 0.19699200242757892 0.23952198028564453
      vertex 0 0.15050999820232486 0.14467716217041016
      vertex 0.042131006717681885 0.1475859954953203 0.2473297119140625
    endloop
  endfacet
  facet normal -0.888187431874313 0.2623721281912559 -0.37720545092681773
    outer loop
      vertex 0.014525026082992554 0.19969300180673694 0.14468669891357422
      vertex 0.05389401316642761 0.19689499586820697 0.050040245056152344
      vertex 0.04261401295661926 0.14748200029134845 0.04223060607910156
    endloop
  endfacet
  facet normal -0.8881850213410626 0.26237738622171136 -0.3772074695241852
    outer loop
      vertex 0.014525026082992554 0.19969300180673694 0.14468669891357422
      vertex 0.04261401295661926 0.14748200029134845 0.04223060607910156
      vertex 0 0.15050999820232486 0.14467716217041016
    endloop
  endfacet
  facet normal -0.35792352144406436 0.22494264361685426 -0.9062513778636373
    outer loop
      vertex 0.05389401316642761 0.19689499586820697 0.050040245056152344
      vertex 0.14849400520324707 0.1902369931340227 0.011025428771972656
      vertex 0.14501002430915833 0.14027399569749927 0
    endloop
  endfacet
  facet normal -0.3579259079585671 0.22493881091576678 -0.906251386622849
    outer loop
      vertex 0.05389401316642761 0.19689499586820697 0.050040245056152344
      vertex 0.14501002430915833 0.14027399569749927 0
      vertex 0.04261401295661926 0.14748200029134845 0.04223060607910156
    endloop
  endfacet
  facet normal 0.39019541972869326 0.17236903117859254 -0.9044536757144074
    outer loop
      vertex 0.14849400520324707 0.1902369931340227 0.011025428771972656
      vertex 0.2429090142250061 0.18361800163984393 0.05049610137939453
      vertex 0.24720701575279236 0.1331100016832361 0.042724609375
    endloop
  endfacet
  facet normal 0.3901993513190803 0.1723776806907654 -0.9044503311016262
    outer loop
      vertex 0.14849400520324707 0.1902369931340227 0.011025428771972656
      vertex 0.24720701575279236 0.1331100016832361 0.042724609375
      vertex 0.14501002430915833 0.14027399569749927 0
    endloop
  endfacet
  facet normal 0.917928518605639 0.13549401868773966 -0.37289221717582627
    outer loop
      vertex 0.2429090142250061 0.18361800163984393 0.05049610137939453
      vertex 0.2818330079317093 0.18091599643230533 0.14533138275146484
      vertex 0.28933900594711304 0.13018599897623157 0.14537525177001953
    endloop
  endfacet
  facet normal 0.917928088907005 0.13548767243617746 -0.37289558084450464
    outer loop
      vertex 0.2429090142250061 0.18361800163984393 0.05049610137939453
      vertex 0.28933900594711304 0.13018599897623157 0.14537525177001953
      vertex 0.24720701575279236 0.1331100016832361 0.042724609375
    endloop
  endfacet
  facet normal 0.9161636866468216 0.13587831853852073 0.377069200307913
    outer loop
      vertex 0.2818330079317093 0.18091599643230533 0.14533138275146484
      vertex 0.24246400594711304 0.1837139949202547 0.23997783660888672
      vertex 0.24672500789165497 0.13321399688720797 0.24782276153564453
    endloop
  endfacet
  facet normal 0.9161627993998117 0.13588129712165395 0.37707028269069026
    outer loop
      vertex 0.2818330079317093 0.18091599643230533 0.14533138275146484
      vertex 0.24672500789165497 0.13321399688720797 0.24782276153564453
      vertex 0.28933900594711304 0.13018599897623157 0.14537525177001953
    endloop
  endfacet
  facet normal 0.3579174494259721 -0.22494719196703467 0.9062526470154737
    outer loop
      vertex 0.24672500789165497 0.13321399688720797 0.24782276153564453
      vertex 0.1443290114402771 0.14042200148105716 0.2900524139404297
      vertex 0.14084500074386597 0.09045999869704342 0.27902698516845703
    endloop
  endfacet
  facet normal 0.3579196513027409 -0.22495462647301617 0.9062499319943204
    outer loop
      vertex 0.24672500789165497 0.13321399688720797 0.24782276153564453
      vertex 0.14084500074386597 0.09045999869704342 0.27902698516845703
      vertex 0.23544500768184662 0.08380099758505916 0.24001216888427734
    endloop
  endfacet
  facet normal -0.39018151385848593 -0.1724095773431955 0.9044519466966948
    outer loop
      vertex 0.1443290114402771 0.14042200148105716 0.2900524139404297
      vertex 0.042131006717681885 0.1475859954953203 0.2473297119140625
      vertex 0.04643002152442932 0.09707799926400279 0.23955631256103516
    endloop
  endfacet
  facet normal -0.39019388927320225 -0.1723816150803646 0.9044519376706187
    outer loop
      vertex 0.1443290114402771 0.14042200148105716 0.2900524139404297
      vertex 0.04643002152442932 0.09707799926400279 0.23955631256103516
      vertex 0.14084500074386597 0.09045999869704342 0.27902698516845703
    endloop
  endfacet
  facet normal -0.9179306176974903 -0.13551293406805778 0.3728801761876999
    outer loop
      vertex 0.042131006717681885 0.1475859954953203 0.2473297119140625
      vertex 0 0.15050999820232486 0.14467716217041016
      vertex 0.007507026195526123 0.0997799970209608 0.14472103118896484
    endloop
  endfacet
  facet normal -0.917929061296711 -0.13551818721398812 0.3728820984723904
    outer loop
      vertex 0.042131006717681885 0.1475859954953203 0.2473297119140625
      vertex 0.007507026195526123 0.0997799970209608 0.14472103118896484
      vertex 0.04643002152442932 0.09707799926400279 0.23955631256103516
    endloop
  endfacet
  facet normal -0.9161618364798011 -0.13587856651393976 -0.37707360626285574
    outer loop
      vertex 0 0.15050999820232486 0.14467716217041016
      vertex 0.04261401295661926 0.14748200029134845 0.04223060607910156
      vertex 0.046875 0.09698199853301143 0.050075531005859375
    endloop
  endfacet
  facet normal -0.9161633367461679 -0.13589992823147906 -0.3770622626421356
    outer loop
      vertex 0 0.15050999820232486 0.14467716217041016
      vertex 0.046875 0.09698199853301143 0.050075531005859375
      vertex 0.007507026195526123 0.0997799970209608 0.14472103118896484
    endloop
  endfacet
  facet normal -0.38590312471075067 -0.17333096311758633 -0.906109902585337
    outer loop
      vertex 0.04261401295661926 0.14748200029134845 0.04223060607910156
      vertex 0.14501002430915833 0.14027399569749927 0
      vertex 0.14147502183914185 0.09032299742102717 0.011060714721679688
    endloop
  endfacet
  facet normal -0.38589850812964366 -0.17332085143791764 -0.9061138029409719
    outer loop
      vertex 0.04261401295661926 0.14748200029134845 0.04223060607910156
      vertex 0.14147502183914185 0.09032299742102717 0.011060714721679688
      vertex 0.046875 0.09698199853301143 0.050075531005859375
    endloop
  endfacet
  facet normal 0.3622255127876688 -0.22585739883950456 -0.9043125086357943
    outer loop
      vertex 0.14501002430915833 0.14027399569749927 0
      vertex 0.24720701575279236 0.1331100016832361 0.042724609375
      vertex 0.23589101433753967 0.0837039984762678 0.05053138732910156
    endloop
  endfacet
  facet normal 0.36221347620962346 -0.22587672964465874 -0.9043125016592296
    outer loop
      vertex 0.14501002430915833 0.14027399569749927 0
      vertex 0.23589101433753967 0.0837039984762678 0.05053138732910156
      vertex 0.14147502183914185 0.09032299742102717 0.011060714721679688
    endloop
  endfacet
  facet normal 0.8899495331611166 -0.26275978080756013 -0.37275612136660297
    outer loop
      vertex 0.24720701575279236 0.1331100016832361 0.042724609375
      vertex 0.28933900594711304 0.13018599897623157 0.14537525177001953
      vertex 0.27481400966644287 0.08100299909710978 0.14536666870117188
    endloop
  endfacet
  facet normal 0.8899602978420201 -0.26273619711657975 -0.3727470442400055
    outer loop
      vertex 0.24720701575279236 0.1331100016832361 0.042724609375
      vertex 0.27481400966644287 0.08100299909710978 0.14536666870117188
      vertex 0.23589101433753967 0.0837039984762678 0.05053138732910156
    endloop
  endfacet
  facet normal 0.8881859492086626 -0.2623788615565026 0.3772042585080672
    outer loop
      vertex 0.28933900594711304 0.13018599897623157 0.14537525177001953
      vertex 0.24672500789165497 0.13321399688720797 0.24782276153564453
      vertex 0.23544500768184662 0.08380099758505916 0.24001216888427734
    endloop
  endfacet
  facet normal 0.8881865709649682 -0.2623700116282496 0.37720895025924805
    outer loop
      vertex 0.28933900594711304 0.13018599897623157 0.14537525177001953
      vertex 0.23544500768184662 0.08380099758505916 0.24001216888427734
      vertex 0.27481400966644287 0.08100299909710978 0.14536666870117188
    endloop
  endfacet
  facet normal 0.2737361793119966 -0.5848518301757244 0.7635553947656818
    outer loop
      vertex 0.23544500768184662 0.08380099758505916 0.24001216888427734
      vertex 0.14084500074386597 0.09045999869704342 0.27902698516845703
      vertex 0.13794401288032532 0.04809199832379913 0.24761486053466797
    endloop
  endfacet
  facet normal 0.2737385099317425 -0.5848596463209987 0.7635485723158847
    outer loop
      vertex 0.23544500768184662 0.08380099758505916 0.24001216888427734
      vertex 0.13794401288032532 0.04809199832379913 0.24761486053466797
      vertex 0.2103550136089325 0.04299599863588905 0.21775150299072266
    endloop
  endfacet
  facet normal -0.3564647862561392 -0.540589573704601 0.7620339683775538
    outer loop
      vertex 0.14084500074386597 0.09045999869704342 0.27902698516845703
      vertex 0.04643002152442932 0.09707799926400279 0.23955631256103516
      vertex 0.06567502021789551 0.05315899848938083 0.21740245819091797
    endloop
  endfacet
  facet normal -0.35647538790199185 -0.5405759649477057 0.7620386630224096
    outer loop
      vertex 0.14084500074386597 0.09045999869704342 0.27902698516845703
      vertex 0.06567502021789551 0.05315899848938083 0.21740245819091797
      vertex 0.13794401288032532 0.04809199832379913 0.24761486053466797
    endloop
  endfacet
  facet normal -0.8010317605373335 -0.5095054598875253 0.31424879467590905
    outer loop
      vertex 0.04643002152442932 0.09707799926400279 0.23955631256103516
      vertex 0.007507026195526123 0.0997799970209608 0.14472103118896484
      vertex 0.035882025957107544 0.05522599816322421 0.14481258392333984
    endloop
  endfacet
  facet normal -0.8010210107703781 -0.509519321575415 0.31425372113267125
    outer loop
      vertex 0.04643002152442932 0.09707799926400279 0.23955631256103516
      vertex 0.035882025957107544 0.05522599816322421 0.14481258392333984
      vertex 0.06567502021789551 0.05315899848938083 0.21740245819091797
    endloop
  endfacet
  facet normal -0.799528978482134 -0.5098546306015446 -0.31749278451876356
    outer loop
      vertex 0.007507026195526123 0.0997799970209608 0.14472103118896484
      vertex 0.046875 0.09698199853301143 0.050075531005859375
      vertex 0.06601601839065552 0.053084998391569604 0.07236671447753906
    endloop
  endfacet
  facet normal -0.799530949887866 -0.5098478021457661 -0.31749878553868244
    outer loop
      vertex 0.007507026195526123 0.0997799970209608 0.14472103118896484
      vertex 0.06601601839065552 0.053084998391569604 0.07236671447753906
      vertex 0.035882025957107544 0.05522599816322421 0.14481258392333984
    endloop
  endfacet
  facet normal -0.35284759244468095 -0.5413814533918737 -0.7631544394349646
    outer loop
      vertex 0.046875 0.09698199853301143 0.050075531005859375
      vertex 0.14147502183914185 0.09032299742102717 0.011060714721679688
      vertex 0.1384270191192627 0.04798799753189181 0.042502403259277344
    endloop
  endfacet
  facet normal -0.35285135361831726 -0.5413896491739769 -0.763146886265678
    outer loop
      vertex 0.046875 0.09698199853301143 0.050075531005859375
      vertex 0.1384270191192627 0.04798799753189181 0.042502403259277344
      vertex 0.06601601839065552 0.053084998391569604 0.07236671447753906
    endloop
  endfacet
  facet normal 0.2773492586510416 -0.5856423334888835 -0.7616432537293383
    outer loop
      vertex 0.14147502183914185 0.09032299742102717 0.011060714721679688
      vertex 0.23589101433753967 0.0837039984762678 0.05053138732910156
      vertex 0.2106960117816925 0.04292199760675525 0.07271480560302734
    endloop
  endfacet
  facet normal 0.2773574301545943 -0.5856344322142373 -0.7616463534627782
    outer loop
      vertex 0.14147502183914185 0.09032299742102717 0.011060714721679688
      vertex 0.2106960117816925 0.04292199760675525 0.07271480560302734
      vertex 0.1384270191192627 0.04798799753189181 0.042502403259277344
    endloop
  endfacet
  facet normal 0.7219119629595808 -0.6167145773099029 -0.31385705005513675
    outer loop
      vertex 0.23589101433753967 0.0837039984762678 0.05053138732910156
      vertex 0.27481400966644287 0.08100299909710978 0.14536666870117188
      vertex 0.24048900604248047 0.040853997692466726 0.14530563354492188
    endloop
  endfacet
  facet normal 0.7219094422731029 -0.6167170266184302 -0.313858035162173
    outer loop
      vertex 0.23589101433753967 0.0837039984762678 0.05053138732910156
      vertex 0.24048900604248047 0.040853997692466726 0.14530563354492188
      vertex 0.2106960117816925 0.04292199760675525 0.07271480560302734
    endloop
  endfacet
  facet normal 0.7204216663007281 -0.6163911074376484 0.3178909017198698
    outer loop
      vertex 0.27481400966644287 0.08100299909710978 0.14536666870117188
      vertex 0.23544500768184662 0.08380099758505916 0.24001216888427734
      vertex 0.2103550136089325 0.04299599863588905 0.21775150299072266
    endloop
  endfacet
  facet normal 0.7204185121355327 -0.6163981493374093 0.31788439544249797
    outer loop
      vertex 0.27481400966644287 0.08100299909710978 0.14536666870117188
      vertex 0.2103550136089325 0.04299599863588905 0.21775150299072266
      vertex 0.24048900604248047 0.040853997692466726 0.14530563354492188
    endloop
  endfacet
  facet normal 0.14876901234682835 -0.8497287725226219 0.5057952096575721
    outer loop
      vertex 0.17611300945281982 0.017664998769761082 0.18522357940673828
      vertex 0.1361140012741089 0.020480997860432622 0.2017192840576172
      vertex 0.1360670030117035 0.019769996404648778 0.20053863525390625
    endloop
  endfacet
  facet normal 0.14850500001506836 -0.8501509925161136 0.5051628993645432
    outer loop
      vertex 0.17611300945281982 0.017664998769761082 0.18522357940673828
      vertex 0.1360670030117035 0.019769996404648778 0.20053863525390625
      vertex 0.17523202300071716 0.017012998461724278 0.1843852996826172
    endloop
  endfacet
  facet normal -0.26843797382185147 -0.8206035736157239 0.5045303055114948
    outer loop
      vertex 0.1361140012741089 0.020480997860432622 0.2017192840576172
      vertex 0.09619301557540894 0.02327900007367229 0.1850299835205078
      vertex 0.09697902202606201 0.022509999573231694 0.18419742584228516
    endloop
  endfacet
  facet normal -0.2685329309602938 -0.8204296767935959 0.5047625287461717
    outer loop
      vertex 0.1361140012741089 0.020480997860432622 0.2017192840576172
      vertex 0.09697902202606201 0.022509999573231694 0.18419742584228516
      vertex 0.1360670030117035 0.019769996404648778 0.20053863525390625
    endloop
  endfacet
  facet normal -0.5628686894331216 -0.7998920970477684 0.2082101619430803
    outer loop
      vertex 0.09619301557540894 0.02327900007367229 0.1850299835205078
      vertex 0.07973602414131165 0.024421997368336668 0.14493179321289062
      vertex 0.08086401224136353 0.02362899854779338 0.14493465423583984
    endloop
  endfacet
  facet normal -0.5624939021827446 -0.8001936519966019 0.2080642432316759
    outer loop
      vertex 0.09619301557540894 0.02327900007367229 0.1850299835205078
      vertex 0.08086401224136353 0.02362899854779338 0.14493465423583984
      vertex 0.09697902202606201 0.022509999573231694 0.18419742584228516
    endloop
  endfacet
  facet normal -0.5623044447529444 -0.7997539997000491 -0.2102552053454479
    outer loop
      vertex 0.07973602414131165 0.024421997368336668 0.14493179321289062
      vertex 0.0963820219039917 0.0232389979064474 0.10491371154785156
      vertex 0.09716302156448364 0.022469997406006803 0.10575008392333984
    endloop
  endfacet
  facet normal -0.5619295476525105 -0.8000653341670073 -0.21007295051786135
    outer loop
      vertex 0.07973602414131165 0.024421997368336668 0.14493179321289062
      vertex 0.09716302156448364 0.022469997406006803 0.10575008392333984
      vertex 0.08086401224136353 0.02362899854779338 0.14493465423583984
    endloop
  endfacet
  facet normal -0.2658900959404046 -0.8214895001611924 -0.5044377642541412
    outer loop
      vertex 0.0963820219039917 0.0232389979064474 0.10491371154785156
      vertex 0.13638100028038025 0.02042299881577586 0.08841609954833984
      vertex 0.13632801175117493 0.01971399784088229 0.0895986557006836
    endloop
  endfacet
  facet normal -0.266313281584224 -0.8205386306004089 -0.5057604094274755
    outer loop
      vertex 0.0963820219039917 0.0232389979064474 0.10491371154785156
      vertex 0.13632801175117493 0.01971399784088229 0.0895986557006836
      vertex 0.09716302156448364 0.022469997406006803 0.10575008392333984
    endloop
  endfacet
  facet normal 0.1509069719084383 -0.8506627728419547 -0.5035870656899986
    outer loop
      vertex 0.13638100028038025 0.02042299881577586 0.08841609954833984
      vertex 0.1763020157814026 0.01762499660253619 0.10510540008544922
      vertex 0.1754170060157776 0.016973998397589674 0.10593986511230469
    endloop
  endfacet
  facet normal 0.15078800700525233 -0.8508221358643498 -0.503353424609995
    outer loop
      vertex 0.13638100028038025 0.02042299881577586 0.08841609954833984
      vertex 0.1754170060157776 0.016973998397589674 0.10593986511230469
      vertex 0.13632801175117493 0.01971399784088229 0.0895986557006836
    endloop
  endfacet
  facet normal 0.44493854649579756 -0.8712026323851895 -0.20745038724312775
    outer loop
      vertex 0.1763020157814026 0.01762499660253619 0.10510540008544922
      vertex 0.19276002049446106 0.01648199930787181 0.1452045440673828
      vertex 0.1915310025215149 0.015854999423027982 0.1452016830444336
    endloop
  endfacet
  facet normal 0.4451084440916847 -0.8711015352752638 -0.20751045332550888
    outer loop
      vertex 0.1763020157814026 0.01762499660253619 0.10510540008544922
      vertex 0.1915310025215149 0.015854999423027982 0.1452016830444336
      vertex 0.1754170060157776 0.016973998397589674 0.10593986511230469
    endloop
  endfacet
  facet normal 0.44418825286464986 -0.8708502021588479 0.21051537097547926
    outer loop
      vertex 0.19276002049446106 0.01648199930787181 0.1452045440673828
      vertex 0.17611300945281982 0.017664998769761082 0.18522357940673828
      vertex 0.17523202300071716 0.017012998461724278 0.1843852996826172
    endloop
  endfacet
  facet normal 0.44388223737972876 -0.8710386807955403 0.21038102551497156
    outer loop
      vertex 0.19276002049446106 0.01648199930787181 0.1452045440673828
      vertex 0.17523202300071716 0.017012998461724278 0.1843852996826172
      vertex 0.1915310025215149 0.015854999423027982 0.1452016830444336
    endloop
  endfacet
  facet normal 0.09378105186967652 -0.9185048403449927 0.38412754727178383
    outer loop
      vertex 0.16986900568008423 0.009936999529601087 0.17947959899902344
      vertex 0.135670006275177 0.0123439989984045 0.19358444213867188
      vertex 0.13535702228546143 0.005818996578455915 0.17805862426757812
    endloop
  endfacet
  facet normal 0.09378643677792255 -0.9185293179697771 0.3840676975566638
    outer loop
      vertex 0.16986900568008423 0.009936999529601087 0.17947959899902344
      vertex 0.13535702228546143 0.005818996578455915 0.17805862426757812
      vertex 0.1585390269756317 0.004187997430563917 0.16849708557128906
    endloop
  endfacet
  facet normal -0.22241055892141598 -0.8971948967991656 0.38154273736738564
    outer loop
      vertex 0.135670006275177 0.0123439989984045 0.19358444213867188
      vertex 0.10153701901435852 0.014736998826266279 0.17931461334228516
      vertex 0.11222001910209656 0.007440999150277128 0.16838550567626953
    endloop
  endfacet
  facet normal -0.22241344248230682 -0.8971931826455182 0.38154508726699043
    outer loop
      vertex 0.135670006275177 0.0123439989984045 0.19358444213867188
      vertex 0.11222001910209656 0.007440999150277128 0.16838550567626953
      vertex 0.13535702228546143 0.005818996578455915 0.17805862426757812
    endloop
  endfacet
  facet normal -0.4427939912006285 -0.8828468458501718 0.1565724373222199
    outer loop
      vertex 0.10153701901435852 0.014736998826266279 0.17931461334228516
      vertex 0.08746600151062012 0.0157139971852312 0.14503002166748047
      vertex 0.10268202424049377 0.008102998137475004 0.14514636993408203
    endloop
  endfacet
  facet normal -0.4427693756848759 -0.8828586390200809 0.1565755519333578
    outer loop
      vertex 0.10153701901435852 0.014736998826266279 0.17931461334228516
      vertex 0.10268202424049377 0.008102998137475004 0.14514636993408203
      vertex 0.11222001910209656 0.007440999150277128 0.16838550567626953
    endloop
  endfacet
  facet normal -0.44080356582976704 -0.8837262890939718 -0.15722615022940764
    outer loop
      vertex 0.08746600151062012 0.0157139971852312 0.14503002166748047
      vertex 0.10169902443885803 0.014701999723912229 0.11081409454345703
      vertex 0.11232900619506836 0.007417999207974424 0.12195301055908203
    endloop
  endfacet
  facet normal -0.44082595489714826 -0.8837097725059698 -0.15725620962767964
    outer loop
      vertex 0.08746600151062012 0.0157139971852312 0.14503002166748047
      vertex 0.11232900619506836 0.007417999207974424 0.12195301055908203
      vertex 0.10268202424049377 0.008102998137475004 0.14514636993408203
    endloop
  endfacet
  facet normal -0.21943023342456763 -0.8991651686976506 -0.3786190328815568
    outer loop
      vertex 0.10169902443885803 0.014701999723912229 0.11081409454345703
      vertex 0.13589802384376526 0.012294996529818525 0.096710205078125
      vertex 0.13551101088523865 0.005785997956992139 0.11239242553710938
    endloop
  endfacet
  facet normal -0.2194353305648212 -0.899178408982611 -0.37858463323200015
    outer loop
      vertex 0.10169902443885803 0.014701999723912229 0.11081409454345703
      vertex 0.13551101088523865 0.005785997956992139 0.11239242553710938
      vertex 0.11232900619506836 0.007417999207974424 0.12195301055908203
    endloop
  endfacet
  facet normal 0.09419197384449868 -0.9203195435241712 -0.379657490207606
    outer loop
      vertex 0.13589802384376526 0.012294996529818525 0.096710205078125
      vertex 0.17003002762794495 0.009901996701956739 0.11097908020019531
      vertex 0.15864801406860352 0.004163999110461225 0.12206459045410156
    endloop
  endfacet
  facet normal 0.09419413760154652 -0.9203186405970153 -0.3796591421408984
    outer loop
      vertex 0.13589802384376526 0.012294996529818525 0.096710205078125
      vertex 0.15864801406860352 0.004163999110461225 0.12206459045410156
      vertex 0.13551101088523865 0.005785997956992139 0.11239242553710938
    endloop
  endfacet
  facet normal 0.3181979609085537 -0.9348971958616805 -0.15721733633287713
    outer loop
      vertex 0.17003002762794495 0.009901996701956739 0.11097908020019531
      vertex 0.18410199880599976 0.008925996720791807 0.145263671875
      vertex 0.1681860089302063 0.0035019963979730506 0.14530467987060547
    endloop
  endfacet
  facet normal 0.31818709314805527 -0.9349006870552827 -0.1572185710962632
    outer loop
      vertex 0.17003002762794495 0.009901996701956739 0.11097908020019531
      vertex 0.1681860089302063 0.0035019963979730506 0.14530467987060547
      vertex 0.15864801406860352 0.004163999110461225 0.12206459045410156
    endloop
  endfacet
  facet normal 0.31874740698247367 -0.9342043264914321 0.16019477802549845
    outer loop
      vertex 0.18410199880599976 0.008925996720791807 0.145263671875
      vertex 0.16986900568008423 0.009936999529601087 0.17947959899902344
      vertex 0.1585390269756317 0.004187997430563917 0.16849708557128906
    endloop
  endfacet
  facet normal 0.3187746472195504 -0.9341893686054972 0.16022779994281197
    outer loop
      vertex 0.18410199880599976 0.008925996720791807 0.145263671875
      vertex 0.1585390269756317 0.004187997430563917 0.16849708557128906
      vertex 0.1681860089302063 0.0035019963979730506 0.14530467987060547
    endloop
  endfacet
  facet normal 0.029223398123733303 -0.9711831506315081 0.23653600345731599
    outer loop
      vertex 0.13535702228546143 0.005818996578455915 0.17805862426757812
      vertex 0.13496601581573486 0.001299999654294004 0.15955257415771484
      vertex 0.14521601796150208 0.0005789995193490882 0.15532588958740234
    endloop
  endfacet
  facet normal 0.02923346185526556 -0.9711818573456725 0.23654006990479742
    outer loop
      vertex 0.13535702228546143 0.005818996578455915 0.17805862426757812
      vertex 0.14521601796150208 0.0005789995193490882 0.15532588958740234
      vertex 0.1585390269756317 0.004187997430563917 0.16849708557128906
    endloop
  endfacet
  facet normal -0.166263485083257 -0.9571100837804876 0.2372693428441131
    outer loop
      vertex 0.11222001910209656 0.007440999150277128 0.16838550567626953
      vertex 0.1247360110282898 0.0020169988274583717 0.15527629852294922
      vertex 0.13496601581573486 0.001299999654294004 0.15955257415771484
    endloop
  endfacet
  facet normal -0.16627981831202304 -0.9571165567652432 0.23723178283688148
    outer loop
      vertex 0.11222001910209656 0.007440999150277128 0.16838550567626953
      vertex 0.13496601581573486 0.001299999654294004 0.15955257415771484
      vertex 0.13535702228546143 0.005818996578455915 0.17805862426757812
    endloop
  endfacet
  facet normal -0.30666220611849826 -0.9466677967426962 0.09888566098714673
    outer loop
      vertex 0.10268202424049377 0.008102998137475004 0.14514636993408203
      vertex 0.12051799893379211 0.0023099966347226997 0.14500045776367188
      vertex 0.1247360110282898 0.0020169988274583717 0.15527629852294922
    endloop
  endfacet
  facet normal -0.3066669549497329 -0.946665003048503 0.09889767815796587
    outer loop
      vertex 0.10268202424049377 0.008102998137475004 0.14514636993408203
      vertex 0.1247360110282898 0.0020169988274583717 0.15527629852294922
      vertex 0.11222001910209656 0.007440999150277128 0.16838550567626953
    endloop
  endfacet
  facet normal -0.308085944591614 -0.9460660254506754 -0.10021040980384834
    outer loop
      vertex 0.11232900619506836 0.007417999207974424 0.12195301055908203
      vertex 0.12478402256965637 0.0020069964230070014 0.13474559783935547
      vertex 0.12051799893379211 0.0023099966347226997 0.14500045776367188
    endloop
  endfacet
  facet normal -0.3080946870072111 -0.9460635652186454 -0.10020675827365333
    outer loop
      vertex 0.11232900619506836 0.007417999207974424 0.12195301055908203
      vertex 0.12051799893379211 0.0023099966347226997 0.14500045776367188
      vertex 0.10268202424049377 0.008102998137475004 0.14514636993408203
    endloop
  endfacet
  facet normal -0.16706831612326636 -0.955843392086686 -0.24176763131559612
    outer loop
      vertex 0.13551101088523865 0.005785997956992139 0.11239242553710938
      vertex 0.13503402471542358 0.0012850016355523963 0.13051700592041016
      vertex 0.12478402256965637 0.0020069964230070014 0.13474559783935547
    endloop
  endfacet
  facet normal -0.16698628873722646 -0.955866685391583 -0.24173220540978
    outer loop
      vertex 0.13551101088523865 0.005785997956992139 0.11239242553710938
      vertex 0.12478402256965637 0.0020069964230070014 0.13474559783935547
      vertex 0.11232900619506836 0.007417999207974424 0.12195301055908203
    endloop
  endfacet
  facet normal 0.03236491720908554 -0.9702209573015815 -0.24004959101579798
    outer loop
      vertex 0.15864801406860352 0.004163999110461225 0.12206459045410156
      vertex 0.14526399970054626 0.0005679950118074317 0.1347942352294922
      vertex 0.13503402471542358 0.0012850016355523963 0.13051700592041016
    endloop
  endfacet
  facet normal 0.03235015984517781 -0.9702120026700618 -0.24008776943638682
    outer loop
      vertex 0.15864801406860352 0.004163999110461225 0.12206459045410156
      vertex 0.13503402471542358 0.0012850016355523963 0.13051700592041016
      vertex 0.13551101088523865 0.005785997956992139 0.11239242553710938
    endloop
  endfacet
  facet normal 0.1703982737846524 -0.9804988042854101 -0.09791079146902887
    outer loop
      vertex 0.1681860089302063 0.0035019963979730506 0.14530467987060547
      vertex 0.14948201179504395 0.0002750009298334022 0.14506912231445312
      vertex 0.14526399970054626 0.0005679950118074317 0.1347942352294922
    endloop
  endfacet
  facet normal 0.1703731784809255 -0.9805089104008526 -0.09785324051271634
    outer loop
      vertex 0.1681860089302063 0.0035019963979730506 0.14530467987060547
      vertex 0.14526399970054626 0.0005679950118074317 0.1347942352294922
      vertex 0.15864801406860352 0.004163999110461225 0.12206459045410156
    endloop
  endfacet
  facet normal 0.16791035038917848 -0.9808278906804738 0.09890785153604235
    outer loop
      vertex 0.1585390269756317 0.004187997430563917 0.16849708557128906
      vertex 0.14521601796150208 0.0005789995193490882 0.15532588958740234
      vertex 0.14948201179504395 0.0002750009298334022 0.14506912231445312
    endloop
  endfacet
  facet normal 0.1679752014324838 -0.9808194563551168 0.09888137205242271
    outer loop
      vertex 0.1585390269756317 0.004187997430563917 0.16849708557128906
      vertex 0.14948201179504395 0.0002750009298334022 0.14506912231445312
      vertex 0.1681860089302063 0.0035019963979730506 0.14530467987060547
    endloop
  endfacet
  facet normal 0.24223741441149246 -0.6700494463568435 0.7016799658648678
    outer loop
      vertex 0.1360670030117035 0.019769996404648778 0.20053863525390625
      vertex 0.135670006275177 0.0123439989984045 0.19358444213867188
      vertex 0.16986900568008423 0.009936999529601087 0.17947959899902344
    endloop
  endfacet
  facet normal 0.2422330626370158 -0.6700554156012642 0.7016757679932439
    outer loop
      vertex 0.1360670030117035 0.019769996404648778 0.20053863525390625
      vertex 0.16986900568008423 0.009936999529601087 0.17947959899902344
      vertex 0.17523202300071716 0.017012998461724278 0.1843852996826172
    endloop
  endfacet
  facet normal -0.3356262226565353 -0.6342934028698449 0.6964387394028988
    outer loop
      vertex 0.09697902202606201 0.022509999573231694 0.18419742584228516
      vertex 0.10153701901435852 0.014736998826266279 0.17931461334228516
      vertex 0.135670006275177 0.0123439989984045 0.19358444213867188
    endloop
  endfacet
  facet normal -0.3356253230581893 -0.6342693596486336 0.6964610699335594
    outer loop
      vertex 0.09697902202606201 0.022509999573231694 0.18419742584228516
      vertex 0.135670006275177 0.0123439989984045 0.19358444213867188
      vertex 0.1360670030117035 0.019769996404648778 0.20053863525390625
    endloop
  endfacet
  facet normal -0.7376933928291988 -0.6118802536162633 0.28532615269309386
    outer loop
      vertex 0.08086401224136353 0.02362899854779338 0.14493465423583984
      vertex 0.08746600151062012 0.0157139971852312 0.14503002166748047
      vertex 0.10153701901435852 0.014736998826266279 0.17931461334228516
    endloop
  endfacet
  facet normal -0.737717435136125 -0.6118396238802488 0.28535111800421004
    outer loop
      vertex 0.08086401224136353 0.02362899854779338 0.14493465423583984
      vertex 0.10153701901435852 0.014736998826266279 0.17931461334228516
      vertex 0.09697902202606201 0.022509999573231694 0.18419742584228516
    endloop
  endfacet
  facet normal -0.7338624332655361 -0.615664178915341 -0.28706018156840524
    outer loop
      vertex 0.09716302156448364 0.022469997406006803 0.10575008392333984
      vertex 0.10169902443885803 0.014701999723912229 0.11081409454345703
      vertex 0.08746600151062012 0.0157139971852312 0.14503002166748047
    endloop
  endfacet
  facet normal -0.7339028880478926 -0.6156152235540002 -0.2870617484854447
    outer loop
      vertex 0.09716302156448364 0.022469997406006803 0.10575008392333984
      vertex 0.08746600151062012 0.0157139971852312 0.14503002166748047
      vertex 0.08086401224136353 0.02362899854779338 0.14493465423583984
    endloop
  endfacet
  facet normal -0.3301983126864398 -0.6431341087957378 -0.6909034609860774
    outer loop
      vertex 0.13632801175117493 0.01971399784088229 0.0895986557006836
      vertex 0.13589802384376526 0.012294996529818525 0.096710205078125
      vertex 0.10169902443885803 0.014701999723912229 0.11081409454345703
    endloop
  endfacet
  facet normal -0.330171626595104 -0.6431823559850067 -0.690871300562644
    outer loop
      vertex 0.13632801175117493 0.01971399784088229 0.0895986557006836
      vertex 0.10169902443885803 0.014701999723912229 0.11081409454345703
      vertex 0.09716302156448364 0.022469997406006803 0.10575008392333984
    endloop
  endfacet
  facet normal 0.24228561324569517 -0.6786253923291444 -0.6933723808317377
    outer loop
      vertex 0.1754170060157776 0.016973998397589674 0.10593986511230469
      vertex 0.17003002762794495 0.009901996701956739 0.11097908020019531
      vertex 0.13589802384376526 0.012294996529818525 0.096710205078125
    endloop
  endfacet
  facet normal 0.24228267173288487 -0.6786542649727199 -0.6933451489787121
    outer loop
      vertex 0.1754170060157776 0.016973998397589674 0.10593986511230469
      vertex 0.13589802384376526 0.012294996529818525 0.096710205078125
      vertex 0.13632801175117493 0.01971399784088229 0.0895986557006836
    endloop
  endfacet
  facet normal 0.6519734489186062 -0.7015929517299387 -0.2875725160512547
    outer loop
      vertex 0.1915310025215149 0.015854999423027982 0.1452016830444336
      vertex 0.18410199880599976 0.008925996720791807 0.145263671875
      vertex 0.17003002762794495 0.009901996701956739 0.11097908020019531
    endloop
  endfacet
  facet normal 0.6519926839076806 -0.7015683702370524 -0.2875888767212413
    outer loop
      vertex 0.1915310025215149 0.015854999423027982 0.1452016830444336
      vertex 0.17003002762794495 0.009901996701956739 0.11097908020019531
      vertex 0.1754170060157776 0.016973998397589674 0.10593986511230469
    endloop
  endfacet
  facet normal 0.653536324569475 -0.6981004696451508 0.29248248964586193
    outer loop
      vertex 0.17523202300071716 0.017012998461724278 0.1843852996826172
      vertex 0.16986900568008423 0.009936999529601087 0.17947959899902344
      vertex 0.18410199880599976 0.008925996720791807 0.145263671875
    endloop
  endfacet
  facet normal 0.6535468158055474 -0.6980905136539695 0.2924828102585979
    outer loop
      vertex 0.17523202300071716 0.017012998461724278 0.1843852996826172
      vertex 0.18410199880599976 0.008925996720791807 0.145263671875
      vertex 0.1915310025215149 0.015854999423027982 0.1452016830444336
    endloop
  endfacet
  facet normal -0.029484141042906097 -0.9946980748701307 0.0985211920178477
    outer loop
      vertex 0.1351260244846344 0.0003169998526582618 0.14966106414794922
      vertex 0.13829001784324646 0.0000939965248117347 0.14835643768310547
      vertex 0.14521601796150208 0.0005789995193490882 0.15532588958740234
    endloop
  endfacet
  facet normal -0.029402901294242254 -0.9947147249275587 0.09837726062343875
    outer loop
      vertex 0.1351260244846344 0.0003169998526582618 0.14966106414794922
      vertex 0.14521601796150208 0.0005789995193490882 0.15532588958740234
      vertex 0.13496601581573486 0.001299999654294004 0.15955257415771484
    endloop
  endfacet
  facet normal -0.10957923352599633 -0.9892787294470554 0.0965400799848167
    outer loop
      vertex 0.13196802139282227 0.0005379989743242164 0.14834117889404297
      vertex 0.1351260244846344 0.0003169998526582618 0.14966106414794922
      vertex 0.13496601581573486 0.001299999654294004 0.15955257415771484
    endloop
  endfacet
  facet normal -0.10970369067202065 -0.9892617997900368 0.09657220992146068
    outer loop
      vertex 0.13196802139282227 0.0005379989743242164 0.14834117889404297
      vertex 0.13496601581573486 0.001299999654294004 0.15955257415771484
      vertex 0.1247360110282898 0.0020169988274583717 0.15527629852294922
    endloop
  endfacet
  facet normal 0.028321249168706777 -0.9987399188098318 0.041430440756217345
    outer loop
      vertex 0.13829001784324646 0.0000939965248117347 0.14835643768310547
      vertex 0.1396070122718811 9.43689570931383e-16 0.14519023895263672
      vertex 0.14948201179504395 0.0002750009298334022 0.14506912231445312
    endloop
  endfacet
  facet normal 0.028304737524011206 -0.9987427236789241 0.04137407077024175
    outer loop
      vertex 0.13829001784324646 0.0000939965248117347 0.14835643768310547
      vertex 0.14948201179504395 0.0002750009298334022 0.14506912231445312
      vertex 0.14521601796150208 0.0005789995193490882 0.15532588958740234
    endloop
  endfacet
  facet normal -0.16388936248792868 -0.9856953352655526 0.039306270479785084
    outer loop
      vertex 0.13066601753234863 0.0006279945373544593 0.14516925811767578
      vertex 0.13196802139282227 0.0005379989743242164 0.14834117889404297
      vertex 0.1247360110282898 0.0020169988274583717 0.15527629852294922
    endloop
  endfacet
  facet normal -0.16402513949337805 -0.9856760294510285 0.03922395415856194
    outer loop
      vertex 0.13066601753234863 0.0006279945373544593 0.14516925811767578
      vertex 0.1247360110282898 0.0020169988274583717 0.15527629852294922
      vertex 0.12051799893379211 0.0023099966347226997 0.14500045776367188
    endloop
  endfacet
  facet normal 0.02713530045331141 -0.9988388737174861 -0.03980678108177268
    outer loop
      vertex 0.1396070122718811 9.43689570931383e-16 0.14519023895263672
      vertex 0.13830500841140747 0.00009100139141177133 0.14201927185058594
      vertex 0.14526399970054626 0.0005679950118074317 0.1347942352294922
    endloop
  endfacet
  facet normal 0.027328894871442744 -0.9988377907008071 -0.039701377470261784
    outer loop
      vertex 0.1396070122718811 9.43689570931383e-16 0.14519023895263672
      vertex 0.14526399970054626 0.0005679950118074317 0.1347942352294922
      vertex 0.14948201179504395 0.0002750009298334022 0.14506912231445312
    endloop
  endfacet
  facet normal -0.16276594848579104 -0.9859036791547329 -0.038745082819401803
    outer loop
      vertex 0.13198301196098328 0.0005349963903436561 0.14200305938720703
      vertex 0.13066601753234863 0.0006279945373544593 0.14516925811767578
      vertex 0.12051799893379211 0.0023099966347226997 0.14500045776367188
    endloop
  endfacet
  facet normal -0.1627200207501722 -0.9859184915763486 -0.03856063815448571
    outer loop
      vertex 0.13198301196098328 0.0005349963903436561 0.14200305938720703
      vertex 0.12051799893379211 0.0023099966347226997 0.14500045776367188
      vertex 0.12478402256965637 0.0020069964230070014 0.13474559783935547
    endloop
  endfacet
  facet normal -0.030033034314387162 -0.995047881815454 -0.09475088255234969
    outer loop
      vertex 0.13830500841140747 0.00009100139141177133 0.14201927185058594
      vertex 0.13514700531959534 0.0003120005130777259 0.1406993865966797
      vertex 0.13503402471542358 0.0012850016355523963 0.13051700592041016
    endloop
  endfacet
  facet normal -0.03013814079683569 -0.9950475528782826 -0.09472095850576762
    outer loop
      vertex 0.13830500841140747 0.00009100139141177133 0.14201927185058594
      vertex 0.13503402471542358 0.0012850016355523963 0.13051700592041016
      vertex 0.14526399970054626 0.0005679950118074317 0.1347942352294922
    endloop
  endfacet
  facet normal -0.10823220409093164 -0.9897300102298983 -0.09338252967201534
    outer loop
      vertex 0.13514700531959534 0.0003120005130777259 0.1406993865966797
      vertex 0.13198301196098328 0.0005349963903436561 0.14200305938720703
      vertex 0.12478402256965637 0.0020069964230070014 0.13474559783935547
    endloop
  endfacet
  facet normal -0.10823655625685791 -0.9897302427498 -0.09337502062156709
    outer loop
      vertex 0.13514700531959534 0.0003120005130777259 0.1406993865966797
      vertex 0.12478402256965637 0.0020069964230070014 0.13474559783935547
      vertex 0.13503402471542358 0.0012850016355523963 0.13051700592041016
    endloop
  endfacet
  facet normal -0.07019323904126386 -0.9975333754257287 0.0002722216891047131
    outer loop
      vertex 0.13513600826263428 0.0003139972686777015 0.14518070220947266
      vertex 0.13198301196098328 0.0005349963903436561 0.14200305938720703
      vertex 0.13514700531959534 0.0003120005130777259 0.1406993865966797
    endloop
  endfacet
  facet normal -0.06992341922469283 -0.9975523249302461 0.0002728922648197411
    outer loop
      vertex 0.13513600826263428 0.0003139972686777015 0.14518070220947266
      vertex 0.13514700531959534 0.0003120005130777259 0.1406993865966797
      vertex 0.13830500841140747 0.00009100139141177133 0.14201927185058594
    endloop
  endfacet
  facet normal -0.0698904047891561 -0.9975546288758572 0.00030614826275901643
    outer loop
      vertex 0.13829001784324646 0.0000939965248117347 0.14835643768310547
      vertex 0.13513600826263428 0.0003139972686777015 0.14518070220947266
      vertex 0.13830500841140747 0.00009100139141177133 0.14201927185058594
    endloop
  endfacet
  facet normal -0.07046188014514627 -0.9975144262401046 0.0003047774366258556
    outer loop
      vertex 0.13829001784324646 0.0000939965248117347 0.14835643768310547
      vertex 0.13830500841140747 0.00009100139141177133 0.14201927185058594
      vertex 0.1396070122718811 9.43689570931383e-16 0.14519023895263672
    endloop
  endfacet
  facet normal -0.07022758107221268 -0.99753094835962 0.00030646615336250003
    outer loop
      vertex 0.13198301196098328 0.0005349963903436561 0.14200305938720703
      vertex 0.13513600826263428 0.0003139972686777015 0.14518070220947266
      vertex 0.13196802139282227 0.0005379989743242164 0.14834117889404297
    endloop
  endfacet
  facet normal -0.06970237112862016 -0.9975677845459322 0.00030772580130582374
    outer loop
      vertex 0.13198301196098328 0.0005349963903436561 0.14200305938720703
      vertex 0.13196802139282227 0.0005379989743242164 0.14834117889404297
      vertex 0.13066601753234863 0.0006279945373544593 0.14516925811767578
    endloop
  endfacet
  facet normal -0.07009697666722425 -0.997540050019804 0.0005123168958597751
    outer loop
      vertex 0.13513600826263428 0.0003139972686777015 0.14518070220947266
      vertex 0.13829001784324646 0.0000939965248117347 0.14835643768310547
      vertex 0.1351260244846344 0.0003169998526582618 0.14966106414794922
    endloop
  endfacet
  facet normal -0.07002306115795026 -0.9975452412122013 0.0005124850838402743
    outer loop
      vertex 0.13513600826263428 0.0003139972686777015 0.14518070220947266
      vertex 0.1351260244846344 0.0003169998526582618 0.14966106414794922
      vertex 0.13196802139282227 0.0005379989743242164 0.14834117889404297
    endloop
  endfacet
  facet normal 0.4442270101271276 -0.8708267028375691 0.21053079845609565
    outer loop
      vertex 0.17611300945281982 0.017664998769761082 0.18522357940673828
      vertex 0.19276002049446106 0.01648199930787181 0.1452045440673828
      vertex 0.24048900604248047 0.040853997692466726 0.14530563354492188
    endloop
  endfacet
  facet normal 0.4442236888288426 -0.8708301803855051 0.21052342200582874
    outer loop
      vertex 0.17611300945281982 0.017664998769761082 0.18522357940673828
      vertex 0.24048900604248047 0.040853997692466726 0.14530563354492188
      vertex 0.2103550136089325 0.04299599863588905 0.21775150299072266
    endloop
  endfacet
  facet normal 0.4451973884805253 -0.8710461437567897 -0.20755216389271014
    outer loop
      vertex 0.19276002049446106 0.01648199930787181 0.1452045440673828
      vertex 0.1763020157814026 0.01762499660253619 0.10510540008544922
      vertex 0.2106960117816925 0.04292199760675525 0.07271480560302734
    endloop
  endfacet
  facet normal 0.4452197829600218 -0.8710368274046194 -0.20754322481335366
    outer loop
      vertex 0.19276002049446106 0.01648199930787181 0.1452045440673828
      vertex 0.2106960117816925 0.04292199760675525 0.07271480560302734
      vertex 0.24048900604248047 0.040853997692466726 0.14530563354492188
    endloop
  endfacet
  facet normal 0.15103645612995784 -0.8504750051670066 -0.5038653138546882
    outer loop
      vertex 0.1763020157814026 0.01762499660253619 0.10510540008544922
      vertex 0.13638100028038025 0.02042299881577586 0.08841609954833984
      vertex 0.1384270191192627 0.04798799753189181 0.042502403259277344
    endloop
  endfacet
  facet normal 0.15102305094755 -0.8504805867207396 -0.5038599107823923
    outer loop
      vertex 0.1763020157814026 0.01762499660253619 0.10510540008544922
      vertex 0.1384270191192627 0.04798799753189181 0.042502403259277344
      vertex 0.2106960117816925 0.04292199760675525 0.07271480560302734
    endloop
  endfacet
  facet normal -0.2660349703380282 -0.8211959948306371 -0.5048391155916552
    outer loop
      vertex 0.13638100028038025 0.02042299881577586 0.08841609954833984
      vertex 0.0963820219039917 0.0232389979064474 0.10491371154785156
      vertex 0.06601601839065552 0.053084998391569604 0.07236671447753906
    endloop
  endfacet
  facet normal -0.2660234043589109 -0.8211838108764062 -0.5048650285846683
    outer loop
      vertex 0.13638100028038025 0.02042299881577586 0.08841609954833984
      vertex 0.06601601839065552 0.053084998391569604 0.07236671447753906
      vertex 0.1384270191192627 0.04798799753189181 0.042502403259277344
    endloop
  endfacet
endsolid Standard Female Figure
