solid Standard Female Figure
  facet normal -0.07004455112263926 0.9975438262356936 -0.00027494923208266697
    outer loop
      vertex 0.13569600880146027 0.2675839960575113 0.12642669677734375
      vertex 0.12261499464511871 0.26666699349880313 0.1318950653076172
      vertex 0.11722300946712494 0.26629200577735995 0.1450338363647461
    endloop
  endfacet
  facet normal -0.07008727145829186 0.9975408129637129 -0.0003175708207719776
    outer loop
      vertex 0.13569600880146027 0.2675839960575113 0.12642669677734375
      vertex 0.11722300946712494 0.26629200577735995 0.1450338363647461
      vertex 0.1357399970293045 0.2675929963588724 0.1449899673461914
    endloop
  endfacet
  facet normal -0.07000800764025938 0.9975463499862539 -0.0003981147369493865
    outer loop
      vertex 0.15425701439380646 0.26889400184154605 0.1449451446533203
      vertex 0.1488030105829239 0.26850600540638064 0.13183212280273438
      vertex 0.13569600880146027 0.2675839960575113 0.12642669677734375
    endloop
  endfacet
  facet normal -0.0700879742870386 0.9975407635832164 -0.00031756913138078344
    outer loop
      vertex 0.15425701439380646 0.26889400184154605 0.1449451446533203
      vertex 0.13569600880146027 0.2675839960575113 0.12642669677734375
      vertex 0.1357399970293045 0.2675929963588724 0.1449899673461914
    endloop
  endfacet
  facet normal -0.07009124555625831 0.9975405140695277 -0.00037428101024218304
    outer loop
      vertex 0.13578401505947113 0.2676029950380335 0.16355133056640625
      vertex 0.1488640159368515 0.26851999759674167 0.15808391571044922
      vertex 0.15425701439380646 0.26889400184154605 0.1449451446533203
    endloop
  endfacet
  facet normal -0.07008810204286041 0.9975407361124263 -0.0003711445920602029
    outer loop
      vertex 0.13578401505947113 0.2676029950380335 0.16355133056640625
      vertex 0.15425701439380646 0.26889400184154605 0.1449451446533203
      vertex 0.1357399970293045 0.2675929963588724 0.1449899673461914
    endloop
  endfacet
  facet normal -0.07008739646863975 0.9975407856858173 -0.000371146292024307
    outer loop
      vertex 0.13578401505947113 0.2676029950380335 0.16355133056640625
      vertex 0.1357399970293045 0.2675929963588724 0.1449899673461914
      vertex 0.11722300946712494 0.26629200577735995 0.1450338363647461
    endloop
  endfacet
  facet normal -0.07009794412804157 0.9975400484457551 -0.000360521653685411
    outer loop
      vertex 0.13578401505947113 0.2676029950380335 0.16355133056640625
      vertex 0.11722300946712494 0.26629200577735995 0.1450338363647461
      vertex 0.12267701327800751 0.26668000221252536 0.15814685821533203
    endloop
  endfacet
  facet normal -0.1486236520066326 -0.8499639232261924 0.5054427161193946
    outer loop
      vertex 0.15140299499034882 0.04809500090777969 0.24762630462646484
      vertex 0.07898899912834167 0.042998000979424474 0.21776199340820312
      vertex 0.11323200166225433 0.01766600087285137 0.18523216247558594
    endloop
  endfacet
  facet normal -0.14862379990465194 -0.8499638614698583 0.505442776481324
    outer loop
      vertex 0.15140299499034882 0.04809500090777969 0.24762630462646484
      vertex 0.11323200166225433 0.01766600087285137 0.18523216247558594
      vertex 0.15323300659656525 0.020481999963522908 0.20172977447509766
    endloop
  endfacet
  facet normal 0.268405361239958 -0.8206668815533479 0.5044446764305783
    outer loop
      vertex 0.22367601096630096 0.05316100083291626 0.21741294860839844
      vertex 0.15140299499034882 0.04809500090777969 0.24762630462646484
      vertex 0.15323300659656525 0.020481999963522908 0.20172977447509766
    endloop
  endfacet
  facet normal 0.2684162506408423 -0.8206785013997032 0.5044199775308762
    outer loop
      vertex 0.22367601096630096 0.05316100083291626 0.21741294860839844
      vertex 0.15323300659656525 0.020481999963522908 0.20172977447509766
      vertex 0.19315598905086517 0.023281000554562566 0.18503952026367188
    endloop
  endfacet
  facet normal 0.5625883652911874 -0.8001153203799661 0.20811007984298546
    outer loop
      vertex 0.2534710019826889 0.05522900074720477 0.14481830596923828
      vertex 0.22367601096630096 0.05316100083291626 0.21741294860839844
      vertex 0.19315598905086517 0.023281000554562566 0.18503952026367188
    endloop
  endfacet
  facet normal 0.5625940426500304 -0.8001074976687491 0.20812480714453227
    outer loop
      vertex 0.2534710019826889 0.05522900074720477 0.14481830596923828
      vertex 0.19315598905086517 0.023281000554562566 0.18503952026367188
      vertex 0.20961500704288483 0.024422999471426954 0.14493846893310547
    endloop
  endfacet
  facet normal 0.5616025107041801 -0.8003266989423456 -0.20995188718087168
    outer loop
      vertex 0.22333501279354095 0.053088000975550165 0.07236862182617188
      vertex 0.2534710019826889 0.05522900074720477 0.14481830596923828
      vertex 0.20961500704288483 0.024422999471426954 0.14493846893310547
    endloop
  endfacet
  facet normal 0.5616099640208787 -0.8003222947941977 -0.20994873842873346
    outer loop
      vertex 0.22333501279354095 0.053088000975550165 0.07236862182617188
      vertex 0.20961500704288483 0.024422999471426954 0.14493846893310547
      vertex 0.1929679960012436 0.023240000009537687 0.10491752624511719
    endloop
  endfacet
  facet normal -0.14134958159112881 0.9741052750732621 0.1764630523890403
    outer loop
      vertex 0.09716899693012238 0.25823900103569125 0.1843109130859375
      vertex 0.13633601367473602 0.26099599897861575 0.20046520233154297
      vertex 0.13578401505947113 0.2676029950380335 0.16355133056640625
    endloop
  endfacet
  facet normal -0.1413545740962325 0.9741061605214315 0.1764541651995427
    outer loop
      vertex 0.09716899693012238 0.25823900103569125 0.1843109130859375
      vertex 0.13578401505947113 0.2676029950380335 0.16355133056640625
      vertex 0.12267701327800751 0.26668000221252536 0.15814685821533203
    endloop
  endfacet
  facet normal 0.004603954195673949 0.984358780783403 0.17611528695822104
    outer loop
      vertex 0.13633601367473602 0.26099599897861575 0.20046520233154297
      vertex 0.17542599141597748 0.26373700797557925 0.18412303924560547
      vertex 0.1488640159368515 0.26851999759674167 0.15808391571044922
    endloop
  endfacet
  facet normal 0.004605357435786386 0.9843587024923807 0.17611568786001225
    outer loop
      vertex 0.13633601367473602 0.26099599897861575 0.20046520233154297
      vertex 0.1488640159368515 0.26851999759674167 0.15808391571044922
      vertex 0.13578401505947113 0.2676029950380335 0.16355133056640625
    endloop
  endfacet
  facet normal 0.10758361763900053 0.99155721271487 0.07238825269906417
    outer loop
      vertex 0.17542599141597748 0.26373700797557925 0.18412303924560547
      vertex 0.19154201447963715 0.26485499739647006 0.14485740661621094
      vertex 0.15425701439380646 0.26889400184154605 0.1449451446533203
    endloop
  endfacet
  facet normal 0.10758741494415149 0.9915569529855722 0.07238616671438618
    outer loop
      vertex 0.17542599141597748 0.26373700797557925 0.18412303924560547
      vertex 0.15425701439380646 0.26889400184154605 0.1449451446533203
      vertex 0.1488640159368515 0.26851999759674167 0.15808391571044922
    endloop
  endfacet
  facet normal 0.10722047387980072 0.9914849808598791 -0.0739006272657819
    outer loop
      vertex 0.19154201447963715 0.26485499739647006 0.14485740661621094
      vertex 0.17524199187755585 0.26369699835777377 0.10567188262939453
      vertex 0.1488030105829239 0.26850600540638064 0.13183212280273438
    endloop
  endfacet
  facet normal 0.1072310528417187 0.9914811692207616 -0.0739364077237197
    outer loop
      vertex 0.19154201447963715 0.26485499739647006 0.14485740661621094
      vertex 0.1488030105829239 0.26850600540638064 0.13183212280273438
      vertex 0.15425701439380646 0.26889400184154605 0.1449451446533203
    endloop
  endfacet
  facet normal 0.003774140808670458 0.984180613261881 -0.17712785309099177
    outer loop
      vertex 0.17524199187755585 0.26369699835777377 0.10567188262939453
      vertex 0.1360750049352646 0.26094000041484927 0.08951854705810547
      vertex 0.13569600880146027 0.2675839960575113 0.12642669677734375
    endloop
  endfacet
  facet normal 0.003798100885142556 0.9841884716322779 -0.17708367156738974
    outer loop
      vertex 0.17524199187755585 0.26369699835777377 0.10567188262939453
      vertex 0.13569600880146027 0.2675839960575113 0.12642669677734375
      vertex 0.1488030105829239 0.26850600540638064 0.13183212280273438
    endloop
  endfacet
  facet normal -0.14216856873355396 0.9739288071640909 -0.1767788919531507
    outer loop
      vertex 0.1360750049352646 0.26094000041484927 0.08951854705810547
      vertex 0.09698401391506195 0.25820000469684695 0.10586071014404297
      vertex 0.12261499464511871 0.26666699349880313 0.1318950653076172
    endloop
  endfacet
  facet normal -0.14217527445583109 0.9739274743629598 -0.17678084176288889
    outer loop
      vertex 0.1360750049352646 0.26094000041484927 0.08951854705810547
      vertex 0.12261499464511871 0.26666699349880313 0.1318950653076172
      vertex 0.13569600880146027 0.2675839960575113 0.12642669677734375
    endloop
  endfacet
  facet normal -0.24512355044552714 0.9667354841372676 -0.07305442304790222
    outer loop
      vertex 0.09698401391506195 0.25820000469684695 0.10586071014404297
      vertex 0.08086900413036346 0.25708100199699496 0.1451244354248047
      vertex 0.11722300946712494 0.26629200577735995 0.1450338363647461
    endloop
  endfacet
  facet normal -0.2451747260333719 0.9667246731090058 -0.07302574968288121
    outer loop
      vertex 0.09698401391506195 0.25820000469684695 0.10586071014404297
      vertex 0.11722300946712494 0.26629200577735995 0.1450338363647461
      vertex 0.12261499464511871 0.26666699349880313 0.1318950653076172
    endloop
  endfacet
  facet normal -0.24479273294238965 0.9668042135452517 0.0732538775065386
    outer loop
      vertex 0.08086900413036346 0.25708100199699496 0.1451244354248047
      vertex 0.09716899693012238 0.25823900103569125 0.1843109130859375
      vertex 0.12267701327800751 0.26668000221252536 0.15814685821533203
    endloop
  endfacet
  facet normal -0.2447783843429196 0.9668117567063843 0.07320225169204529
    outer loop
      vertex 0.08086900413036346 0.25708100199699496 0.1451244354248047
      vertex 0.12267701327800751 0.26668000221252536 0.15814685821533203
      vertex 0.11722300946712494 0.26629200577735995 0.1450338363647461
    endloop
  endfacet
  facet normal -0.26602018370450925 0.8211907977802192 0.5048553609727309
    outer loop
      vertex 0.06601999700069427 0.2276230007410059 0.2176980972290039
      vertex 0.1384340077638626 0.23272100090980624 0.24756240844726562
      vertex 0.13633601367473602 0.26099599897861575 0.20046520233154297
    endloop
  endfacet
  facet normal -0.26602558023918393 0.8211961794798064 0.5048437634220859
    outer loop
      vertex 0.06601999700069427 0.2276230007410059 0.2176980972290039
      vertex 0.13633601367473602 0.26099599897861575 0.20046520233154297
      vertex 0.09716899693012238 0.25823900103569125 0.1843109130859375
    endloop
  endfacet
  facet normal 0.1510252186252181 0.8504753684881141 0.5038680689766039
    outer loop
      vertex 0.1384340077638626 0.23272100090980624 0.24756240844726562
      vertex 0.21070699393749237 0.2377869933843622 0.21734905242919922
      vertex 0.17542599141597748 0.26373700797557925 0.18412303924560547
    endloop
  endfacet
  facet normal 0.1510113681380301 0.8504809856787686 0.5038627389398331
    outer loop
      vertex 0.1384340077638626 0.23272100090980624 0.24756240844726562
      vertex 0.17542599141597748 0.26373700797557925 0.18412303924560547
      vertex 0.13633601367473602 0.26099599897861575 0.20046520233154297
    endloop
  endfacet
  facet normal 0.4452091447585317 0.8710428641529856 0.20754070981747264
    outer loop
      vertex 0.21070699393749237 0.2377869933843622 0.21734905242919922
      vertex 0.2405020147562027 0.23985500633716678 0.14475440979003906
      vertex 0.19154201447963715 0.26485499739647006 0.14485740661621094
    endloop
  endfacet
  facet normal 0.44522160841953995 0.87103773501789 0.20753549954458914
    outer loop
      vertex 0.21070699393749237 0.2377869933843622 0.21734905242919922
      vertex 0.19154201447963715 0.26485499739647006 0.14485740661621094
      vertex 0.17542599141597748 0.26373700797557925 0.18412303924560547
    endloop
  endfacet
  facet normal 0.44422547006529856 0.8708287461926509 -0.21052559594928125
    outer loop
      vertex 0.2405020147562027 0.23985500633716678 0.14475440979003906
      vertex 0.21036599576473236 0.23771299421787356 0.07230472564697266
      vertex 0.17524199187755585 0.26369699835777377 0.10567188262939453
    endloop
  endfacet
  facet normal 0.4442221575622817 0.8708322967350747 -0.21051789874931345
    outer loop
      vertex 0.2405020147562027 0.23985500633716678 0.14475440979003906
      vertex 0.17524199187755585 0.26369699835777377 0.10567188262939453
      vertex 0.19154201447963715 0.26485499739647006 0.14485740661621094
    endloop
  endfacet
  facet normal 0.1486276672530879 0.8499669836841579 -0.5054363888500312
    outer loop
      vertex 0.21036599576473236 0.23771299421787356 0.07230472564697266
      vertex 0.1379520148038864 0.2326160073280344 0.04243946075439453
      vertex 0.1360750049352646 0.26094000041484927 0.08951854705810547
    endloop
  endfacet
  facet normal 0.14862561592609422 0.849964261820181 -0.5054415692432348
    outer loop
      vertex 0.21036599576473236 0.23771299421787356 0.07230472564697266
      vertex 0.1360750049352646 0.26094000041484927 0.08951854705810547
      vertex 0.17524199187755585 0.26369699835777377 0.10567188262939453
    endloop
  endfacet
  facet normal -0.2684101706983727 0.8206682940617167 -0.5044398193912748
    outer loop
      vertex 0.1379520148038864 0.2326160073280344 0.04243946075439453
      vertex 0.06567899882793427 0.22754999995231723 0.07265377044677734
      vertex 0.09698401391506195 0.25820000469684695 0.10586071014404297
    endloop
  endfacet
  facet normal -0.2684056296830715 0.8206709289421262 -0.5044379489527938
    outer loop
      vertex 0.1379520148038864 0.2326160073280344 0.04243946075439453
      vertex 0.09698401391506195 0.25820000469684695 0.10586071014404297
      vertex 0.1360750049352646 0.26094000041484927 0.08951854705810547
    endloop
  endfacet
  facet normal -0.5625938607475082 0.8001101146027102 -0.20811523817263217
    outer loop
      vertex 0.06567899882793427 0.22754999995231723 0.07265377044677734
      vertex 0.035884007811546326 0.22548200190067386 0.1452474594116211
      vertex 0.08086900413036346 0.25708100199699496 0.1451244354248047
    endloop
  endfacet
  facet normal -0.5626083831932414 0.8001015974975069 -0.20810872361009855
    outer loop
      vertex 0.06567899882793427 0.22754999995231723 0.07265377044677734
      vertex 0.08086900413036346 0.25708100199699496 0.1451244354248047
      vertex 0.09698401391506195 0.25820000469684695 0.10586071014404297
    endloop
  endfacet
  facet normal -0.5616005137828206 0.8003290586818365 0.20994823349653968
    outer loop
      vertex 0.035884007811546326 0.22548200190067386 0.1452474594116211
      vertex 0.06601999700069427 0.2276230007410059 0.2176980972290039
      vertex 0.09716899693012238 0.25823900103569125 0.1843109130859375
    endloop
  endfacet
  facet normal -0.5616024191115853 0.800326339323196 0.20995350302756985
    outer loop
      vertex 0.035884007811546326 0.22548200190067386 0.1452474594116211
      vertex 0.09716899693012238 0.25823900103569125 0.1843109130859375
      vertex 0.08086900413036346 0.25708100199699496 0.1451244354248047
    endloop
  endfacet
  facet normal -0.3528509412023326 0.5413838350497269 0.7631512015580387
    outer loop
      vertex 0.04687799513339996 0.18372400104999637 0.2399892807006836
      vertex 0.14148299396038055 0.19038300216198062 0.2790069580078125
      vertex 0.1384340077638626 0.23272100090980624 0.24756240844726562
    endloop
  endfacet
  facet normal -0.3528477090789405 0.541376792296452 0.7631576920666839
    outer loop
      vertex 0.04687799513339996 0.18372400104999637 0.2399892807006836
      vertex 0.1384340077638626 0.23272100090980624 0.24756240844726562
      vertex 0.06601999700069427 0.2276230007410059 0.2176980972290039
    endloop
  endfacet
  facet normal 0.2773621723358347 0.585633208470907 0.7616455675005388
    outer loop
      vertex 0.14148299396038055 0.19038300216198062 0.2790069580078125
      vertex 0.23590300977230072 0.1970019936561594 0.2395334243774414
      vertex 0.21070699393749237 0.2377869933843622 0.21734905242919922
    endloop
  endfacet
  facet normal 0.27734898810021724 0.5856459565280576 0.7616405664105098
    outer loop
      vertex 0.14148299396038055 0.19038300216198062 0.2790069580078125
      vertex 0.21070699393749237 0.2377869933843622 0.21734905242919922
      vertex 0.1384340077638626 0.23272100090980624 0.24756240844726562
    endloop
  endfacet
  facet normal 0.7219065135845882 0.6167151038768006 0.3138685493871146
    outer loop
      vertex 0.23590300977230072 0.1970019936561594 0.2395334243774414
      vertex 0.2748290151357651 0.1997040063142786 0.14469337463378906
      vertex 0.2405020147562027 0.23985500633716678 0.14475440979003906
    endloop
  endfacet
  facet normal 0.7219168553155739 0.6167050549521986 0.3138645077221667
    outer loop
      vertex 0.23590300977230072 0.1970019936561594 0.2395334243774414
      vertex 0.2405020147562027 0.23985500633716678 0.14475440979003906
      vertex 0.21070699393749237 0.2377869933843622 0.21734905242919922
    endloop
  endfacet
  facet normal 0.7204161098166318 0.6163990108960407 -0.31788816914609036
    outer loop
      vertex 0.2748290151357651 0.1997040063142786 0.14469337463378906
      vertex 0.23545800149440765 0.19690600037574862 0.05004310607910156
      vertex 0.21036599576473236 0.23771299421787356 0.07230472564697266
    endloop
  endfacet
  facet normal 0.720415386733368 0.6164006252090388 -0.3178866776065303
    outer loop
      vertex 0.2748290151357651 0.1997040063142786 0.14469337463378906
      vertex 0.21036599576473236 0.23771299421787356 0.07230472564697266
      vertex 0.2405020147562027 0.23985500633716678 0.14475440979003906
    endloop
  endfacet
  facet normal 0.2737394595398967 0.5848644686467952 -0.7635445380626509
    outer loop
      vertex 0.23545800149440765 0.19690600037574862 0.05004310607910156
      vertex 0.14085300266742706 0.19024699926376437 0.011025428771972656
      vertex 0.1379520148038864 0.2326160073280344 0.04243946075439453
    endloop
  endfacet
  facet normal 0.2737386080938941 0.5848616130340755 -0.7635470306654313
    outer loop
      vertex 0.23545800149440765 0.19690600037574862 0.05004310607910156
      vertex 0.1379520148038864 0.2326160073280344 0.04243946075439453
      vertex 0.21036599576473236 0.23771299421787356 0.07230472564697266
    endloop
  endfacet
  facet normal -0.3564659549048423 0.5405929033642868 -0.7620310596202426
    outer loop
      vertex 0.14085300266742706 0.19024699926376437 0.011025428771972656
      vertex 0.04643300175666809 0.183628000319005 0.050498008728027344
      vertex 0.06567899882793427 0.22754999995231723 0.07265377044677734
    endloop
  endfacet
  facet normal -0.35646626704260187 0.5405925026968262 -0.7620311978447432
    outer loop
      vertex 0.14085300266742706 0.19024699926376437 0.011025428771972656
      vertex 0.06567899882793427 0.22754999995231723 0.07265377044677734
      vertex 0.1379520148038864 0.2326160073280344 0.04243946075439453
    endloop
  endfacet
  facet normal -0.8010248098881901 0.5095143161341089 -0.3142521528931509
    outer loop
      vertex 0.04643300175666809 0.183628000319005 0.050498008728027344
      vertex 0.007506996393203735 0.180926002562047 0.1453390121459961
      vertex 0.035884007811546326 0.22548200190067386 0.1452474594116211
    endloop
  endfacet
  facet normal -0.801022841847733 0.5095168538856061 -0.3142530547897597
    outer loop
      vertex 0.04643300175666809 0.183628000319005 0.050498008728027344
      vertex 0.035884007811546326 0.22548200190067386 0.1452474594116211
      vertex 0.06567899882793427 0.22754999995231723 0.07265377044677734
    endloop
  endfacet
  facet normal -0.7995267330528127 0.5098527472003047 0.3175014634709552
    outer loop
      vertex 0.007506996393203735 0.180926002562047 0.1453390121459961
      vertex 0.04687799513339996 0.18372400104999637 0.2399892807006836
      vertex 0.06601999700069427 0.2276230007410059 0.2176980972290039
    endloop
  endfacet
  facet normal -0.7995253739494403 0.5098574546955986 0.3174973264491109
    outer loop
      vertex 0.007506996393203735 0.180926002562047 0.1453390121459961
      vertex 0.06601999700069427 0.2276230007410059 0.2176980972290039
      vertex 0.035884007811546326 0.22548200190067386 0.1452474594116211
    endloop
  endfacet
  facet normal -0.38589833491191156 0.17332171414771758 0.9061137116924736
    outer loop
      vertex 0.042615994811058044 0.13322100043296908 0.2478351593017578
      vertex 0.14501799643039703 0.14042899757623767 0.2900676727294922
      vertex 0.14148299396038055 0.19038300216198062 0.2790069580078125
    endloop
  endfacet
  facet normal -0.38590444523527684 0.17333509771590405 0.906108549262985
    outer loop
      vertex 0.042615994811058044 0.13322100043296908 0.2478351593017578
      vertex 0.14148299396038055 0.19038300216198062 0.2790069580078125
      vertex 0.04687799513339996 0.18372400104999637 0.2399892807006836
    endloop
  endfacet
  facet normal 0.36220718225864396 0.22589337818458458 0.9043108640354873
    outer loop
      vertex 0.14501799643039703 0.14042899757623767 0.2900676727294922
      vertex 0.24722100794315338 0.1475939974188814 0.24734210968017578
      vertex 0.23590300977230072 0.1970019936561594 0.2395334243774414
    endloop
  endfacet
  facet normal 0.36222569894730045 0.22586364082221538 0.9043108750737621
    outer loop
      vertex 0.14501799643039703 0.14042899757623767 0.2900676727294922
      vertex 0.23590300977230072 0.1970019936561594 0.2395334243774414
      vertex 0.14148299396038055 0.19038300216198062 0.2790069580078125
    endloop
  endfacet
  facet normal 0.8899514097721084 0.26276207046963274 0.37275002691770315
    outer loop
      vertex 0.24722100794315338 0.1475939974188814 0.24734210968017578
      vertex 0.28935499489307404 0.15051800012588595 0.1446847915649414
      vertex 0.2748290151357651 0.1997040063142786 0.14469337463378906
    endloop
  endfacet
  facet normal 0.8899460218166485 0.26277387401616586 0.37275456990794587
    outer loop
      vertex 0.24722100794315338 0.1475939974188814 0.24734210968017578
      vertex 0.2748290151357651 0.1997040063142786 0.14469337463378906
      vertex 0.23590300977230072 0.1970019936561594 0.2395334243774414
    endloop
  endfacet
  facet normal 0.8881850653029809 0.26238759742080353 -0.3772002631129487
    outer loop
      vertex 0.28935499489307404 0.15051800012588595 0.1446847915649414
      vertex 0.24673901498317719 0.14749000221490954 0.04223155975341797
      vertex 0.23545800149440765 0.19690600037574862 0.05004310607910156
    endloop
  endfacet
  facet normal 0.8881861877607167 0.262371621375987 -0.3772087328888623
    outer loop
      vertex 0.28935499489307404 0.15051800012588595 0.1446847915649414
      vertex 0.23545800149440765 0.19690600037574862 0.05004310607910156
      vertex 0.2748290151357651 0.1997040063142786 0.14469337463378906
    endloop
  endfacet
  facet normal 0.35791581309493126 0.22493441891238958 -0.9062564636597853
    outer loop
      vertex 0.24673901498317719 0.14749000221490954 0.04223155975341797
      vertex 0.1443370133638382 0.14028199762106036 0
      vertex 0.14085300266742706 0.19024699926376437 0.011025428771972656
    endloop
  endfacet
  facet normal 0.3579252479965204 0.22496627482812398 -0.9062448300744045
    outer loop
      vertex 0.24673901498317719 0.14749000221490954 0.04223155975341797
      vertex 0.14085300266742706 0.19024699926376437 0.011025428771972656
      vertex 0.23545800149440765 0.19690600037574862 0.05004310607910156
    endloop
  endfacet
  facet normal -0.3901884231212438 0.17238303221311824 -0.904454025734403
    outer loop
      vertex 0.1443370133638382 0.14028199762106036 0
      vertex 0.04213400185108185 0.13311699777841662 0.042725563049316406
      vertex 0.04643300175666809 0.183628000319005 0.050498008728027344
    endloop
  endfacet
  facet normal -0.39019341085198617 0.172371762149713 -0.9044540219055338
    outer loop
      vertex 0.1443370133638382 0.14028199762106036 0
      vertex 0.04643300175666809 0.183628000319005 0.050498008728027344
      vertex 0.14085300266742706 0.19024699926376437 0.011025428771972656
    endloop
  endfacet
  facet normal -0.9179263679370837 0.135510755599784 -0.3728914294571664
    outer loop
      vertex 0.04213400185108185 0.13311699777841662 0.042725563049316406
      vertex 0 0.13019300252199267 0.14538192749023438
      vertex 0.007506996393203735 0.180926002562047 0.1453390121459961
    endloop
  endfacet
  facet normal -0.9179284284867123 0.13550380079055385 -0.3728888844511576
    outer loop
      vertex 0.04213400185108185 0.13311699777841662 0.042725563049316406
      vertex 0.007506996393203735 0.180926002562047 0.1453390121459961
      vertex 0.04643300175666809 0.183628000319005 0.050498008728027344
    endloop
  endfacet
  facet normal -0.9161623396940204 0.13589493622440751 0.37706648436972284
    outer loop
      vertex 0 0.13019300252199267 0.14538192749023438
      vertex 0.042615994811058044 0.13322100043296908 0.2478351593017578
      vertex 0.04687799513339996 0.18372400104999637 0.2399892807006836
    endloop
  endfacet
  facet normal -0.9161615727817526 0.13588401639665748 0.37707228305190815
    outer loop
      vertex 0 0.13019300252199267 0.14538192749023438
      vertex 0.04687799513339996 0.18372400104999637 0.2399892807006836
      vertex 0.007506996393203735 0.180926002562047 0.1453390121459961
    endloop
  endfacet
  facet normal -0.3579275746270918 -0.22495063976150573 0.9062477922690112
    outer loop
      vertex 0.053897008299827576 0.08380500040948485 0.24002361297607422
      vertex 0.14850200712680817 0.09046399965882397 0.2790412902832031
      vertex 0.14501799643039703 0.14042899757623767 0.2900676727294922
    endloop
  endfacet
  facet normal -0.3579185133202224 -0.22496519187130765 0.906247758766303
    outer loop
      vertex 0.053897008299827576 0.08380500040948485 0.24002361297607422
      vertex 0.14501799643039703 0.14042899757623767 0.2900676727294922
      vertex 0.042615994811058044 0.13322100043296908 0.2478351593017578
    endloop
  endfacet
  facet normal 0.39019324089443114 -0.17239984629394628 0.9044487424714152
    outer loop
      vertex 0.14850200712680817 0.09046399965882397 0.2790412902832031
      vertex 0.24292199313640594 0.09708300232887362 0.23956871032714844
      vertex 0.24722100794315338 0.1475939974188814 0.24734210968017578
    endloop
  endfacet
  facet normal 0.3901883736014552 -0.17238913815563664 0.9044528833235085
    outer loop
      vertex 0.14850200712680817 0.09046399965882397 0.2790412902832031
      vertex 0.24722100794315338 0.1475939974188814 0.24734210968017578
      vertex 0.14501799643039703 0.14042899757623767 0.2900676727294922
    endloop
  endfacet
  facet normal 0.9179271164876887 -0.13550385620954436 0.3728920940016565
    outer loop
      vertex 0.24292199313640594 0.09708300232887362 0.23956871032714844
      vertex 0.2818479984998703 0.09978500008583163 0.1447286605834961
      vertex 0.28935499489307404 0.15051800012588595 0.1446847915649414
    endloop
  endfacet
  facet normal 0.9179275983512017 -0.13551097455289793 0.37288832103046443
    outer loop
      vertex 0.24292199313640594 0.09708300232887362 0.23956871032714844
      vertex 0.28935499489307404 0.15051800012588595 0.1446847915649414
      vertex 0.24722100794315338 0.1475939974188814 0.24734210968017578
    endloop
  endfacet
  facet normal 0.9161638570259468 -0.13588777230597632 -0.3770653794994441
    outer loop
      vertex 0.2818479984998703 0.09978500008583163 0.1447286605834961
      vertex 0.24247701466083527 0.09698700159788226 0.05007648468017578
      vertex 0.24673901498317719 0.14749000221490954 0.04223155975341797
    endloop
  endfacet
  facet normal 0.9161628112528079 -0.1358912829581187 -0.37706665523929417
    outer loop
      vertex 0.2818479984998703 0.09978500008583163 0.1447286605834961
      vertex 0.24673901498317719 0.14749000221490954 0.04223155975341797
      vertex 0.28935499489307404 0.15051800012588595 0.1446847915649414
    endloop
  endfacet
  facet normal 0.38589689067633953 -0.1733053717668071 -0.9061174525871918
    outer loop
      vertex 0.24247701466083527 0.09698700159788226 0.05007648468017578
      vertex 0.14787201583385468 0.09032800048589801 0.011059761047363281
      vertex 0.1443370133638382 0.14028199762106036 0
    endloop
  endfacet
  facet normal 0.3858911927327764 -0.17331824624090345 -0.9061174167243738
    outer loop
      vertex 0.24247701466083527 0.09698700159788226 0.05007648468017578
      vertex 0.1443370133638382 0.14028199762106036 0
      vertex 0.24673901498317719 0.14749000221490954 0.04223155975341797
    endloop
  endfacet
  facet normal -0.36221599424640377 -0.22585414946860913 -0.9043171328023705
    outer loop
      vertex 0.14787201583385468 0.09032800048589801 0.011059761047363281
      vertex 0.05345100164413452 0.08370899967849349 0.05053234100341797
      vertex 0.04213400185108185 0.13311699777841662 0.042725563049316406
    endloop
  endfacet
  facet normal -0.36221403892766774 -0.22584751105385822 -0.904319573908739
    outer loop
      vertex 0.14787201583385468 0.09032800048589801 0.011059761047363281
      vertex 0.04213400185108185 0.13311699777841662 0.042725563049316406
      vertex 0.1443370133638382 0.14028199762106036 0
    endloop
  endfacet
  facet normal -0.8899540882507398 -0.26275592411286575 -0.37274796464821686
    outer loop
      vertex 0.05345100164413452 0.08370899967849349 0.05053234100341797
      vertex 0.014525994658470154 0.08100700005889033 0.1453723907470703
      vertex 0 0.13019300252199267 0.14538192749023438
    endloop
  endfacet
  facet normal -0.889954989640622 -0.2627435409013255 -0.372754541392045
    outer loop
      vertex 0.05345100164413452 0.08370899967849349 0.05053234100341797
      vertex 0 0.13019300252199267 0.14538192749023438
      vertex 0.04213400185108185 0.13311699777841662 0.042725563049316406
    endloop
  endfacet
  facet normal -0.8881833270555857 -0.2623878139142775 0.3772042055038054
    outer loop
      vertex 0.014525994658470154 0.08100700005889033 0.1453723907470703
      vertex 0.053897008299827576 0.08380500040948485 0.24002361297607422
      vertex 0.042615994811058044 0.13322100043296908 0.2478351593017578
    endloop
  endfacet
  facet normal -0.888187137244944 -0.26237950299424034 0.3772010148993852
    outer loop
      vertex 0.014525994658470154 0.08100700005889033 0.1453723907470703
      vertex 0.042615994811058044 0.13322100043296908 0.2478351593017578
      vertex 0 0.13019300252199267 0.14538192749023438
    endloop
  endfacet
  facet normal -0.2737243911648492 -0.5848774082234741 0.7635400284406995
    outer loop
      vertex 0.07898899912834167 0.042998000979424474 0.21776199340820312
      vertex 0.15140299499034882 0.04809500090777969 0.24762630462646484
      vertex 0.14850200712680817 0.09046399965882397 0.2790412902832031
    endloop
  endfacet
  facet normal -0.2737403044954902 -0.5848619877362308 0.7635461354731237
    outer loop
      vertex 0.07898899912834167 0.042998000979424474 0.21776199340820312
      vertex 0.14850200712680817 0.09046399965882397 0.2790412902832031
      vertex 0.053897008299827576 0.08380500040948485 0.24002361297607422
    endloop
  endfacet
  facet normal 0.35645797898554415 -0.5405916095741938 0.7620357083992351
    outer loop
      vertex 0.15140299499034882 0.04809500090777969 0.24762630462646484
      vertex 0.22367601096630096 0.05316100083291626 0.21741294860839844
      vertex 0.24292199313640594 0.09708300232887362 0.23956871032714844
    endloop
  endfacet
  facet normal 0.35646382589963793 -0.5406044849753421 0.762023839292143
    outer loop
      vertex 0.15140299499034882 0.04809500090777969 0.24762630462646484
      vertex 0.24292199313640594 0.09708300232887362 0.23956871032714844
      vertex 0.14850200712680817 0.09046399965882397 0.2790412902832031
    endloop
  endfacet
  facet normal 0.8010201150604721 -0.5095245198647508 0.3142475758460254
    outer loop
      vertex 0.22367601096630096 0.05316100083291626 0.21741294860839844
      vertex 0.2534710019826889 0.05522900074720477 0.14481830596923828
      vertex 0.2818479984998703 0.09978500008583163 0.1447286605834961
    endloop
  endfacet
  facet normal 0.8010223361516222 -0.5095169282930343 0.3142542231522572
    outer loop
      vertex 0.22367601096630096 0.05316100083291626 0.21741294860839844
      vertex 0.2818479984998703 0.09978500008583163 0.1447286605834961
      vertex 0.24292199313640594 0.09708300232887362 0.23956871032714844
    endloop
  endfacet
  facet normal 0.7995236820960855 -0.5098579567615502 -0.3175007806202293
    outer loop
      vertex 0.2534710019826889 0.05522900074720477 0.14481830596923828
      vertex 0.22333501279354095 0.053088000975550165 0.07236862182617188
      vertex 0.24247701466083527 0.09698700159788226 0.05007648468017578
    endloop
  endfacet
  facet normal 0.7995317062870682 -0.5098476285398709 -0.3174971595368358
    outer loop
      vertex 0.2534710019826889 0.05522900074720477 0.14481830596923828
      vertex 0.24247701466083527 0.09698700159788226 0.05007648468017578
      vertex 0.2818479984998703 0.09978500008583163 0.1447286605834961
    endloop
  endfacet
  facet normal 0.3528572665533896 -0.5413708399790123 -0.7631574955806231
    outer loop
      vertex 0.22333501279354095 0.053088000975550165 0.07236862182617188
      vertex 0.15092100203037262 0.047989999875427236 0.04250335693359375
      vertex 0.14787201583385468 0.09032800048589801 0.011059761047363281
    endloop
  endfacet
  facet normal 0.352843634096254 -0.541388369267367 -0.7631513634265288
    outer loop
      vertex 0.22333501279354095 0.053088000975550165 0.07236862182617188
      vertex 0.14787201583385468 0.09032800048589801 0.011059761047363281
      vertex 0.24247701466083527 0.09698700159788226 0.05007648468017578
    endloop
  endfacet
  facet normal -0.27735662823758755 -0.5856488408815979 -0.761635566361444
    outer loop
      vertex 0.15092100203037262 0.047989999875427236 0.04250335693359375
      vertex 0.07864800095558167 0.04292399995029067 0.07271766662597656
      vertex 0.05345100164413452 0.08370899967849349 0.05053234100341797
    endloop
  endfacet
  facet normal -0.2773524327880259 -0.5856345849320599 -0.7616480558355133
    outer loop
      vertex 0.15092100203037262 0.047989999875427236 0.04250335693359375
      vertex 0.05345100164413452 0.08370899967849349 0.05053234100341797
      vertex 0.14787201583385468 0.09032800048589801 0.011059761047363281
    endloop
  endfacet
  facet normal -0.7219074478176398 -0.6167159082661763 -0.31386482006884237
    outer loop
      vertex 0.07864800095558167 0.04292399995029067 0.07271766662597656
      vertex 0.04885299503803253 0.04085600003600215 0.1453113555908203
      vertex 0.014525994658470154 0.08100700005889033 0.1453723907470703
    endloop
  endfacet
  facet normal -0.7219053516945443 -0.6167205385683803 -0.3138605430803681
    outer loop
      vertex 0.07864800095558167 0.04292399995029067 0.07271766662597656
      vertex 0.014525994658470154 0.08100700005889033 0.1453723907470703
      vertex 0.05345100164413452 0.08370899967849349 0.05053234100341797
    endloop
  endfacet
  facet normal -0.7204189830515068 -0.6163979743572024 0.3178836675064796
    outer loop
      vertex 0.04885299503803253 0.04085600003600215 0.1453113555908203
      vertex 0.07898899912834167 0.042998000979424474 0.21776199340820312
      vertex 0.053897008299827576 0.08380500040948485 0.24002361297607422
    endloop
  endfacet
  facet normal -0.7204158463166003 -0.6164010153951921 0.3178848794700887
    outer loop
      vertex 0.04885299503803253 0.04085600003600215 0.1453113555908203
      vertex 0.053897008299827576 0.08380500040948485 0.24002361297607422
      vertex 0.014525994658470154 0.08100700005889033 0.1453723907470703
    endloop
  endfacet
  facet normal -0.14865453108564125 -0.8499215636553642 0.5055048625100742
    outer loop
      vertex 0.114112988114357 0.017014000564814565 0.18439483642578125
      vertex 0.15328000485897064 0.019771002233029362 0.2005481719970703
      vertex 0.15323300659656525 0.020481999963522908 0.20172977447509766
    endloop
  endfacet
  facet normal -0.14862946954709783 -0.8499555398159638 0.5054551029698897
    outer loop
      vertex 0.114112988114357 0.017014000564814565 0.18439483642578125
      vertex 0.15323300659656525 0.020481999963522908 0.20172977447509766
      vertex 0.11323200166225433 0.01766600087285137 0.18523216247558594
    endloop
  endfacet
  facet normal 0.2685717410967612 -0.820337958069846 0.5048909332064203
    outer loop
      vertex 0.15328000485897064 0.019771002233029362 0.2005481719970703
      vertex 0.19237099587917328 0.02251100167632198 0.1842060089111328
      vertex 0.19315598905086517 0.023281000554562566 0.18503952026367188
    endloop
  endfacet
  facet normal 0.26843619139146996 -0.8206385403063658 0.5044743772631859
    outer loop
      vertex 0.15328000485897064 0.019771002233029362 0.2005481719970703
      vertex 0.19315598905086517 0.023281000554562566 0.18503952026367188
      vertex 0.15323300659656525 0.020481999963522908 0.20172977447509766
    endloop
  endfacet
  facet normal 0.5625466322996664 -0.8001532843697202 0.20807692808347034
    outer loop
      vertex 0.19237099587917328 0.02251100167632198 0.1842060089111328
      vertex 0.20848600566387177 0.023630000650883665 0.1449413299560547
      vertex 0.20961500704288483 0.024422999471426954 0.14493846893310547
    endloop
  endfacet
  facet normal 0.5631432600799894 -0.7996590080567075 0.2083629992590913
    outer loop
      vertex 0.19237099587917328 0.02251100167632198 0.1842060089111328
      vertex 0.20961500704288483 0.024422999471426954 0.14493846893310547
      vertex 0.19315598905086517 0.023281000554562566 0.18503952026367188
    endloop
  endfacet
  facet normal 0.5613103367868738 -0.8005635721008669 -0.20983010470689473
    outer loop
      vertex 0.20848600566387177 0.023630000650883665 0.1449413299560547
      vertex 0.19218601286411285 0.022472001612187376 0.10575580596923828
      vertex 0.1929679960012436 0.023240000009537687 0.10491752624511719
    endloop
  endfacet
  facet normal 0.5616074581344744 -0.800324342558912 -0.20994763555558252
    outer loop
      vertex 0.20848600566387177 0.023630000650883665 0.1449413299560547
      vertex 0.1929679960012436 0.023240000009537687 0.10491752624511719
      vertex 0.20961500704288483 0.024422999471426954 0.14493846893310547
    endloop
  endfacet
  facet normal 0.2659151169105707 -0.8213996922645332 -0.5045708038978945
    outer loop
      vertex 0.19218601286411285 0.022472001612187376 0.10575580596923828
      vertex 0.1530189961194992 0.019714999943972578 0.08960247039794922
      vertex 0.15296699106693268 0.020424000918866148 0.08842086791992188
    endloop
  endfacet
  facet normal 0.26589666875795204 -0.8214337744575054 -0.5045250397392782
    outer loop
      vertex 0.19218601286411285 0.022472001612187376 0.10575580596923828
      vertex 0.15296699106693268 0.020424000918866148 0.08842086791992188
      vertex 0.1929679960012436 0.023240000009537687 0.10491752624511719
    endloop
  endfacet
  facet normal -0.15121579738853747 -0.8501844466875067 -0.5043016847392113
    outer loop
      vertex 0.1530189961194992 0.019714999943972578 0.08960247039794922
      vertex 0.11392898857593536 0.016974002122879972 0.10594463348388672
      vertex 0.11304299533367157 0.017625998705626478 0.10511112213134766
    endloop
  endfacet
  facet normal -0.15097210998005578 -0.8505693153074988 -0.5037253833841436
    outer loop
      vertex 0.1530189961194992 0.019714999943972578 0.08960247039794922
      vertex 0.11304299533367157 0.017625998705626478 0.10511112213134766
      vertex 0.15296699106693268 0.020424000918866148 0.08842086791992188
    endloop
  endfacet
  facet normal -0.4453440236155402 -0.870961316020058 -0.20759356113938082
    outer loop
      vertex 0.11392898857593536 0.016974002122879972 0.10594463348388672
      vertex 0.09781299531459808 0.01585600152611827 0.14520835876464844
      vertex 0.0965849906206131 0.016483001410962095 0.14521217346191406
    endloop
  endfacet
  facet normal -0.44550198042350686 -0.8708641867386627 -0.2076621142499049
    outer loop
      vertex 0.11392898857593536 0.016974002122879972 0.10594463348388672
      vertex 0.0965849906206131 0.016483001410962095 0.14521217346191406
      vertex 0.11304299533367157 0.017625998705626478 0.10511112213134766
    endloop
  endfacet
  facet normal -0.4443231089826495 -0.8707723885364198 0.21055265893968417
    outer loop
      vertex 0.09781299531459808 0.01585600152611827 0.14520835876464844
      vertex 0.114112988114357 0.017014000564814565 0.18439483642578125
      vertex 0.11323200166225433 0.01766600087285137 0.18523216247558594
    endloop
  endfacet
  facet normal -0.444036311530566 -0.8709435053419353 0.21044990982424416
    outer loop
      vertex 0.09781299531459808 0.01585600152611827 0.14520835876464844
      vertex 0.11323200166225433 0.01766600087285137 0.18523216247558594
      vertex 0.0965849906206131 0.016483001410962095 0.14521217346191406
    endloop
  endfacet
  facet normal -0.09376059155212922 -0.9185149261756083 0.38410842462046035
    outer loop
      vertex 0.13080699741840363 0.004188001155854215 0.16850566864013672
      vertex 0.1539900153875351 0.005819998681546201 0.17806720733642578
      vertex 0.15367700159549713 0.012345001101494786 0.19359397888183594
    endloop
  endfacet
  facet normal -0.09377040311928508 -0.9185107518434689 0.38411601144288743
    outer loop
      vertex 0.13080699741840363 0.004188001155854215 0.16850566864013672
      vertex 0.15367700159549713 0.012345001101494786 0.19359397888183594
      vertex 0.11947600543498993 0.009938001632691373 0.1794891357421875
    endloop
  endfacet
  facet normal 0.22239314532241386 -0.8972104770194801 0.38151624977198634
    outer loop
      vertex 0.1539900153875351 0.005819998681546201 0.17806720733642578
      vertex 0.17712800204753876 0.007442001253367414 0.1683940887451172
      vertex 0.18781201541423798 0.014738000929356565 0.17932415008544922
    endloop
  endfacet
  facet normal 0.22239162170748616 -0.8972062311211392 0.3815271227995663
    outer loop
      vertex 0.1539900153875351 0.005819998681546201 0.17806720733642578
      vertex 0.18781201541423798 0.014738000929356565 0.17932415008544922
      vertex 0.15367700159549713 0.012345001101494786 0.19359397888183594
    endloop
  endfacet
  facet normal 0.44277005300852357 -0.8828559521132654 0.1565887862428498
    outer loop
      vertex 0.17712800204753876 0.007442001253367414 0.1683940887451172
      vertex 0.18666701018810272 0.00810400024056529 0.14515399932861328
      vertex 0.20188401639461517 0.015714999288321485 0.14503765106201172
    endloop
  endfacet
  facet normal 0.44274481214149375 -0.8828745214793287 0.156555455492423
    outer loop
      vertex 0.17712800204753876 0.007442001253367414 0.1683940887451172
      vertex 0.20188401639461517 0.015714999288321485 0.14503765106201172
      vertex 0.18781201541423798 0.014738000929356565 0.17932415008544922
    endloop
  endfacet
  facet normal 0.44081121711931676 -0.8837239568553504 -0.1572178073301788
    outer loop
      vertex 0.18666701018810272 0.00810400024056529 0.14515399932861328
      vertex 0.17701901495456696 0.007417999207974424 0.12195873260498047
      vertex 0.18765099346637726 0.014703001827002515 0.11081981658935547
    endloop
  endfacet
  facet normal 0.4408060753631813 -0.8837264114557039 -0.15721842645992035
    outer loop
      vertex 0.18666701018810272 0.00810400024056529 0.14515399932861328
      vertex 0.18765099346637726 0.014703001827002515 0.11081981658935547
      vertex 0.20188401639461517 0.015714999288321485 0.14503765106201172
    endloop
  endfacet
  facet normal 0.21944483223307631 -0.8991547477241277 -0.37863531960364855
    outer loop
      vertex 0.17701901495456696 0.007417999207974424 0.12195873260498047
      vertex 0.15383599698543549 0.005786001682282438 0.11239814758300781
      vertex 0.15344999730587006 0.01229600235819911 0.09671497344970703
    endloop
  endfacet
  facet normal 0.2194292407066894 -0.899163935106394 -0.37862253779571864
    outer loop
      vertex 0.17701901495456696 0.007417999207974424 0.12195873260498047
      vertex 0.15344999730587006 0.01229600235819911 0.09671497344970703
      vertex 0.18765099346637726 0.014703001827002515 0.11081981658935547
    endloop
  endfacet
  facet normal -0.09421048936607922 -0.9203018453587847 -0.3796957955029521
    outer loop
      vertex 0.15383599698543549 0.005786001682282438 0.11239814758300781
      vertex 0.13069899380207062 0.004163999110461225 0.1220703125
      vertex 0.1193150132894516 0.009902998805047025 0.11098480224609375
    endloop
  endfacet
  facet normal -0.09421065925371203 -0.9203026149964272 -0.3796938879067176
    outer loop
      vertex 0.15383599698543549 0.005786001682282438 0.11239814758300781
      vertex 0.1193150132894516 0.009902998805047025 0.11098480224609375
      vertex 0.15344999730587006 0.01229600235819911 0.09671497344970703
    endloop
  endfacet
  facet normal -0.31817953844229263 -0.934902616221228 -0.1572223886708029
    outer loop
      vertex 0.13069899380207062 0.004163999110461225 0.1220703125
      vertex 0.12116001546382904 0.003502000123263349 0.1453113555908203
      vertex 0.1052430123090744 0.008926000446082105 0.14527034759521484
    endloop
  endfacet
  facet normal -0.31819264612997517 -0.934895490334761 -0.1572382335837277
    outer loop
      vertex 0.13069899380207062 0.004163999110461225 0.1220703125
      vertex 0.1052430123090744 0.008926000446082105 0.14527034759521484
      vertex 0.1193150132894516 0.009902998805047025 0.11098480224609375
    endloop
  endfacet
  facet normal -0.3187667299308553 -0.9341948668427142 0.16021149351376973
    outer loop
      vertex 0.12116001546382904 0.003502000123263349 0.1453113555908203
      vertex 0.13080699741840363 0.004188001155854215 0.16850566864013672
      vertex 0.11947600543498993 0.009938001632691373 0.1794891357421875
    endloop
  endfacet
  facet normal -0.3187572316448981 -0.9341979286612118 0.1602125380835787
    outer loop
      vertex 0.12116001546382904 0.003502000123263349 0.1453113555908203
      vertex 0.11947600543498993 0.009938001632691373 0.1794891357421875
      vertex 0.1052430123090744 0.008926000446082105 0.14527034759521484
    endloop
  endfacet
  facet normal -0.029246428398136553 -0.9711927402055553 0.23649377961793658
    outer loop
      vertex 0.13080699741840363 0.004188001155854215 0.16850566864013672
      vertex 0.14413098990917206 0.0005789995193490882 0.1553325653076172
      vertex 0.15438200533390045 0.001299999654294004 0.1595611572265625
    endloop
  endfacet
  facet normal -0.02920941743945145 -0.9711717460514105 0.23658455064585818
    outer loop
      vertex 0.13080699741840363 0.004188001155854215 0.16850566864013672
      vertex 0.15438200533390045 0.001299999654294004 0.1595611572265625
      vertex 0.1539900153875351 0.005819998681546201 0.17806720733642578
    endloop
  endfacet
  facet normal 0.1662930095169381 -0.9571001506998091 0.23728871974074586
    outer loop
      vertex 0.1539900153875351 0.005819998681546201 0.17806720733642578
      vertex 0.15438200533390045 0.001299999654294004 0.1595611572265625
      vertex 0.16461201012134552 0.0020169988274583717 0.15528392791748047
    endloop
  endfacet
  facet normal 0.1662958463685583 -0.9570993625153152 0.23728991077022663
    outer loop
      vertex 0.1539900153875351 0.005819998681546201 0.17806720733642578
      vertex 0.16461201012134552 0.0020169988274583717 0.15528392791748047
      vertex 0.17712800204753876 0.007442001253367414 0.1683940887451172
    endloop
  endfacet
  facet normal 0.306723575710164 -0.9466463065964338 0.09890105313343335
    outer loop
      vertex 0.17712800204753876 0.007442001253367414 0.1683940887451172
      vertex 0.16461201012134552 0.0020169988274583717 0.15528392791748047
      vertex 0.1688299924135208 0.002310000360012998 0.14500713348388672
    endloop
  endfacet
  facet normal 0.30668798627014277 -0.9466562889918253 0.09891587127347602
    outer loop
      vertex 0.17712800204753876 0.007442001253367414 0.1683940887451172
      vertex 0.1688299924135208 0.002310000360012998 0.14500713348388672
      vertex 0.18666701018810272 0.00810400024056529 0.14515399932861328
    endloop
  endfacet
  facet normal 0.30813082864826863 -0.9460504633344363 -0.10021932578714286
    outer loop
      vertex 0.18666701018810272 0.00810400024056529 0.14515399932861328
      vertex 0.1688299924135208 0.002310000360012998 0.14500713348388672
      vertex 0.16456399857997894 0.0020070001482973 0.1347513198852539
    endloop
  endfacet
  facet normal 0.30811471491592857 -0.9460599249820165 -0.10017954279840578
    outer loop
      vertex 0.18666701018810272 0.00810400024056529 0.14515399932861328
      vertex 0.16456399857997894 0.0020070001482973 0.1347513198852539
      vertex 0.17701901495456696 0.007417999207974424 0.12195873260498047
    endloop
  endfacet
  facet normal 0.1670085049490786 -0.9558681839732338 -0.24171093095345433
    outer loop
      vertex 0.17701901495456696 0.007417999207974424 0.12195873260498047
      vertex 0.16456399857997894 0.0020070001482973 0.1347513198852539
      vertex 0.15431301295757294 0.0012850016355523963 0.130523681640625
    endloop
  endfacet
  facet normal 0.16698874174079437 -0.955859888945793 -0.2417573842437139
    outer loop
      vertex 0.17701901495456696 0.007417999207974424 0.12195873260498047
      vertex 0.15431301295757294 0.0012850016355523963 0.130523681640625
      vertex 0.15383599698543549 0.005786001682282438 0.11239814758300781
    endloop
  endfacet
  facet normal -0.03237668304401412 -0.9702142427036331 -0.24007514167460794
    outer loop
      vertex 0.15383599698543549 0.005786001682282438 0.11239814758300781
      vertex 0.15431301295757294 0.0012850016355523963 0.130523681640625
      vertex 0.14408300817012787 0.0005680024623880287 0.13480091094970703
    endloop
  endfacet
  facet normal -0.032337596377326444 -0.9702194562449655 -0.2400593397147054
    outer loop
      vertex 0.15383599698543549 0.005786001682282438 0.11239814758300781
      vertex 0.14408300817012787 0.0005680024623880287 0.13480091094970703
      vertex 0.13069899380207062 0.004163999110461225 0.1220703125
    endloop
  endfacet
  facet normal -0.1703414828748955 -0.9805117988386349 -0.09787947461141133
    outer loop
      vertex 0.13069899380207062 0.004163999110461225 0.1220703125
      vertex 0.14408300817012787 0.0005680024623880287 0.13480091094970703
      vertex 0.1398649960756302 0.0002750009298334022 0.14507675170898438
    endloop
  endfacet
  facet normal -0.1703851440225885 -0.9805060460854309 -0.09786110711777503
    outer loop
      vertex 0.13069899380207062 0.004163999110461225 0.1220703125
      vertex 0.1398649960756302 0.0002750009298334022 0.14507675170898438
      vertex 0.12116001546382904 0.003502000123263349 0.1453113555908203
    endloop
  endfacet
  facet normal -0.16796996265299538 -0.9808142957161847 0.09894144210145836
    outer loop
      vertex 0.12116001546382904 0.003502000123263349 0.1453113555908203
      vertex 0.1398649960756302 0.0002750009298334022 0.14507675170898438
      vertex 0.14413098990917206 0.0005789995193490882 0.1553325653076172
    endloop
  endfacet
  facet normal -0.1679348628436456 -0.9808288467621501 0.09885674079655177
    outer loop
      vertex 0.12116001546382904 0.003502000123263349 0.1453113555908203
      vertex 0.14413098990917206 0.0005789995193490882 0.1553325653076172
      vertex 0.13080699741840363 0.004188001155854215 0.16850566864013672
    endloop
  endfacet
  facet normal -0.24222378510401205 -0.6700525208529938 0.7016817349970238
    outer loop
      vertex 0.114112988114357 0.017014000564814565 0.18439483642578125
      vertex 0.11947600543498993 0.009938001632691373 0.1794891357421875
      vertex 0.15367700159549713 0.012345001101494786 0.19359397888183594
    endloop
  endfacet
  facet normal -0.24222391305462782 -0.6700511920699537 0.7016829597119614
    outer loop
      vertex 0.114112988114357 0.017014000564814565 0.18439483642578125
      vertex 0.15367700159549713 0.012345001101494786 0.19359397888183594
      vertex 0.15328000485897064 0.019771002233029362 0.2005481719970703
    endloop
  endfacet
  facet normal 0.33561518436944526 -0.6342719498209742 0.6964635968167776
    outer loop
      vertex 0.15328000485897064 0.019771002233029362 0.2005481719970703
      vertex 0.15367700159549713 0.012345001101494786 0.19359397888183594
      vertex 0.18781201541423798 0.014738000929356565 0.17932415008544922
    endloop
  endfacet
  facet normal 0.33561909062762413 -0.6342647728591687 0.6964682504724776
    outer loop
      vertex 0.15328000485897064 0.019771002233029362 0.2005481719970703
      vertex 0.18781201541423798 0.014738000929356565 0.17932415008544922
      vertex 0.19237099587917328 0.02251100167632198 0.1842060089111328
    endloop
  endfacet
  facet normal 0.7376961128775977 -0.6118739036646387 0.28533273744784204
    outer loop
      vertex 0.19237099587917328 0.02251100167632198 0.1842060089111328
      vertex 0.18781201541423798 0.014738000929356565 0.17932415008544922
      vertex 0.20188401639461517 0.015714999288321485 0.14503765106201172
    endloop
  endfacet
  facet normal 0.7377086937529047 -0.6118585525835479 0.2853331295026026
    outer loop
      vertex 0.19237099587917328 0.02251100167632198 0.1842060089111328
      vertex 0.20188401639461517 0.015714999288321485 0.14503765106201172
      vertex 0.20848600566387177 0.023630000650883665 0.1449413299560547
    endloop
  endfacet
  facet normal 0.7338873294680118 -0.6156367559892829 -0.28705534713936603
    outer loop
      vertex 0.20848600566387177 0.023630000650883665 0.1449413299560547
      vertex 0.20188401639461517 0.015714999288321485 0.14503765106201172
      vertex 0.18765099346637726 0.014703001827002515 0.11081981658935547
    endloop
  endfacet
  facet normal 0.7339325743354598 -0.6155606460484371 -0.28710288637656617
    outer loop
      vertex 0.20848600566387177 0.023630000650883665 0.1449413299560547
      vertex 0.18765099346637726 0.014703001827002515 0.11081981658935547
      vertex 0.19218601286411285 0.022472001612187376 0.10575580596923828
    endloop
  endfacet
  facet normal 0.3302044848951816 -0.6431102772381376 -0.690922694276135
    outer loop
      vertex 0.19218601286411285 0.022472001612187376 0.10575580596923828
      vertex 0.18765099346637726 0.014703001827002515 0.11081981658935547
      vertex 0.15344999730587006 0.01229600235819911 0.09671497344970703
    endloop
  endfacet
  facet normal 0.33020632117173376 -0.6431551939438694 -0.69088000547219
    outer loop
      vertex 0.19218601286411285 0.022472001612187376 0.10575580596923828
      vertex 0.15344999730587006 0.01229600235819911 0.09671497344970703
      vertex 0.1530189961194992 0.019714999943972578 0.08960247039794922
    endloop
  endfacet
  facet normal -0.24224311442266613 -0.6787231396459545 -0.6932915499441381
    outer loop
      vertex 0.1530189961194992 0.019714999943972578 0.08960247039794922
      vertex 0.15344999730587006 0.01229600235819911 0.09671497344970703
      vertex 0.1193150132894516 0.009902998805047025 0.11098480224609375
    endloop
  endfacet
  facet normal -0.24225426793463142 -0.6787082021012824 -0.6933022761161977
    outer loop
      vertex 0.1530189961194992 0.019714999943972578 0.08960247039794922
      vertex 0.1193150132894516 0.009902998805047025 0.11098480224609375
      vertex 0.11392898857593536 0.016974002122879972 0.10594463348388672
    endloop
  endfacet
  facet normal -0.6519671012633987 -0.7015945717174785 -0.2875829546526859
    outer loop
      vertex 0.11392898857593536 0.016974002122879972 0.10594463348388672
      vertex 0.1193150132894516 0.009902998805047025 0.11098480224609375
      vertex 0.1052430123090744 0.008926000446082105 0.14527034759521484
    endloop
  endfacet
  facet normal -0.6519740942269078 -0.7015879921573421 -0.28758315270132273
    outer loop
      vertex 0.11392898857593536 0.016974002122879972 0.10594463348388672
      vertex 0.1052430123090744 0.008926000446082105 0.14527034759521484
      vertex 0.09781299531459808 0.01585600152611827 0.14520835876464844
    endloop
  endfacet
  facet normal -0.653549193316476 -0.6980880455838809 0.29248338846550065
    outer loop
      vertex 0.09781299531459808 0.01585600152611827 0.14520835876464844
      vertex 0.1052430123090744 0.008926000446082105 0.14527034759521484
      vertex 0.11947600543498993 0.009938001632691373 0.1794891357421875
    endloop
  endfacet
  facet normal -0.6535405748088291 -0.6980992029146931 0.29247601605672774
    outer loop
      vertex 0.09781299531459808 0.01585600152611827 0.14520835876464844
      vertex 0.11947600543498993 0.009938001632691373 0.1794891357421875
      vertex 0.114112988114357 0.017014000564814565 0.18439483642578125
    endloop
  endfacet
  facet normal 0.029364060978428596 -0.9947116956953205 0.09841948165782738
    outer loop
      vertex 0.15438200533390045 0.001299999654294004 0.1595611572265625
      vertex 0.14413098990917206 0.0005789995193490882 0.1553325653076172
      vertex 0.15105800330638885 0.00009400397539233163 0.14836406707763672
    endloop
  endfacet
  facet normal 0.029547101827918924 -0.9947116508062427 0.09836513876313209
    outer loop
      vertex 0.15438200533390045 0.001299999654294004 0.1595611572265625
      vertex 0.15105800330638885 0.00009400397539233163 0.14836406707763672
      vertex 0.15422199666500092 0.0003169998526582618 0.14966869354248047
    endloop
  endfacet
  facet normal 0.10969448395070842 -0.9892671590063498 0.09652775923170155
    outer loop
      vertex 0.16461201012134552 0.0020169988274583717 0.15528392791748047
      vertex 0.15438200533390045 0.001299999654294004 0.1595611572265625
      vertex 0.15422199666500092 0.0003169998526582618 0.14966869354248047
    endloop
  endfacet
  facet normal 0.10966159243639231 -0.9892649311821763 0.09658794478317874
    outer loop
      vertex 0.16461201012134552 0.0020169988274583717 0.15528392791748047
      vertex 0.15422199666500092 0.0003169998526582618 0.14966869354248047
      vertex 0.15737901628017426 0.0005379989743242164 0.1483478546142578
    endloop
  endfacet
  facet normal -0.028317822843565228 -0.9987419687739264 0.041383338664028775
    outer loop
      vertex 0.14413098990917206 0.0005789995193490882 0.1553325653076172
      vertex 0.1398649960756302 0.0002750009298334022 0.14507675170898438
      vertex 0.1497410088777542 9.43689570931383e-16 0.14519786834716797
    endloop
  endfacet
  facet normal -0.028268229615104355 -0.9987422351839471 0.04141080600762464
    outer loop
      vertex 0.14413098990917206 0.0005789995193490882 0.1553325653076172
      vertex 0.1497410088777542 9.43689570931383e-16 0.14519786834716797
      vertex 0.15105800330638885 0.00009400397539233163 0.14836406707763672
    endloop
  endfacet
  facet normal 0.16396669650476633 -0.9856868975355076 0.03919518419575987
    outer loop
      vertex 0.1688299924135208 0.002310000360012998 0.14500713348388672
      vertex 0.16461201012134552 0.0020169988274583717 0.15528392791748047
      vertex 0.15737901628017426 0.0005379989743242164 0.1483478546142578
    endloop
  endfacet
  facet normal 0.16401430689760352 -0.9856721614518841 0.0393661945286738
    outer loop
      vertex 0.1688299924135208 0.002310000360012998 0.14500713348388672
      vertex 0.15737901628017426 0.0005379989743242164 0.1483478546142578
      vertex 0.1586809903383255 0.0006280019879350562 0.14517688751220703
    endloop
  endfacet
  facet normal -0.02737037318160363 -0.9988360977101831 -0.039715394785816614
    outer loop
      vertex 0.1398649960756302 0.0002750009298334022 0.14507675170898438
      vertex 0.14408300817012787 0.0005680024623880287 0.13480091094970703
      vertex 0.15104301273822784 0.00009000301361178353 0.14202594757080078
    endloop
  endfacet
  facet normal -0.02732798635810433 -0.9988434389643236 -0.03955964609971737
    outer loop
      vertex 0.1398649960756302 0.0002750009298334022 0.14507675170898438
      vertex 0.15104301273822784 0.00009000301361178353 0.14202594757080078
      vertex 0.1497410088777542 9.43689570931383e-16 0.14519786834716797
    endloop
  endfacet
  facet normal 0.16275066932020218 -0.9859130865570589 -0.038569487828587254
    outer loop
      vertex 0.16456399857997894 0.0020070001482973 0.1347513198852539
      vertex 0.1688299924135208 0.002310000360012998 0.14500713348388672
      vertex 0.1586809903383255 0.0006280019879350562 0.14517688751220703
    endloop
  endfacet
  facet normal 0.16258224813961392 -0.9859370274817952 -0.03866769233133223
    outer loop
      vertex 0.16456399857997894 0.0020070001482973 0.1347513198852539
      vertex 0.1586809903383255 0.0006280019879350562 0.14517688751220703
      vertex 0.15736399590969086 0.000535003840924253 0.14201068878173828
    endloop
  endfacet
  facet normal 0.030123957744765884 -0.9950449787854225 -0.09475250584396086
    outer loop
      vertex 0.14408300817012787 0.0005680024623880287 0.13480091094970703
      vertex 0.15431301295757294 0.0012850016355523963 0.130523681640625
      vertex 0.15420101583003998 0.0003120005130777259 0.14070606231689453
    endloop
  endfacet
  facet normal 0.03025301126322046 -0.9950200852904415 -0.09497254960308313
    outer loop
      vertex 0.14408300817012787 0.0005680024623880287 0.13480091094970703
      vertex 0.15420101583003998 0.0003120005130777259 0.14070606231689453
      vertex 0.15104301273822784 0.00009000301361178353 0.14202594757080078
    endloop
  endfacet
  facet normal 0.1082128867996241 -0.9897340260244133 -0.09336235247677613
    outer loop
      vertex 0.15431301295757294 0.0012850016355523963 0.130523681640625
      vertex 0.16456399857997894 0.0020070001482973 0.1347513198852539
      vertex 0.15736399590969086 0.000535003840924253 0.14201068878173828
    endloop
  endfacet
  facet normal 0.10829749214783764 -0.9897227216285723 -0.09338408583169097
    outer loop
      vertex 0.15431301295757294 0.0012850016355523963 0.130523681640625
      vertex 0.15736399590969086 0.000535003840924253 0.14201068878173828
      vertex 0.15420101583003998 0.0003120005130777259 0.14070606231689453
    endloop
  endfacet
  facet normal 0.07022735242634473 -0.9975309804258138 0.000249122260335343
    outer loop
      vertex 0.15104301273822784 0.00009000301361178353 0.14202594757080078
      vertex 0.15420101583003998 0.0003120005130777259 0.14070606231689453
      vertex 0.15736399590969086 0.000535003840924253 0.14201068878173828
    endloop
  endfacet
  facet normal 0.07022748368785665 -0.9975309559053814 0.00030421270147180777
    outer loop
      vertex 0.15104301273822784 0.00009000301361178353 0.14202594757080078
      vertex 0.15736399590969086 0.000535003840924253 0.14201068878173828
      vertex 0.15421099960803986 0.0003139972686777015 0.1451864242553711
    endloop
  endfacet
  facet normal 0.0700741080354555 -0.997541682821 0.0004587130725116521
    outer loop
      vertex 0.1497410088777542 9.43689570931383e-16 0.14519786834716797
      vertex 0.15104301273822784 0.00009000301361178353 0.14202594757080078
      vertex 0.15421099960803986 0.0003139972686777015 0.1451864242553711
    endloop
  endfacet
  facet normal 0.07007413445747344 -0.9975416760788443 0.00046921833548083683
    outer loop
      vertex 0.1497410088777542 9.43689570931383e-16 0.14519786834716797
      vertex 0.15421099960803986 0.0003139972686777015 0.1451864242553711
      vertex 0.15105800330638885 0.00009400397539233163 0.14836406707763672
    endloop
  endfacet
  facet normal 0.07007556797206552 -0.9975415802264748 0.00045879479052323574
    outer loop
      vertex 0.1586809903383255 0.0006280019879350562 0.14517688751220703
      vertex 0.15737901628017426 0.0005379989743242164 0.1483478546142578
      vertex 0.15421099960803986 0.0003139972686777015 0.1451864242553711
    endloop
  endfacet
  facet normal 0.0700749231944447 -0.997541719446687 0.00015199552567470823
    outer loop
      vertex 0.1586809903383255 0.0006280019879350562 0.14517688751220703
      vertex 0.15421099960803986 0.0003139972686777015 0.1451864242553711
      vertex 0.15736399590969086 0.000535003840924253 0.14201068878173828
    endloop
  endfacet
  facet normal 0.07006992501691293 -0.9975419178160209 0.0005725452465458908
    outer loop
      vertex 0.15737901628017426 0.0005379989743242164 0.1483478546142578
      vertex 0.15422199666500092 0.0003169998526582618 0.14966869354248047
      vertex 0.15105800330638885 0.00009400397539233163 0.14836406707763672
    endloop
  endfacet
  facet normal 0.07006965381412945 -0.9975419929112415 0.00046475051021252636
    outer loop
      vertex 0.15737901628017426 0.0005379989743242164 0.1483478546142578
      vertex 0.15105800330638885 0.00009400397539233163 0.14836406707763672
      vertex 0.15421099960803986 0.0003139972686777015 0.1451864242553711
    endloop
  endfacet
  facet normal -0.44422670284116733 -0.8708287180638231 0.21052311103103133
    outer loop
      vertex 0.07898899912834167 0.042998000979424474 0.21776199340820312
      vertex 0.04885299503803253 0.04085600003600215 0.1453113555908203
      vertex 0.0965849906206131 0.016483001410962095 0.14521217346191406
    endloop
  endfacet
  facet normal -0.4442234412861195 -0.8708300710610882 0.21052439656167557
    outer loop
      vertex 0.07898899912834167 0.042998000979424474 0.21776199340820312
      vertex 0.0965849906206131 0.016483001410962095 0.14521217346191406
      vertex 0.11323200166225433 0.01766600087285137 0.18523216247558594
    endloop
  endfacet
  facet normal -0.4452030916865081 -0.8710459384837521 -0.20754079166210723
    outer loop
      vertex 0.04885299503803253 0.04085600003600215 0.1453113555908203
      vertex 0.07864800095558167 0.04292399995029067 0.07271766662597656
      vertex 0.11304299533367157 0.017625998705626478 0.10511112213134766
    endloop
  endfacet
  facet normal -0.44520520671378155 -0.8710437516930323 -0.20754543249964902
    outer loop
      vertex 0.04885299503803253 0.04085600003600215 0.1453113555908203
      vertex 0.11304299533367157 0.017625998705626478 0.10511112213134766
      vertex 0.0965849906206131 0.016483001410962095 0.14521217346191406
    endloop
  endfacet
  facet normal -0.1510232572772463 -0.850486631222243 -0.5038496460985272
    outer loop
      vertex 0.07864800095558167 0.04292399995029067 0.07271766662597656
      vertex 0.15092100203037262 0.047989999875427236 0.04250335693359375
      vertex 0.15296699106693268 0.020424000918866148 0.08842086791992188
    endloop
  endfacet
  facet normal -0.15102621862230786 -0.8504908376752561 -0.5038416579830295
    outer loop
      vertex 0.07864800095558167 0.04292399995029067 0.07271766662597656
      vertex 0.15296699106693268 0.020424000918866148 0.08842086791992188
      vertex 0.11304299533367157 0.017625998705626478 0.10511112213134766
    endloop
  endfacet
  facet normal 0.26602622392831116 -0.8211896428036595 -0.5048540568663802
    outer loop
      vertex 0.15092100203037262 0.047989999875427236 0.04250335693359375
      vertex 0.22333501279354095 0.053088000975550165 0.07236862182617188
      vertex 0.1929679960012436 0.023240000009537687 0.10491752624511719
    endloop
  endfacet
  facet normal 0.2660133865587241 -0.8211972609260247 -0.5048484295500514
    outer loop
      vertex 0.15092100203037262 0.047989999875427236 0.04250335693359375
      vertex 0.1929679960012436 0.023240000009537687 0.10491752624511719
      vertex 0.15296699106693268 0.020424000918866148 0.08842086791992188
    endloop
  endfacet
endsolid Standard Female Figure
